<svg width="50" height="50" viewBox="0 0 50 50" fill="none" xmlns="http://www.w3.org/2000/svg">
<g clip-path="url(#clip0)">
<g filter="url(#filter0_d)">
<path d="M14 34.5027C14 34.8357 13.7975 35.1985 13.344 35.5008C12.894 35.8008 12.2435 36.0027 11.5 36.0027C10.8648 36.0027 10.2401 35.6344 9.7527 35.085C9.25767 34.527 9 33.8903 9 33.5026C9 33.3382 9.04476 33.2768 9.08176 33.2413C9.1362 33.1891 9.25002 33.1255 9.47964 33.0781C9.87831 32.9959 10.4127 32.9984 11.0844 33.0014C11.2175 33.002 11.3561 33.0027 11.5 33.0027C12.2435 33.0027 12.894 33.2045 13.344 33.5045C13.7975 33.8068 14 34.1696 14 34.5027Z" stroke="#E2A507"/>
<path d="M39.4979 38.7046C39.4484 38.6052 39.4008 38.5106 39.3552 38.4205C39.2852 38.565 39.1918 38.7047 39.0649 38.8205C38.8737 38.9948 38.6319 39.0911 38.3588 39.0911C38.0391 39.0911 37.7358 39.0583 37.4828 38.9358C37.4597 38.9246 37.4373 38.9128 37.4156 38.9004C37.4082 38.9402 37.4012 38.9821 37.3948 39.0261C37.3239 39.5101 37.3321 40.0855 37.3406 40.6738C37.3433 40.8675 37.3461 41.0625 37.3461 41.2562C37.3461 41.4452 37.3431 41.6185 37.3402 41.7739L37.3399 41.7947C37.3371 41.9431 37.3347 42.0717 37.3351 42.1879C37.3359 42.4428 37.3514 42.5775 37.3762 42.6548C37.3883 42.6927 37.3931 42.6946 37.4014 42.6977C37.4028 42.6983 37.4043 42.6989 37.406 42.6997C37.452 42.722 37.5711 42.755 37.8461 42.755C37.9123 42.755 38.0671 42.7048 38.294 42.421C38.5086 42.1527 38.7188 41.758 38.9044 41.2905C39.2563 40.4038 39.4748 39.3709 39.4979 38.7046ZM37.8526 37.1307C37.8519 37.1693 37.8512 37.2064 37.8505 37.2424C37.8649 37.2202 37.8858 37.1804 37.9087 37.1135C37.9416 37.0178 37.966 36.9068 37.9925 36.7765C37.9948 36.7654 37.9971 36.7538 37.9996 36.7416C38.021 36.6349 38.05 36.4909 38.0913 36.3768C38.1141 36.314 38.1584 36.2064 38.2463 36.1112C38.3288 36.0218 38.4519 35.9434 38.6044 35.9246C38.5942 35.7202 38.5814 35.5137 38.5682 35.3092C38.5645 35.2523 38.5607 35.1954 38.557 35.1387C38.5315 34.7502 38.5064 34.3689 38.5011 34.0476C38.2605 33.572 38.0522 33.2237 37.8726 32.975C37.6767 32.7038 37.5347 32.579 37.448 32.5273C37.414 32.507 37.3948 32.5017 37.3887 32.5004C37.3761 32.5053 37.327 32.5302 37.242 32.6284C37.154 32.73 37.0624 32.8685 36.9563 33.0434C36.926 33.0933 36.8935 33.1478 36.8597 33.2047C36.7848 33.3307 36.7032 33.4678 36.6238 33.5899C36.5068 33.7699 36.3638 33.9675 36.1893 34.1228C36.0596 34.2383 35.8936 34.3468 35.6924 34.3974C35.5563 34.5458 35.4881 34.6506 35.4574 34.7174C35.4555 34.7213 35.4539 34.725 35.4525 34.7284C35.464 34.737 35.4796 34.7478 35.5007 34.7604C35.5862 34.8117 35.7102 34.8644 35.8809 34.9254C35.9505 34.9503 36.03 34.9769 36.1156 35.0055C36.4017 35.1012 36.7562 35.2197 37.0397 35.3737C37.4291 35.5851 37.8589 35.9538 37.8589 36.5923C37.8589 36.7813 37.8558 36.9546 37.8529 37.1099L37.8526 37.1307ZM35.4404 34.764C35.4404 34.764 35.4405 34.7636 35.4406 34.7628L35.4404 34.764ZM13.5 40.255C13.665 40.255 13.8247 40.2556 13.979 40.2563C14.7622 40.2594 15.4058 40.262 15.8879 40.1768C16.1722 40.1266 16.3284 40.056 16.4075 39.9909C16.4601 39.9477 16.5 39.8935 16.5 39.755C16.5 39.5809 16.4333 39.2999 16.2718 38.9534C16.1144 38.6158 15.8832 38.2513 15.5957 37.9167C15.0082 37.2332 14.2594 36.755 13.5 36.755C12.5485 36.755 11.8909 36.8555 11.4863 37.044C11.2931 37.1341 11.1789 37.2346 11.111 37.3349C11.045 37.4324 11 37.5629 11 37.755C11 38.1727 11.2136 38.8128 11.6597 39.3497C12.0948 39.8734 12.7131 40.255 13.5 40.255Z" stroke="#E2A507"/>
<path d="M15.4993 31.3123C15.4993 31.3124 15.4994 31.3131 15.4995 31.3143L15.4993 31.3123ZM15.4695 31.5173C15.4242 31.5239 15.3728 31.5326 15.3141 31.5432C15.2372 31.5572 15.1519 31.5739 15.0586 31.5923C14.5689 31.6886 13.8601 31.8279 13 31.8279C12.5015 31.8279 11.9975 31.8023 11.5319 31.7766C11.4821 31.7738 11.4329 31.7711 11.3842 31.7683C10.9711 31.7453 10.5966 31.7244 10.2704 31.7213C9.93578 31.7181 9.69851 31.7351 9.54731 31.7695C9.58506 31.8355 9.6438 31.9176 9.72768 32.0124C9.91524 32.2244 10.1968 32.4645 10.5468 32.6909C11.2529 33.1479 12.1592 33.5 13 33.5C13.7855 33.5 14.4085 33.1098 14.8501 32.6097C15.0707 32.3599 15.2379 32.0907 15.3483 31.849C15.4076 31.719 15.4461 31.6069 15.4695 31.5173Z" stroke="#E2A507"/>
<ellipse cx="24" cy="24.5" rx="15.5" ry="16.5" fill="#E0B186"/>
<path d="M38 15H10.5C10.8333 11.3333 14 4 24 4C34 4 37.5 11.3333 38 15Z" fill="#FFB800"/>
<path d="M48 18.5L10.5 15C13 14.6667 21.98 15 38 15C45.5 15 49 17.5 48 18.5Z" fill="#E2A507"/>
<path d="M22 42.5C22 42.6385 21.9601 42.6927 21.9075 42.7359C21.8284 42.8009 21.6722 42.8716 21.3879 42.9218C20.9058 43.007 20.2622 43.0044 19.479 43.0013C19.3247 43.0006 19.165 43 19 43C18.2131 43 17.5948 42.6184 17.1597 42.0947C16.7136 41.5578 16.5 40.9177 16.5 40.5C16.5 40.3079 16.545 40.1774 16.611 40.0799C16.6789 39.9796 16.7931 39.879 16.9863 39.789C17.3909 39.6005 18.0485 39.5 19 39.5C19.7594 39.5 20.5082 39.9782 21.0957 40.6617C21.3832 40.9963 21.6144 41.3608 21.7718 41.6984C21.9333 42.0449 22 42.3259 22 42.5Z" stroke="#E2A507"/>
<path d="M26 44.5C26 44.6385 25.9601 44.6927 25.9075 44.7359C25.8284 44.8009 25.6722 44.8716 25.3879 44.9218C24.9058 45.007 24.2622 45.0044 23.479 45.0013C23.3247 45.0006 23.165 45 23 45C22.2131 45 21.5948 44.6184 21.1597 44.0947C20.7136 43.5578 20.5 42.9177 20.5 42.5C20.5 42.3079 20.545 42.1774 20.611 42.0799C20.6789 41.9796 20.7931 41.879 20.9863 41.789C21.3909 41.6005 22.0485 41.5 23 41.5C23.7594 41.5 24.5082 41.9782 25.0957 42.6617C25.3832 42.9963 25.6144 43.3608 25.7718 43.6984C25.9333 44.0449 26 44.3259 26 44.5Z" stroke="#E2A507"/>
<path d="M30.5 45.1093C30.5 45.1777 30.4862 45.2055 30.4233 45.2482C30.3271 45.3133 30.1417 45.3803 29.8239 45.4267C29.2929 45.5041 28.5857 45.5017 27.7426 45.4988C27.5771 45.4982 27.4064 45.4976 27.2308 45.4976C26.3341 45.4976 25.6499 45.1378 25.1871 44.6783C24.708 44.2026 24.5 43.6572 24.5 43.3325C24.5 43.1933 24.5376 43.1019 24.5986 43.0275C24.6668 42.9444 24.7916 42.8506 25.0142 42.765C25.4711 42.5893 26.2008 42.5 27.2308 42.5C28.1014 42.5 28.9261 42.9488 29.5498 43.5474C29.8583 43.8435 30.1034 44.1634 30.2685 44.4555C30.4402 44.7592 30.5 44.9877 30.5 45.1093Z" stroke="#E2A507"/>
<path d="M32.5 46.3708C32.5 46.4731 32.506 46.5411 32.5122 46.5843C32.5286 46.5841 32.5482 46.5834 32.5713 46.5818C32.6922 46.5739 32.8272 46.5533 33.008 46.5258C33.1166 46.5092 33.2418 46.4902 33.3904 46.4698C33.6987 46.4276 34.0663 46.3872 34.4973 46.3747C35.1714 45.4143 36.0113 45.003 36.6344 44.7118C36.6478 44.7055 36.6609 44.6994 36.6738 44.6933C37.0047 44.5388 37.2121 44.4419 37.3539 44.3272C37.451 44.2486 37.4918 44.1839 37.4989 44.074C37.2815 42.8473 37.1218 42.1216 36.9898 41.7178C36.987 41.721 36.9843 41.7243 36.9815 41.7276C36.9793 41.7302 36.9771 41.7328 36.9748 41.7354C36.8634 41.8667 36.7202 42.0354 36.5512 42.1963C36.2022 42.5288 35.6995 42.8708 35 42.8708C34.2152 42.8708 33.5998 43.3874 33.1522 44.1612C32.7045 44.9351 32.5 45.8492 32.5 46.3708ZM36.8598 41.4107C36.8598 41.4107 36.8603 41.4114 36.8613 41.4126C36.8603 41.4113 36.8598 41.4107 36.8598 41.4107Z" stroke="#E2A507"/>
</g>
<path d="M36.5 46.1093C36.5 46.1777 36.4862 46.2055 36.4233 46.2482C36.3271 46.3133 36.1417 46.3803 35.8239 46.4267C35.2929 46.5041 34.5857 46.5017 33.7426 46.4988C33.5771 46.4982 33.4064 46.4976 33.2308 46.4976C32.3341 46.4976 31.6499 46.1378 31.1871 45.6783C30.708 45.2026 30.5 44.6572 30.5 44.3325C30.5 44.1933 30.5376 44.1019 30.5986 44.0275C30.6668 43.9444 30.7916 43.8506 31.0142 43.765C31.4711 43.5893 32.2008 43.5 33.2308 43.5C34.1014 43.5 34.9261 43.9488 35.5498 44.5474C35.8583 44.8435 36.1034 45.1634 36.2685 45.4555C36.4402 45.7592 36.5 45.9877 36.5 46.1093Z" stroke="#E2A507"/>
</g>
<defs>
<filter id="filter0_d" x="4.5" y="0" width="47.6674" height="51.0845" filterUnits="userSpaceOnUse" color-interpolation-filters="sRGB">
<feFlood flood-opacity="0" result="BackgroundImageFix"/>
<feColorMatrix in="SourceAlpha" type="matrix" values="0 0 0 0 0 0 0 0 0 0 0 0 0 0 0 0 0 0 127 0"/>
<feOffset/>
<feGaussianBlur stdDeviation="2"/>
<feColorMatrix type="matrix" values="0 0 0 0 0 0 0 0 0 0 0 0 0 0 0 0 0 0 0.25 0"/>
<feBlend mode="normal" in2="BackgroundImageFix" result="effect1_dropShadow"/>
<feBlend mode="normal" in="SourceGraphic" in2="effect1_dropShadow" result="shape"/>
</filter>
<clipPath id="clip0">
<rect width="50" height="50" fill="white"/>
</clipPath>
</defs>
</svg>
