<svg width="50" height="50" viewBox="0 0 50 50" fill="none" xmlns="http://www.w3.org/2000/svg">
<g filter="url(#filter0_d)">
<path d="M15.8859 10.6848C16.5288 6.8273 19.8663 4 23.777 4H27.223C31.1337 4 34.4712 6.8273 35.1141 10.6848L36 16H15L15.8859 10.6848Z" fill="#656677"/>
<ellipse cx="25.5" cy="16" rx="17.5" ry="5" fill="#413D42"/>
<ellipse cx="25.5" cy="29.5" rx="15.5" ry="16.5" fill="#E8CBB2"/>
<path d="M35 26C37.8 30.6957 39.8333 31.7826 41 31" stroke="black" stroke-width="0.5"/>
<circle r="4.25" transform="matrix(-1 0 0 1 32.5 24.5)" fill="#EED9C5" stroke="black" stroke-width="0.5"/>
<path d="M29.5407 34.479C28.5582 34.1579 26.9209 33.7395 25.4543 33.9981V36.6975C25.4543 36.6975 28.4191 36.4295 30.169 36.6975C34.9981 37.437 33.7685 33 33.7685 33C33.1136 36.6975 31.8037 35.2185 29.5407 34.479Z" fill="black"/>
<path d="M21.3678 34.479C22.3503 34.1579 23.9876 33.7395 25.4543 33.9981V36.6975C25.4543 36.6975 22.4894 36.4295 20.7395 36.6975C15.9104 37.437 17.14 33 17.14 33C17.7949 36.6975 19.1048 35.2185 21.3678 34.479Z" fill="black"/>
</g>
<defs>
<filter id="filter0_d" x="4" y="0" width="43" height="50" filterUnits="userSpaceOnUse" color-interpolation-filters="sRGB">
<feFlood flood-opacity="0" result="BackgroundImageFix"/>
<feColorMatrix in="SourceAlpha" type="matrix" values="0 0 0 0 0 0 0 0 0 0 0 0 0 0 0 0 0 0 127 0"/>
<feOffset/>
<feGaussianBlur stdDeviation="2"/>
<feColorMatrix type="matrix" values="0 0 0 0 0 0 0 0 0 0 0 0 0 0 0 0 0 0 0.25 0"/>
<feBlend mode="normal" in2="BackgroundImageFix" result="effect1_dropShadow"/>
<feBlend mode="normal" in="SourceGraphic" in2="effect1_dropShadow" result="shape"/>
</filter>
</defs>
</svg>
