<svg width="50" height="50" viewBox="0 0 50 50" fill="none" xmlns="http://www.w3.org/2000/svg">
<g filter="url(#filter0_d)">
<ellipse cx="25.5" cy="27.5" rx="15.5" ry="16.5" fill="#EED9C5"/>
<path d="M17 27C14.2 31.6957 12.1667 32.7826 11 32" stroke="black" stroke-width="0.5"/>
<circle cx="19.5" cy="25.5" r="4.25" fill="#EED9C5" stroke="black" stroke-width="0.5"/>
<path d="M33 7.65929C40.5 8.65929 40 15.6593 38.5 19.1593L32 16.6593C26.8333 17.8259 15.9 19.4593 13.5 16.6593C10.5 13.1593 14.5 3.65927 14.5 5.15927C14.5 6.65927 17.5 9.15929 19 9.65929C20.5 10.1593 25.5 6.65929 33 7.65929Z" fill="black"/>
<path d="M23.8449 36.8332L17.7904 34.1694C17.1774 33.9032 16.4713 33.9532 15.903 34.3019C15.3373 34.6494 15 35.2369 15 35.8757V41.9757C15 42.6144 15.3373 43.2019 15.903 43.5494C16.2285 43.7494 16.5986 43.8507 16.9714 43.8507C17.2496 43.8507 17.5305 43.7944 17.793 43.6794L23.8436 41.0169C24.0786 40.9169 24.2269 40.6944 24.2269 40.4507V37.4007C24.2269 37.1569 24.0786 36.9357 23.8449 36.8332Z" fill="#4286C6"/>
<path d="M35.097 34.3019C34.5261 33.9532 33.8213 33.9044 33.2044 34.1707L27.1538 36.8332C26.9214 36.9357 26.7731 37.1569 26.7731 37.4007V40.4507C26.7731 40.6944 26.9214 40.9169 27.1538 41.0182L33.2083 43.6819C33.4695 43.7957 33.7491 43.8519 34.026 43.8519C34.3988 43.8519 34.7702 43.7507 35.0957 43.5507C35.6614 43.2032 36 42.6144 36 41.9757V35.8757C36 35.2369 35.6627 34.6494 35.097 34.3019Z" fill="#4286C6"/>
<path d="M26.2812 36H24.9688C23.8833 36 23 36.8076 23 37.8V40.2C23 41.1924 23.8833 42 24.9688 42H26.2812C27.3667 42 28.25 41.1924 28.25 40.2V37.8C28.25 36.8076 27.3667 36 26.2812 36Z" fill="#2A67A2"/>
</g>
<defs>
<filter id="filter0_d" x="6" y="1" width="39" height="47" filterUnits="userSpaceOnUse" color-interpolation-filters="sRGB">
<feFlood flood-opacity="0" result="BackgroundImageFix"/>
<feColorMatrix in="SourceAlpha" type="matrix" values="0 0 0 0 0 0 0 0 0 0 0 0 0 0 0 0 0 0 127 0"/>
<feOffset/>
<feGaussianBlur stdDeviation="2"/>
<feColorMatrix type="matrix" values="0 0 0 0 0 0 0 0 0 0 0 0 0 0 0 0 0 0 0.25 0"/>
<feBlend mode="normal" in2="BackgroundImageFix" result="effect1_dropShadow"/>
<feBlend mode="normal" in="SourceGraphic" in2="effect1_dropShadow" result="shape"/>
</filter>
</defs>
</svg>
