<svg width="50" height="50" viewBox="0 0 50 50" fill="none" xmlns="http://www.w3.org/2000/svg">
<g clip-path="url(#clip0)">
<g filter="url(#filter0_d)">
<ellipse cx="25.5" cy="17" rx="17.5" ry="5" fill="black"/>
<ellipse cx="25.5" cy="31.5" rx="15.5" ry="16.5" fill="#E8CBB2"/>
<rect x="16" y="2" width="20" height="12" fill="black"/>
<circle cx="38" cy="21" r="1" fill="#C4C4C4"/>
<circle cx="38" cy="21" r="1" fill="#C4C4C4"/>
<circle cx="38" cy="21" r="1" fill="#C4C4C4"/>
<circle cx="38" cy="21" r="1" fill="#C4C4C4"/>
<circle cx="38" cy="21" r="1" fill="#C4C4C4"/>
<circle cx="38" cy="21" r="1" fill="#C4C4C4"/>
<circle cx="38" cy="21" r="1" fill="black"/>
<circle cx="38" cy="20" r="1" fill="black"/>
<circle cx="38" cy="23" r="1" fill="black"/>
<circle cx="38" cy="22" r="1" fill="black"/>
<circle cx="38" cy="25" r="1" fill="black"/>
<circle cx="38" cy="24" r="1" fill="black"/>
<circle cx="38" cy="27" r="1" fill="black"/>
<circle cx="38" cy="26" r="1" fill="black"/>
<circle cx="38" cy="29" r="1" fill="black"/>
<circle cx="38" cy="28" r="1" fill="black"/>
<circle cx="38" cy="31" r="1" fill="black"/>
<circle cx="38" cy="30" r="1" fill="black"/>
<circle cx="38" cy="35" r="1" fill="black"/>
<circle cx="38" cy="34" r="1" fill="black"/>
<circle cx="38" cy="37" r="1" fill="black"/>
<circle cx="38" cy="36" r="1" fill="black"/>
<circle cx="38" cy="39" r="1" fill="black"/>
<circle cx="38" cy="41" r="1" fill="black"/>
<circle cx="38" cy="40" r="1" fill="black"/>
<circle cx="38" cy="38" r="1" fill="black"/>
<circle cx="38" cy="43" r="1" fill="black"/>
<circle cx="38" cy="44" r="1" fill="black"/>
<circle cx="38" cy="44" r="1" fill="black"/>
<circle cx="38" cy="42" r="1" fill="black"/>
<circle cx="38" cy="33" r="1" fill="black"/>
<circle cx="38" cy="32" r="1" fill="black"/>
<circle cx="13" cy="21" r="1" fill="#C4C4C4"/>
<circle cx="13" cy="21" r="1" fill="#C4C4C4"/>
<circle cx="13" cy="21" r="1" fill="#C4C4C4"/>
<circle cx="13" cy="21" r="1" fill="#C4C4C4"/>
<circle cx="13" cy="21" r="1" fill="#C4C4C4"/>
<circle cx="13" cy="21" r="1" fill="#C4C4C4"/>
<circle cx="13" cy="21" r="1" fill="black"/>
<circle cx="13" cy="20" r="1" fill="black"/>
<circle cx="13" cy="23" r="1" fill="black"/>
<circle cx="13" cy="22" r="1" fill="black"/>
<circle cx="13" cy="25" r="1" fill="black"/>
<circle cx="13" cy="24" r="1" fill="black"/>
<circle cx="13" cy="27" r="1" fill="black"/>
<circle cx="13" cy="26" r="1" fill="black"/>
<circle cx="13" cy="29" r="1" fill="black"/>
<circle cx="13" cy="28" r="1" fill="black"/>
<circle cx="13" cy="31" r="1" fill="black"/>
<circle cx="13" cy="30" r="1" fill="black"/>
<circle cx="13" cy="35" r="1" fill="black"/>
<circle cx="13" cy="34" r="1" fill="black"/>
<circle cx="13" cy="37" r="1" fill="black"/>
<circle cx="13" cy="36" r="1" fill="black"/>
<circle cx="13" cy="39" r="1" fill="black"/>
<circle cx="13" cy="41" r="1" fill="black"/>
<circle cx="13" cy="40" r="1" fill="black"/>
<circle cx="13" cy="38" r="1" fill="black"/>
<circle cx="13" cy="43" r="1" fill="black"/>
<circle cx="13" cy="44" r="1" fill="black"/>
<circle cx="13" cy="44" r="1" fill="black"/>
<circle cx="13" cy="42" r="1" fill="black"/>
<circle cx="13" cy="33" r="1" fill="black"/>
<circle cx="13" cy="32" r="1" fill="black"/>
<path d="M23.8449 41.8332L17.7904 39.1694C17.1774 38.9032 16.4713 38.9532 15.903 39.3019C15.3373 39.6494 15 40.2369 15 40.8757V46.9757C15 47.6144 15.3373 48.2019 15.903 48.5494C16.2285 48.7494 16.5986 48.8507 16.9714 48.8507C17.2496 48.8507 17.5305 48.7944 17.793 48.6794L23.8436 46.0169C24.0786 45.9169 24.2269 45.6944 24.2269 45.4507V42.4007C24.2269 42.1569 24.0786 41.9357 23.8449 41.8332Z" fill="black"/>
<path d="M35.097 39.3019C34.5261 38.9532 33.8212 38.9044 33.2044 39.1707L27.1537 41.8332C26.9214 41.9357 26.7731 42.1569 26.7731 42.4007V45.4507C26.7731 45.6944 26.9214 45.9169 27.1537 46.0182L33.2083 48.6819C33.4695 48.7957 33.7491 48.8519 34.026 48.8519C34.3987 48.8519 34.7702 48.7507 35.0957 48.5507C35.6614 48.2032 36 47.6144 36 46.9757V40.8757C36 40.2369 35.6627 39.6494 35.097 39.3019Z" fill="black"/>
<path d="M26.2812 41H24.9688C23.8833 41 23 41.8076 23 42.8V45.2C23 46.1924 23.8833 47 24.9688 47H26.2812C27.3667 47 28.25 46.1924 28.25 45.2V42.8C28.25 41.8076 27.3667 41 26.2812 41Z" fill="#C4C4C4"/>
</g>
</g>
<defs>
<filter id="filter0_d" x="4" y="-2" width="43" height="54.8519" filterUnits="userSpaceOnUse" color-interpolation-filters="sRGB">
<feFlood flood-opacity="0" result="BackgroundImageFix"/>
<feColorMatrix in="SourceAlpha" type="matrix" values="0 0 0 0 0 0 0 0 0 0 0 0 0 0 0 0 0 0 127 0"/>
<feOffset/>
<feGaussianBlur stdDeviation="2"/>
<feColorMatrix type="matrix" values="0 0 0 0 0 0 0 0 0 0 0 0 0 0 0 0 0 0 0.25 0"/>
<feBlend mode="normal" in2="BackgroundImageFix" result="effect1_dropShadow"/>
<feBlend mode="normal" in="SourceGraphic" in2="effect1_dropShadow" result="shape"/>
</filter>
<clipPath id="clip0">
<rect width="50" height="50" fill="white"/>
</clipPath>
</defs>
</svg>
