<svg width="50" height="50" viewBox="0 0 50 50" fill="none" xmlns="http://www.w3.org/2000/svg">
<g clip-path="url(#clip0)">
<g filter="url(#filter0_d)">
<ellipse cx="24.5" cy="28.5" rx="15.5" ry="16.5" fill="#BF8565"/>
<path d="M31.7925 33.8819C31.602 33.7508 31.3607 33.7549 31.1877 33.9064C31.1526 33.9273 30.9967 34.0089 30.7109 34.0089C30.3886 34.0089 30.0217 33.9072 29.6206 33.7065C29.2668 33.5295 28.8982 33.2397 28.508 32.9328C27.7891 32.3675 27.0456 31.7828 26.2083 31.7828C25.7123 31.7828 25.2527 31.991 24.8425 32.4015L24.5001 32.7442L24.1577 32.4015C23.7475 31.991 23.2879 31.7828 22.7919 31.7828C21.9547 31.7828 21.2112 32.3675 20.4922 32.9328C20.1019 33.2397 19.7333 33.5295 19.3795 33.7065C18.9785 33.9072 18.6116 34.0089 18.2892 34.0089C18.0034 34.0089 17.8474 33.9273 17.8123 33.9064C17.6392 33.7549 17.398 33.751 17.2076 33.882C17.0148 34.0147 16.9523 34.274 17.0371 34.4921C17.0562 34.5411 17.5164 35.7037 18.6648 36.8656C19.7252 37.9383 21.5983 39.2172 24.5001 39.2172C27.4019 39.2172 29.275 37.9384 30.3354 36.8656C31.4838 35.7037 31.944 34.541 31.963 34.4921C32.0478 34.274 31.9852 34.0145 31.7925 33.8819ZM21.1159 33.7261C21.6998 33.2669 22.3038 32.792 22.7918 32.792C22.9333 32.792 23.1547 32.8255 23.4437 33.1149L24.1431 33.8148C24.2378 33.9095 24.3662 33.9627 24.5 33.9627C24.6339 33.9627 24.7623 33.9095 24.857 33.8148L25.5564 33.1149C25.8455 32.8255 26.0668 32.792 26.2083 32.792C26.6963 32.792 27.3002 33.2669 27.8842 33.7261C28.2969 34.0507 28.7236 34.3861 29.169 34.609C29.2514 34.6502 29.3329 34.6871 29.4141 34.7221C28.3622 35.0403 26.7763 35.3329 24.5001 35.3329C22.224 35.3329 20.6381 35.0403 19.5861 34.7221C19.6673 34.6871 19.7488 34.6502 19.8311 34.609C20.2764 34.3862 20.7032 34.0507 21.1159 33.7261ZM24.5 38.208C22.4656 38.208 20.7535 37.5275 19.4116 36.1854C19.1942 35.9681 19.0051 35.7502 18.841 35.5413C19.9877 35.9462 21.7993 36.3421 24.5 36.3421C27.2008 36.3421 29.0124 35.9462 30.159 35.5413C29.9949 35.7502 29.8059 35.9681 29.5885 36.1855C28.2466 37.5275 26.5345 38.208 24.5 38.208Z" fill="#820B0B"/>
<path d="M21.1159 33.7261C21.6998 33.2669 22.3038 32.792 22.7918 32.792C22.9333 32.792 23.1547 32.8255 23.4437 33.1149L24.1431 33.8148C24.2378 33.9095 24.3662 33.9627 24.5 33.9627C24.6339 33.9627 24.7623 33.9095 24.857 33.8148L25.5564 33.1149C25.8455 32.8255 26.0668 32.792 26.2083 32.792C26.6963 32.792 27.3002 33.2669 27.8842 33.7261C28.2969 34.0507 28.7236 34.3861 29.169 34.609C29.2514 34.6502 29.3329 34.6871 29.4141 34.7221C28.3622 35.0403 26.7763 35.3329 24.5001 35.3329C22.224 35.3329 20.6381 35.0403 19.5861 34.7221C19.6673 34.6871 19.7488 34.6502 19.8311 34.609C20.2764 34.3862 20.7032 34.0507 21.1159 33.7261Z" fill="#962C2C"/>
<path d="M24.5 38.208C22.4656 38.208 20.7535 37.5275 19.4116 36.1854C19.1942 35.9681 19.0051 35.7502 18.841 35.5413C19.9877 35.9462 21.7993 36.3421 24.5 36.3421C27.2008 36.3421 29.0124 35.9462 30.159 35.5413C29.9949 35.7502 29.8059 35.9681 29.5885 36.1855C28.2466 37.5275 26.5345 38.208 24.5 38.208Z" fill="#962C2C"/>
<circle cx="31.5" cy="29.5" r="0.5" fill="#262626"/>
<mask id="mask0" mask-type="alpha" maskUnits="userSpaceOnUse" x="9" y="12" width="31" height="33">
<ellipse cx="24.5" cy="28.5" rx="15.5" ry="16.5" fill="#BF8565"/>
</mask>
<g mask="url(#mask0)">
<path d="M22 17C19.2 19 14.3333 19.1667 11.5 19L10.5 16L17.5 11L24 8.5L35.5 12.5L38 20C31 20.5 24 18.5 22 17Z" fill="black"/>
</g>
<path d="M38.1335 6.3331C34.1404 6.88543 33.0798 8.72253 32.0191 10.5596C30.9584 12.3968 31.959 14.1992 28.8371 16.071L28.9665 16.554L29.8377 17.8735C29.8377 17.8735 32.2872 19.2877 32.3819 17.7094C32.5433 15.0216 38.7552 14.4488 38.6951 18.0883C38.6351 21.7279 42.9217 24.2027 46.4665 25.8411C43.2752 23.5904 42.8144 17.7875 44.0678 13.0252C45.0938 9.12686 42.1266 5.78076 38.1335 6.3331Z" fill="black"/>
</g>
</g>
<defs>
<filter id="filter0_d" x="5" y="1" width="47.1903" height="48" filterUnits="userSpaceOnUse" color-interpolation-filters="sRGB">
<feFlood flood-opacity="0" result="BackgroundImageFix"/>
<feColorMatrix in="SourceAlpha" type="matrix" values="0 0 0 0 0 0 0 0 0 0 0 0 0 0 0 0 0 0 127 0"/>
<feOffset/>
<feGaussianBlur stdDeviation="2"/>
<feColorMatrix type="matrix" values="0 0 0 0 0 0 0 0 0 0 0 0 0 0 0 0 0 0 0.25 0"/>
<feBlend mode="normal" in2="BackgroundImageFix" result="effect1_dropShadow"/>
<feBlend mode="normal" in="SourceGraphic" in2="effect1_dropShadow" result="shape"/>
</filter>
<clipPath id="clip0">
<rect width="50" height="50" fill="white"/>
</clipPath>
</defs>
</svg>
