<svg width="50" height="50" viewBox="0 0 50 50" fill="none" xmlns="http://www.w3.org/2000/svg">
<g filter="url(#filter0_d)">
<ellipse cx="25.8328" cy="26.7097" rx="15.5" ry="16.5" fill="#EED9C5"/>
<path d="M24.1777 36.0429L18.1232 33.3791C17.5102 33.1129 16.8041 33.1629 16.2358 33.5116C15.6701 33.8591 15.3328 34.4466 15.3328 35.0854V41.1853C15.3328 41.8241 15.6701 42.4116 16.2358 42.7591C16.5613 42.9591 16.9314 43.0604 17.3042 43.0604C17.5824 43.0604 17.8633 43.0041 18.1258 42.8891L24.1764 40.2266C24.4114 40.1266 24.5597 39.9041 24.5597 39.6603V36.6104C24.5597 36.3666 24.4114 36.1454 24.1777 36.0429Z" fill="#B52B2B"/>
<path d="M35.4298 33.5116C34.8588 33.1628 34.154 33.1141 33.5371 33.3803L27.4865 36.0428C27.2542 36.1453 27.1059 36.3666 27.1059 36.6103V39.6603C27.1059 39.9041 27.2542 40.1266 27.4865 40.2278L33.5411 42.8916C33.8023 43.0053 34.0818 43.0616 34.3588 43.0616C34.7315 43.0616 35.103 42.9603 35.4285 42.7603C35.9941 42.4128 36.3328 41.8241 36.3328 41.1853V35.0853C36.3328 34.4466 35.9955 33.8591 35.4298 33.5116Z" fill="#B52B2B"/>
<path d="M26.614 35.2097H25.3015C24.2161 35.2097 23.3328 36.0173 23.3328 37.0097V39.4097C23.3328 40.4021 24.2161 41.2097 25.3015 41.2097H26.614C27.6995 41.2097 28.5828 40.4021 28.5828 39.4097V37.0097C28.5828 36.0173 27.6995 35.2097 26.614 35.2097Z" fill="#A02424"/>
<path d="M23.3328 24.2097C23.8328 23.3972 25.8328 20.1473 28.3328 24.2095" stroke="black" stroke-width="0.5"/>
<path d="M14.3328 23.7097C11.1328 23.7097 10.9995 23.7097 10.8328 23.7097" stroke="black" stroke-width="0.5"/>
<path d="M40.8328 24.2097C37.6328 24.2097 37.4994 24.2097 37.3328 24.2097" stroke="black" stroke-width="0.5"/>
<circle cx="32.3328" cy="24.2097" r="4.75" fill="#EED9C5" stroke="black" stroke-width="0.5"/>
<circle cx="19.3328" cy="24.2097" r="4.75" fill="#EED9C5" stroke="black" stroke-width="0.5"/>
<path d="M41.3328 19.2097C32.3328 17.2097 36.6503 17.2096 24.5 17.2096C12.3497 17.2096 14 8.70962 8 8.20962C14 2.70965 15.6825 9.20965 27.8328 9.20965C39.9831 9.20965 41.3328 19.2097 41.3328 19.2097Z" fill="#4E1414"/>
<path d="M27.8328 10.2097C25.1661 6.20966 26.7942 6.20966 26.572 6.20966C26.9053 7.00892 25.2386 8.20966 26.9053 8.70966C27.8602 9.20966 25.9995 9.82962 25.9995 9.20966" stroke="#4E1414"/>
</g>
<defs>
<filter id="filter0_d" x="4" y="1.70966" width="41.3328" height="45.5" filterUnits="userSpaceOnUse" color-interpolation-filters="sRGB">
<feFlood flood-opacity="0" result="BackgroundImageFix"/>
<feColorMatrix in="SourceAlpha" type="matrix" values="0 0 0 0 0 0 0 0 0 0 0 0 0 0 0 0 0 0 127 0"/>
<feOffset/>
<feGaussianBlur stdDeviation="2"/>
<feColorMatrix type="matrix" values="0 0 0 0 0 0 0 0 0 0 0 0 0 0 0 0 0 0 0.25 0"/>
<feBlend mode="normal" in2="BackgroundImageFix" result="effect1_dropShadow"/>
<feBlend mode="normal" in="SourceGraphic" in2="effect1_dropShadow" result="shape"/>
</filter>
</defs>
</svg>
