<svg width="50" height="50" viewBox="0 0 50 50" fill="none" xmlns="http://www.w3.org/2000/svg">
<g clip-path="url(#clip0)">
<g filter="url(#filter0_d)">
<path d="M33.5 28C37 32 39 33.5 43.5 34M32 34C32.6667 36.1667 35.5 38 40 40M28 36C27.8333 37.8333 28.5 41.5 32 44.5M22 38C22.1667 39.3333 21.9 42.5 19.5 44.5M18.5 33.5C18.6667 34.8333 16 39.1 12 41.5M15 29.5C15.6667 31.1667 13 34 7 36.5" stroke="#6C5589" stroke-width="4" stroke-linecap="round" stroke-linejoin="round"/>
<ellipse cx="24" cy="22.5" rx="15.5" ry="16.5" fill="#9F7CCA"/>
<circle cx="24" cy="18.5" r="6.5" fill="#F5E1BF"/>
<circle cx="24" cy="18.5" r="2.5" fill="#3E2015"/>
</g>
</g>
<defs>
<filter id="filter0_d" x="0.999481" y="2" width="48.5007" height="48.5001" filterUnits="userSpaceOnUse" color-interpolation-filters="sRGB">
<feFlood flood-opacity="0" result="BackgroundImageFix"/>
<feColorMatrix in="SourceAlpha" type="matrix" values="0 0 0 0 0 0 0 0 0 0 0 0 0 0 0 0 0 0 127 0"/>
<feOffset/>
<feGaussianBlur stdDeviation="2"/>
<feColorMatrix type="matrix" values="0 0 0 0 0 0 0 0 0 0 0 0 0 0 0 0 0 0 0.25 0"/>
<feBlend mode="normal" in2="BackgroundImageFix" result="effect1_dropShadow"/>
<feBlend mode="normal" in="SourceGraphic" in2="effect1_dropShadow" result="shape"/>
</filter>
<clipPath id="clip0">
<rect width="50" height="50" fill="white"/>
</clipPath>
</defs>
</svg>
