<?xml version="1.0" encoding="UTF-8" standalone="no"?>
<!-- Created with Inkscape (http://www.inkscape.org/) -->
<svg xmlns:rdf="http://www.w3.org/1999/02/22-rdf-syntax-ns#" xmlns="http://www.w3.org/2000/svg" xmlns:cc="http://web.resource.org/cc/" xmlns:dc="http://purl.org/dc/elements/1.1/" xmlns:svg="http://www.w3.org/2000/svg" xmlns:inkscape="http://www.inkscape.org/namespaces/inkscape" xmlns:sodipodi="http://sodipodi.sourceforge.net/DTD/sodipodi-0.dtd" xmlns:ns1="http://sozi.baierouge.fr" xmlns:xlink="http://www.w3.org/1999/xlink" id="Layer_1" xml:space="preserve" version="1.0" viewBox="0 0 273.599 174.03" inkscape:version="0.91 r13725">
<g id="g5">
	<path id="path7" style="stroke:black;stroke-width:.036;stroke-miterlimit:10;fill-rule:evenodd" d="m91.98 9.933c-5.4-3.348-11.34-5.796-18.108-7.2-6.768-1.548-13.248-1.225-22.212-1.548-9.072-0.36-24.732-1.116-31.572-0.324-6.876 0.648-6.3 2.484-9.396 4.392-3.24 1.835-7.992 3.204-9.684 6.875-1.728 3.528-0.684 8.424-0.612 14.688-0.072 6.408-0.54 16.056 0.936 22.824 1.512 6.552 2.556 11.844 8.136 16.272 5.508 4.284 16.236 6.444 24.696 9.684 8.352 3.168 18.036 7.776 25.308 9.36 7.164 1.404 12.492 0.936 17.532-0.288 4.896-1.188 9-3.528 12.168-6.876-1.584 10.872-0.54 21.132 3.132 30.928 3.744 9.75 11.666 19.4 18.756 27.54 6.91 8.13 14.47 16.3 22.54 20.62 7.99 4.11 17.06 1.62 24.98 4.07 7.78 2.52 13.18 8.1 21.6 10.33 8.28 2.13 16.78 3.82 28.12 1.88 11.44-2.13 32.04-10.12 39.42-14.4 7.05-4.43 4.53-9.26 3.13-11.56-1.51-2.3-1.05-1.66-11.92-2.52-11.09-1.04-39.27 1.8-53.46-3.42-14.25-5.4-23.65-19.37-31.25-28.15-7.63-8.97-11.44-18.11-14.07-24.375-2.7-6.3-3.28-10.44-1.87-12.852 2.44 1.728 5.94 1.728 10.62-0.288 4.57-2.052 10.26-7.632 17.2-11.592 6.88-4.176 14.73-10.188 24.09-12.492 9.21-2.232 18.43-2.412 31.25-0.936 12.81 1.44 36.25 9.252 45.03 9.396 8.64-0.072 7.31-5.976 6.55-9.396-0.97-3.6-3.78-7.488-11.88-11.268-8.31-3.888-23.14-9.576-36.57-11.232s-29.7-1.296-42.84 1.224c-13.25 2.412-26.64 9.396-35.32 13.464-8.64 3.996-13.82 7.488-15.95 10.62-1.18-3.204-1.76-6.192-1.87-9.36s0.25-6.3 1.23-9.396c-2.49-2.484-4.54-4.212-6.56-5.616-2.01-1.404-3.74-2.196-5.32-2.52-3.32 2.268-6.41 4.932-9.69 8.136-3.35 3.204-6.95 6.948-9.682 10.944-2.808 3.924-4.86 7.992-6.588 12.492-12.672-4.066-23.904-8.243-34.38-12.814-10.44-4.536-19.584-9.324-27.828-14.364 10.368-3.168 18.792-5.508 25.956-6.876 7.092-1.404 12.384-1.98 16.272-1.584 1.08 1.728 2.088 2.88 3.42 3.456 1.296 0.468 2.844-0.684 4.068 0 1.08 0.684-0.36 4.212 2.484 4.068 2.772-0.288 9.36-4.212 14.076-5.652 4.572-1.584 6.842-1.548 13.462-3.096 6.59-1.584 17.82-3.06 25.63-5.94 7.74-3.024 17.54-9.108 20.34-11.592 2.63-2.628-0.82-4.284-4.39-3.42-3.71 0.9-8.1 6.732-17.21 8.748-9.21 1.872-21.52 2.808-37.508 2.808-1.44-0.613-2.916-1.224-4.392-1.872z"/>
	<path id="path9" style="fill-rule:evenodd;stroke:black;stroke-width:.036;stroke-miterlimit:10;fill:yellow" d="m99.828 12.74c3.672 0.468 7.992 0.576 12.812 0.324 4.86-0.324 10.23-0.9 16.24-1.872-0.11 1.332-0.58 2.376-1.55 3.42-1.01 0.864-1.04 1.656-4.39 2.52-3.49 0.864-12.1 1.944-16.24 2.808-4.24 0.72-7.268 1.44-9.068 1.872 1.62-1.08 2.558-2.016 2.808-2.808 0.14-0.864-1.116-1.224-1.26-2.196-0.144-1.116 0.072-2.34 0.648-4.068z"/>
	<path id="path11" style="fill-rule:evenodd;stroke:black;stroke-width:.036;stroke-miterlimit:10;fill:yellow" d="m134.21 10.256c-0.97 1.08-1.23 1.8-0.61 2.16 0.57 0.36 1.87 0.36 4.03 0 3.92-1.548 6.77-2.772 9.07-4.068 2.16-1.332 3.56-2.34 4.07-3.42-1.44 0.36-2.63 0.468-3.42 0.324-0.83-0.216-1.41-0.54-1.59-1.26-2.73 1.872-4.93 3.276-6.87 4.356-1.95 1.008-3.46 1.693-4.68 1.908z"/>
	<path id="path13" style="fill-rule:evenodd;stroke:black;stroke-width:.036;stroke-miterlimit:10;fill:yellow" d="m93.564 12.128c-2.88-2.16-7.056-3.996-12.816-5.652-5.832-1.692-11.232-3.42-21.6-4.068-10.476-0.612-33.048-0.504-40.644 0.324-7.56 0.684-2.592 2.484-4.68 3.744-2.304 1.116-7.704 1.189-8.424 3.132-0.756 1.836 0.648 4.392 4.068 7.812 6.12-3.024 13.464-5.364 22.176-6.876 8.748-1.548 22.86-2.376 29.7-2.484 6.624-0.252 13.716 0.288 10.008 0.936-3.996 0.396-22.896 0.576-32.832 2.196-9.972 1.62-18.54 4.068-26.244 7.488 2.304 2.376 4.752 4.464 7.488 6.264 2.664 1.764 5.58 3.168 8.748 4.356 7.056-3.024 14.148-5.256 21.276-6.552 7.056-1.404 14.148-1.872 21.276-1.548-0.936-2.448-0.936-4.284 0-5.652 0.972-1.44 4.32-1.476 5.616-2.484 1.044-1.152-0.432-3.42 1.26-3.744 1.584-0.36 6.12 1.332 8.748 1.872 2.664 0.504 4.824 0.721 6.876 0.936z"/>
	<path id="path15" style="fill-rule:evenodd;stroke:black;stroke-width:.036;stroke-miterlimit:10;fill:yellow" d="m89.82 12.74c-4.68-1.296-7.92-1.872-9.72-1.872-1.872 0.072-0.144 0.792-1.224 1.872-1.296 1.008-4.608 2.16-5.652 3.744-1.044 1.512-0.684 3.276-0.288 4.716 0.324 1.188 1.152 2.268 2.484 2.808 1.332 0.36 4.032-0.324 5.328 0.288 1.08 0.648-0.288 3.852 1.872 3.78 2.232-0.252 5.652-1.692 10.944-4.716-5.112 0.828-7.848 1.044-8.748 0.648-0.864-0.432 2.196-2.268 3.744-3.132 1.476-0.9 5.868-1.872 5.004-2.52-1.008-0.9-10.008-1.8-10.62-2.16-0.504-0.468 5.4 0.18 7.164 0 1.584-0.324 2.52-0.648 2.52-1.26-0.144-0.54-0.936-1.368-2.808-2.196z"/>
	<path id="path17" style="fill-rule:evenodd;stroke:black;stroke-width:.036;stroke-miterlimit:10;fill:yellow" d="m3.816 11.805c0.972 3.528 3.636 6.84 8.136 10.62 4.572 3.636 11.34 7.164 18.756 11.268 7.308 4.14 14.436 8.568 24.696 13.14 10.188 4.428 21.996 8.676 35.964 13.14l-1.872 9.684c-8.856-0.54-17.856-2.556-27.828-5.652-10.008-3.313-22.644-9.037-31.248-13.428-8.748-4.5-18.072-11.736-20.34-12.816s2.196 3.276 6.876 6.552c4.644 3.276 12.96 8.892 20.628 12.816 7.632 3.816 17.208 7.524 24.408 10.008 6.984 2.376 12.996 3.563 17.496 4.392 4.392 0.792 7.416 0.9 9.072 0.324 0.036 2.844-1.62 5.184-4.68 7.164-3.312 1.944-8.1 4.248-14.076 4.392-6.048-0.036-15.084-2.232-21.276-4.068-6.156-1.944-10.116-4.752-15.624-6.876-5.76-2.052-13.14-2.808-17.82-5.616-4.752-3.06-7.812-6.984-10.008-12.204-2.088-5.4-2.556-13.428-2.808-19.08-0.504-5.688 0.396-10.944 0.324-14.364-0.144-3.42-1.26-4.86-0.972-6.264 0.216-1.621 0.9-2.665 2.196-3.132z"/>
	<path id="path19" style="fill-rule:evenodd;stroke:black;stroke-width:.036;stroke-miterlimit:10;fill:yellow" d="m111.06 34.628l-0.94 5.328c-5.61 3.888-9.68 9.072-12.2 16.236-2.556 7.128-3.168 18.648-3.096 25.956 0 7.164 2.376 17.932 2.808 16.884 0.252-1.368-1.404-16.848-0.937-24.084 0.324-7.272 0.684-13.248 3.425-19.044 2.73-5.904 6.91-10.944 12.81-15.66 1.33-0.9 2.59-1.368 3.78-1.548s2.09 0.072 3.1 0.612c-0.4 6.48-0.65 14.508-0.61 24.084-0.08 9.612-2.6 22.14 0.61 33.156 3.17 10.872 8.82 22.612 18.47 31.892 9.61 9.18 26.24 18.69 38.77 23.12 12.45 4.32 34.27 2.8 35.31 2.8 0.69-0.07-22.28-1.76-30.31-3.42-8.03-1.76-11.56-4.06-17.53-7.2-6.12-3.38-13.07-7.3-18.76-12.2-5.83-4.93-11.41-10.04-15.62-16.88-4.29-6.92-8.21-15.628-9.69-24.051-1.47-8.604 0.22-17.928 0.62-26.604 0.36-8.712 0.64-16.848 1.26-24.984l4.39 0.288c-0.22 5.724 0.32 12.42 2.16 20.664 1.62 8.172 4.1 18.612 8.13 28.116 4.07 9.36 9.76 19.941 15.95 28.151 6.01 8.14 13.39 15.66 20.34 20.63 6.95 4.86 11.81 6.8 21.24 8.46 9.36 1.55 25.74 0.61 34.42 0.93 8.42 0.26 13.06 0.11 16.56 0.94 3.45 0.65 4.64 1.95 4.39 3.74-0.32 1.88-0.32 4.32-6.26 7.49-6.19 3.14-20.63 8.97-29.7 11.27-9.18 2.13-17.21 2.52-24.09 1.87-6.84-0.75-11.01-3.27-16.56-5.61-5.69-2.41-11.12-6.52-16.88-8.14-5.98-1.62-11.77 0.36-17.53-1.55-5.8-2.12-9.08-3.6-16.24-10.65-7.27-7.2-20.84-21.5-26.28-31.9-5.472-10.55-5.508-21.203-5.94-30.311-0.432-9.072 0.756-16.848 3.132-23.76 2.232-7.092 7.348-13.968 10.328-18.144 2.92-4.249 5.26-6.444 7.17-6.877z"/>
	<path id="path21" style="fill-rule:evenodd;stroke:black;stroke-width:.036;stroke-miterlimit:10;fill:yellow" d="m133.27 53.384l-2.52 1.872c-0.25 1.224-0.14 2.484 0.33 4.068 0.43 1.548 1.11 3.168 2.19 5.004-0.93-0.324 1.69-2.304 8.43-5.94 6.73-3.78 21.27-11.736 31.28-15.948 9.9-4.284 19.12-7.488 27.5-9.072 8.14-1.62 14.55-1.116 21.6-0.288 7.02 0.72 14.12 3.168 20.31 5.004 6.12 1.836 20.48 6.408 16.27 5.94-4.5-0.792-30.06-9.036-42.23-9.72-12.24-0.648-20.45 2.808-30.31 5.94-10.04 3.168-19.58 7.668-28.48 12.528-8.82 4.644-16.56 9.648-23.76 15.3 0.04 2.412 0.83 4.14 2.81 5.328 1.95 1.08 4.86 2.844 8.46 1.548 3.57-1.404 7.45-6.48 12.21-9.684 4.6-3.42 8.78-6.696 15.01-9.684 5.97-2.952 12.78-6.624 21.24-7.812 8.53-1.224 19.76-0.648 29.41 0.612 9.54 1.152 20.05 4.536 27.5 6.264 7.28 1.764 13.07 4.032 16.56 3.744 3.39-0.54 4.14-4.212 4.07-6.552 0-2.376-0.21-4.608-4.68-7.524-4.75-3.06-13.39-8.028-23.15-10.62-9.86-2.7-23.58-5.256-35.02-5.328-11.49-0.072-22.43 1.728-33.12 4.716-10.77 2.844-23.62 9-30.64 12.492-7.02 3.385-10.73 5.941-11.27 7.812z"/>
</g>
<metadata><rdf:RDF><cc:Work><dc:format>image/svg+xml</dc:format><dc:type rdf:resource="http://purl.org/dc/dcmitype/StillImage"/><cc:license rdf:resource="http://creativecommons.org/licenses/publicdomain/"/><dc:publisher><cc:Agent rdf:about="http://openclipart.org/"><dc:title>Openclipart</dc:title></cc:Agent></dc:publisher><dc:title>Banana Peel</dc:title><dc:date>2007-01-04T14:53:02</dc:date><dc:description>For this request:&#13;\n&#13;\nMattsheppard 26 Dec 2006&#13;\n&#13;\nWould love a banana skin (laying on the ground - the kind you might slip over on).</dc:description><dc:source>https://openclipart.org/detail/2774/banana-peel-by-gerald_g</dc:source><dc:creator><cc:Agent><dc:title>Gerald_G</dc:title></cc:Agent></dc:creator><dc:subject><rdf:Bag><rdf:li>banana</rdf:li><rdf:li>cartoon</rdf:li><rdf:li>fruit</rdf:li><rdf:li>peel</rdf:li><rdf:li>request+completed</rdf:li><rdf:li>source+wiki</rdf:li><rdf:li>yellow</rdf:li></rdf:Bag></dc:subject></cc:Work><cc:License rdf:about="http://creativecommons.org/licenses/publicdomain/"><cc:permits rdf:resource="http://creativecommons.org/ns#Reproduction"/><cc:permits rdf:resource="http://creativecommons.org/ns#Distribution"/><cc:permits rdf:resource="http://creativecommons.org/ns#DerivativeWorks"/></cc:License></rdf:RDF></metadata></svg>
