<?xml version="1.0" standalone="no"?>
<!DOCTYPE svg PUBLIC "-//W3C//DTD SVG 1.1//EN" "http://www.w3.org/Graphics/SVG/1.1/DTD/svg11.dtd" >
<svg xmlns="http://www.w3.org/2000/svg" xmlns:xlink="http://www.w3.org/1999/xlink" version="1.1">
<metadata>
Created by FontForge 20170924 at Sun Mar 29 13:57:10 2020
 By www-data
Copyright \(c\) 2020 by Hendra Pratama. All rights reserved.
</metadata>
<defs>
<font id="Shopie" horiz-adv-x="363" >
  <font-face 
    font-family="Shopie"
    font-weight="400"
    font-stretch="normal"
    units-per-em="1000"
    panose-1="2 0 5 6 0 0 0 2 0 3"
    ascent="750"
    descent="-250"
    x-height="322"
    cap-height="645"
    bbox="-575 -314 1987 913"
    underline-thickness="50"
    underline-position="-100"
    stemh="41"
    stemv="86"
    unicode-range="U+0020-FB06"
  />
<missing-glyph horiz-adv-x="322" 
 />
    <glyph glyph-name="F_l" unicode="Fl" horiz-adv-x="573" 
d="M584 509c-22 -71 -113 -355 -113 -455c0 -21 4 -34 13 -35c30 9 99 112 138 216c3 8 9 20 17 20c20 0 31 -15 31 -39c0 -51 -65 -176 -99 -212c-21 -22 -47 -38 -76 -38c-51 0 -105 38 -102 127c0 84 24 170 80 356c23 77 30 97 33 102c11 32 81 -6 78 -42zM-4 529
c60 52 281 113 433 128c24 2 45 4 65 4c31 0 56 -4 71 -11c21 -11 33 -39 25 -64c-12 -17 -21 -11 -27 -4c-8 10 -28 14 -55 14c-9 0 -19 0 -29 -1c-50 -5 -111 -21 -179 -42c-18 -56 -70 -215 -90 -294c28 2 60 6 92 6c21 0 43 -2 62 -8c24 -9 45 -23 32 -39
c-6 -8 -52 -10 -66 -11c-24 -1 -98 -9 -141 -16l-15 -65c-24 -105 -26 -139 -28 -167s0 -45 4 -50c9 -10 1 -14 -18 -13c-28 3 -54 22 -67 48c-2 7 -3 17 -3 29c0 29 5 68 10 97c5 23 12 64 26 110c-18 0 -43 35 -40 55c-1 6 8 11 26 13l36 4c35 110 64 205 85 272
c-85 -31 -157 -65 -179 -89c-5 -5 -13 -11 -22 2c-7 10 -12 30 -14 49s-1 37 6 43z" />
    <glyph glyph-name="K_r" unicode="Kr" horiz-adv-x="850" 
d="M784 -3c-40 0 -72 26 -85 67c-5 15 -7 36 -7 59c0 43 8 96 22 142c-15 2 -34 13 -38 17c-56 -135 -158 -259 -279 -288c-20 -5 -42 -7 -64 -7c-73 0 -147 29 -184 104c-1 1 -1 1 -1 2l-23 -81c-4 -17 -8 -38 -8 -55c0 -18 -1 -22 -22 -22c-25 0 -76 18 -76 48
c0 34 73 257 83 293c30 110 63 252 74 366c0 5 0 12 -2 17c-3 3 -5 6 -5 10c0 13 17 15 26 15c32 0 81 -18 81 -55c0 -58 -32 -182 -55 -270c73 86 191 183 282 183c27 0 65 -16 62 -45c-1 -8 -29 -9 -35 -11c-95 -29 -161 -98 -223 -169c-32 -37 -93 -131 -93 -201
c0 -35 15 -64 57 -76c90 -26 264 116 330 241c19 36 29 66 40 103c1 4 5 7 18 8c21 1 38 -13 41 -25c2 -12 -12 -35 1 -44c12 -8 29 -10 49 -12c21 0 63 -36 56 -57c-13 -40 -32 -113 -32 -166c0 -17 2 -32 7 -43c31 13 80 76 120 190c3 8 9 20 17 20c20 0 32 -15 32 -39
c0 -10 -2 -21 -6 -33c-21 -61 -60 -135 -80 -153c-19 -18 -54 -33 -80 -33z" />
    <glyph glyph-name="Shopie" unicode="Shopie" horiz-adv-x="2038" 
d="M672 22c-22 24 -29 64 -29 104c0 32 5 65 10 90c-32 -36 -38 -39 -104 -147c-13 -21 -29 -61 -35 -82c-6 -22 -89 6 -89 45c13 128 71 377 100 478c2 6 12 44 13 54c1 12 4 19 13 20c25 2 76 -24 74 -48c-3 -32 -19 -81 -29 -120c-44 -173 -51 -230 -54 -235
c35 50 102 128 145 114c27 -9 67 -41 61 -75c-8 -42 -18 -97 -18 -137c0 -15 1 -29 5 -38c24 2 64 62 96 131c12 59 36 119 71 141c8 4 16 8 28 2l2 -1c18 21 59 36 89 27l8 -3c36 17 78 29 118 23c36 -6 97 -45 98 -96c26 29 76 75 122 63c31 -10 44 -21 60 -60
c4 -48 -16 -122 -53 -180c38 13 73 36 99 73c7 47 21 91 34 138c4 8 11 12 20 12c16 2 62 -14 63 -33c1 -4 -1 -8 -2 -11c-11 -37 -25 -87 -34 -132c-4 -22 -7 -42 -7 -58c0 -18 3 -30 12 -34c22 -9 71 27 86 41c-8 21 -12 47 -12 74c0 83 39 177 129 185
c47 4 96 -36 97 -84c1 -58 -60 -139 -132 -196c10 -13 25 -19 43 -19c59 0 147 61 169 118c3 8 9 20 17 20c20 0 31 -15 31 -39c0 -10 -1 -21 -5 -33c-25 -88 -97 -130 -171 -130c-44 0 -88 15 -125 43l-7 6c-34 -21 -69 -34 -98 -35c-59 -2 -96 37 -108 87
c-43 -33 -99 -53 -156 -56c-24 -18 -52 -28 -82 -25c-14 4 -33 10 -44 23c-8 -26 -15 -52 -21 -77c29 1 59 1 88 1c248 0 465 -18 550 -64c13 -7 19 -22 19 -38c0 -10 -2 -21 -7 -30c-8 -15 -22 -12 -26 -10c-8 4 -5 12 -11 16c-38 29 -217 44 -445 44
c-60 0 -123 -1 -187 -3c-7 -34 -11 -62 -9 -81c1 -14 -6 -15 -17 -16c-22 -2 -58 19 -63 42c-2 12 -1 30 2 52c-334 -16 -693 -58 -858 -132c-6 -3 -14 -2 -25 11c-8 9 -13 30 -13 48c0 14 3 26 9 32c74 60 502 114 906 127c19 74 47 158 63 212c16 53 25 91 25 115
c0 14 -3 23 -9 27c-14 9 -40 -2 -78 -22c5 -15 7 -31 7 -49c0 -29 -6 -61 -16 -91c-13 -40 -55 -133 -106 -153c-11 -5 -23 -8 -35 -8c-40 0 -83 27 -103 67c-6 -8 -10 -14 -13 -17c-20 -21 -48 -32 -77 -32c-24 0 -49 8 -69 24zM71 368c-2 12 -4 24 -4 35
c0 156 223 277 336 277c14 0 26 -2 36 -6c26 -13 50 -48 50 -80c0 -12 -4 -23 -11 -32c-11 -13 -29 -7 -32 0c-4 4 4 18 -10 28c-100 -16 -279 -113 -288 -205c-5 -34 70 -73 139 -114c76 -43 110 -108 110 -160c0 -15 -3 -29 -9 -42c-29 -67 -203 -146 -286 -146
c-15 0 -28 3 -35 9c-15 12 -26 45 -25 62c3 27 22 26 26 11c8 -29 251 71 259 134c2 22 -49 45 -80 58c-63 29 -158 89 -176 171zM970 88c41 85 49 124 54 165v1c-26 -2 -63 9 -69 15c-47 -47 -60 -179 -54 -217c6 -56 45 -3 69 36zM1610 507c20 1 32 -7 41 -19
c12 -21 1 -65 -23 -92c-15 -17 -34 -26 -51 -26c-12 0 -23 5 -29 14c-7 11 -10 22 -10 35c0 40 32 83 72 88zM1339 277c-35 -29 -63 -67 -90 -106c-11 -20 -27 -48 -39 -77c0 -2 1 -3 2 -4c16 -6 35 -9 57 -11c42 52 75 148 70 198zM1781 292c-46 -22 -63 -87 -68 -145
c31 36 83 109 68 145z" />
    <glyph glyph-name="e_e" unicode="ee" horiz-adv-x="529" 
d="M365 84c3 -13 13 -54 46 -53c69 12 140 118 171 211c8 24 51 13 51 -22c-16 -92 -94 -234 -205 -238c-51 -2 -94 15 -127 60c-49 -30 -83 -49 -148 -49c-70 0 -132 37 -144 104c-2 9 -2 19 -2 29c0 81 57 198 135 216c48 11 122 -26 118 -89s-100 -145 -156 -181
c0 -8 8 -25 41 -26c37 -1 101 44 132 64c-2 10 -3 21 -3 33c0 82 47 211 148 206c56 -3 102 -46 83 -108c-20 -65 -116 -138 -140 -157zM440 274c-6 29 -64 -33 -74 -98c41 33 76 84 74 98zM185 282c-24 18 -88 -90 -88 -143c29 19 112 126 88 143z" />
    <glyph glyph-name="f_f" unicode="ff" horiz-adv-x="417" 
d="M228 533c-32 -29 -74 -198 -85 -257c50 2 90 5 117 6c5 30 23 121 52 189c18 38 40 63 85 63c36 0 68 -36 75 -60c3 -13 4 -23 4 -32c0 -16 -3 -28 -7 -46c-1 -5 -3 -8 -10 -8c-23 0 -46 13 -46 35c0 16 2 48 -6 59c-27 -25 -52 -140 -60 -197c35 3 79 -4 109 -31
c26 -19 -7 -30 -27 -24h1c-14 3 -28 4 -42 4c-16 0 -33 -1 -49 -2c-24 -128 -42 -262 -42 -401c0 -14 8 -21 -21 -21c-46 0 -60 38 -60 77c0 116 18 239 35 342l-117 -9c-27 -176 -41 -367 -41 -426c0 -20 8 -34 -15 -36c-35 -3 -67 7 -67 60c0 117 18 278 35 396
c-49 0 -67 18 -67 56c0 9 5 14 13 14c9 0 28 -10 40 -10h25c22 113 55 211 89 268c18 30 43 43 69 43c45 0 88 -39 84 -95c-10 -49 -55 -34 -56 -24c-3 20 5 85 -15 67z" />
    <glyph glyph-name="f_i" unicode="fi" horiz-adv-x="391" 
d="M268 21c-24 26 -34 62 -34 104c0 34 7 72 18 112c-13 1 -10 1 -81 -3l-25 -4c-26 -119 -57 -322 -54 -451c1 -16 -3 -19 -22 -20c-35 -1 -54 35 -55 71c-3 88 22 299 44 392c-54 -1 -61 28 -59 32c1 5 -1 15 18 19l53 4l2 9c14 67 60 260 142 265c48 2 79 -27 86 -62
c2 -30 -8 -57 -21 -74c-16 -21 -46 -6 -45 10c1 11 2 26 2 41c0 12 -1 22 -4 29c-38 -19 -72 -197 -75 -213l-1 -2l29 1c10 0 38 0 54 -7c6 -2 13 -4 20 -7c4 12 8 24 13 36c4 8 19 8 26 8c21 0 60 -21 55 -43c-7 -31 -39 -132 -39 -192c0 -13 2 -23 5 -31
c30 13 77 75 120 190c3 8 9 20 17 20c20 0 31 -15 31 -39c0 -10 -1 -21 -5 -33c-17 -59 -67 -139 -80 -153c-18 -19 -54 -33 -80 -33c-22 0 -41 9 -56 24h1zM392 490c13 0 25 -4 34 -16c12 -21 -8 -65 -25 -86c-16 -19 -31 -30 -42 -34c-15 -3 -28 -1 -35 12
c-5 10 -7 21 -7 32c0 42 33 87 75 92z" />
    <glyph glyph-name="f_o" unicode="fo" horiz-adv-x="490" 
d="M395 343c46 -11 71 -52 71 -104c0 -35 -8 -74 -22 -109l-4 -11c46 11 86 65 104 116c5 14 13 20 22 20c15 0 30 -17 26 -39c-15 -91 -92 -148 -174 -145c-19 -35 -45 -70 -77 -82c-9 -5 -19 -7 -29 -7c-40 0 -83 33 -101 67c-5 10 -7 26 -7 45c0 51 10 102 33 140l-91 -4
c-26 -119 -57 -322 -54 -451c1 -16 -3 -19 -22 -20c-35 -1 -54 35 -55 71c-3 88 22 299 44 392c-54 -1 -61 28 -59 32c1 5 -1 15 18 19l53 4l2 9c14 67 60 260 142 265c48 2 79 -27 86 -62c2 -30 -8 -57 -21 -74c-16 -21 -46 -6 -45 10c1 11 2 26 2 41c0 12 -1 22 -4 29
c-38 -19 -72 -197 -75 -213l-1 -2l99 1c6 0 11 0 17 -1c18 64 77 74 122 63zM405 253c-1 27 -9 41 -19 41c-9 0 -20 -11 -28 -32c-5 -18 -9 -36 -9 -53c0 -24 7 -47 24 -68c19 33 27 72 32 112zM293 147c-6 -24 -14 -44 -11 -95c6 -56 45 -3 69 36c-14 8 -47 29 -58 59z" />
    <glyph glyph-name="f_t" unicode="ft" horiz-adv-x="444" 
d="M496 319c-52 0 -112 -17 -155 -26c-36 -135 -53 -272 -36 -273c50 9 149 101 190 215c3 8 9 20 17 20c20 0 31 -11 31 -34c0 -9 -1 -20 -5 -32c-17 -59 -73 -148 -127 -190c-24 -19 -57 -30 -88 -30c-56 0 -108 35 -105 125c4 54 18 141 30 185l-48 -9h1
c-30 -5 -38 -8 -61 -13c-25 -207 -46 -315 -46 -424c0 -14 1 -24 6 -37c0 -8 -17 -8 -22 -8c-10 0 -21 1 -29 7h1c-37 21 -35 33 -35 71c0 124 23 251 42 373c-9 -3 -18 -4 -32 -5c-22 -2 -41 15 -41 39c0 14 8 18 21 18c6 0 12 -2 18 -2c25 0 25 3 41 6
c17 74 36 183 73 246c18 31 40 44 76 44c48 0 94 -42 86 -95c-10 -49 -57 -34 -56 -24c2 24 5 54 -11 75c-6 -4 -15 -18 -18 -24c-34 -55 -49 -142 -61 -204c49 10 69 13 111 24c16 50 46 168 69 173h-1c3 1 6 1 9 1c27 0 59 -24 59 -51c0 -3 -1 -5 -1 -8
c-4 -2 -9 -3 -13 -3c-13 -33 -23 -69 -32 -97c40 10 83 18 124 18c27 0 37 -12 56 -28c2 -4 7 -13 7 -17c0 -8 -11 -9 -17 -9c-10 0 -19 3 -28 3z" />
    <glyph glyph-name="i_e" unicode="ie" horiz-adv-x="441" 
d="M432 266c-1 -79 -94 -154 -146 -192c8 -22 21 -40 43 -37c71 10 135 121 165 198c3 8 9 20 17 20c19 0 29 -13 29 -36c0 -10 -2 -22 -6 -36c-17 -59 -68 -127 -99 -153c-33 -29 -75 -42 -115 -42c-36 0 -71 11 -94 33c-4 4 -8 7 -12 12c-26 -18 -58 -31 -91 -31
c-11 0 -21 1 -32 4c-42 12 -78 44 -73 125c3 49 17 115 38 172c4 8 19 8 26 8c21 0 60 -21 55 -43c-5 -21 -22 -87 -32 -139c-1 -7 -6 -26 -6 -43c0 -14 4 -27 18 -27c11 0 28 5 72 30c-3 12 -4 25 -4 38c0 10 1 20 2 30c9 65 46 144 113 174c13 6 26 9 40 9
c11 0 23 -2 34 -7c31 -12 51 -32 58 -67zM163 504c13 0 25 -4 34 -16c12 -21 -8 -65 -25 -86c-16 -19 -31 -30 -42 -34c-15 -3 -28 -1 -35 12c-5 10 -7 21 -7 32c0 42 33 87 75 92zM355 233c11 19 13 33 8 38c-16 11 -47 -37 -56 -50c-11 -17 -23 -37 -33 -80
c29 26 55 50 81 92z" />
    <glyph glyph-name="k_e" unicode="ke" horiz-adv-x="606" 
d="M451 13c48 -4 161 83 209 227c3 8 9 20 17 20c19 0 28 -13 28 -34c0 -11 -3 -23 -7 -38c-24 -82 -83 -167 -150 -203c-23 -12 -49 -19 -75 -19c-52 0 -103 26 -130 79c-43 -19 -91 -36 -139 -36c-35 0 -75 6 -104 28c-2 -14 -6 -32 -6 -48c0 -11 5 -22 5 -32
c0 -7 -4 -9 -10 -9c-27 0 -77 25 -77 57c0 128 74 387 101 475c6 19 10 40 35 40c29 0 45 -17 58 -42c2 -4 1 -8 -11 -15c-13 -37 -41 -139 -60 -224c54 51 103 73 148 70c29 -2 44 -16 44 -30c0 -18 -16 -19 -30 -18c-50 5 -160 -124 -160 -175c0 -16 18 -26 34 -26
c47 0 121 23 156 46c0 83 56 222 157 222c41 0 87 -22 87 -69c0 -74 -107 -147 -156 -178c2 -31 21 -67 36 -68zM418 157c32 22 91 86 73 116c-28 -22 -65 -74 -73 -116z" />
    <glyph glyph-name="l_l" unicode="ll" horiz-adv-x="418" 
d="M39 33c-18 27 -26 72 -26 126c0 171 78 436 152 515c13 14 37 21 55 19c54 -3 90 -42 78 -94c-36 -161 -149 -367 -205 -464c-2 -47 2 -93 19 -103c33 -6 81 42 122 106v1c-5 165 64 387 122 453c17 18 33 26 50 26c14 0 29 -5 46 -15h-1c34 -19 51 -53 42 -93
c-26 -120 -97 -259 -177 -384c-2 -9 -3 -21 -3 -32c0 -30 6 -62 15 -71c28 -1 111 113 148 228c12 33 55 4 47 -27c-29 -116 -95 -246 -190 -245c-42 1 -69 32 -84 72c-36 -48 -79 -72 -119 -72c-34 0 -67 18 -91 54zM328 278c23 38 82 158 102 232c7 21 8 58 -11 35
c-23 -31 -77 -179 -91 -267zM108 285c23 38 100 224 120 298c7 21 8 58 -11 35c-23 -31 -95 -245 -109 -333z" />
    <glyph glyph-name="o_f" unicode="of" horiz-adv-x="463" 
d="M282 -100c0 112 9 213 28 332h-66c6 -15 7 -21 7 -36c0 -62 -59 -211 -134 -211c-54 0 -107 51 -107 108c0 61 46 266 131 266c26 0 48 -13 62 -34l1 -4c0 -12 -17 -12 -25 -12c-7 0 -22 -23 -25 -28c-33 -51 -58 -143 -58 -211c0 -11 1 -22 2 -31c38 23 81 137 81 182
c0 9 -17 17 -15 35c1 14 8 29 29 29c39 0 96 3 126 5c19 82 32 288 136 288c41 0 96 -26 104 -88c2 -16 -7 -75 -32 -71c-20 3 -42 1 -42 43c0 10 2 59 -6 66c-36 -30 -62 -190 -69 -231c17 2 64 9 87 20c9 4 17 8 26 6c15 -3 10 -35 -1 -52c-15 -21 -81 -29 -120 -32
c-13 -93 -23 -182 -32 -277c-3 -32 -7 -66 -7 -104c0 -16 4 -27 -21 -27c-38 0 -60 34 -60 69z" />
    <glyph glyph-name="o_f_f" unicode="off" horiz-adv-x="649" 
d="M732 489c3 -34 -5 -47 0 -76c6 -31 -47 -16 -54 1c-8 19 -13 45 -17 81c-33 -29 -62 -100 -78 -189c50 5 95 6 104 11c9 4 17 8 26 6c15 -3 14 -39 -1 -52c-22 -19 -78 -23 -139 -30c-13 -108 -19 -229 -19 -324c0 -26 0 -50 1 -72c1 -16 -3 -19 -22 -21
c-34 -3 -59 32 -59 68c0 76 -1 214 16 345c-43 -2 -80 -2 -88 -3c-13 -93 -13 -137 -22 -232c-3 -32 -7 -66 -7 -104c0 -16 4 -27 -21 -27c-38 0 -60 34 -60 69c0 112 10 175 18 292h-66c6 -15 7 -21 7 -36c0 -62 -59 -211 -134 -211c-54 0 -107 51 -107 108
c0 61 46 266 131 266c26 0 48 -13 62 -34l1 -4c0 -12 -17 -12 -25 -12c-7 0 -22 -23 -25 -28c-33 -51 -58 -143 -58 -211c0 -11 1 -22 2 -31c38 23 81 137 81 182c0 9 -20 15 -20 37c-1 19 13 27 34 27c39 0 96 3 126 5c16 93 32 288 136 288c41 0 96 -26 104 -88v-10
c23 42 49 69 79 71c48 2 85 -22 94 -62zM410 297c6 1 44 1 89 5c8 42 20 81 33 117c-1 -1 -3 -1 -5 0c-20 3 -42 1 -42 43c0 10 2 59 -6 66c-36 -30 -62 -190 -69 -231z" />
    <glyph glyph-name="o_f_t" unicode="oft" horiz-adv-x="703" 
d="M292 -60c0 112 11 173 19 290c-20 -3 -61 -5 -74 -8c7 -15 8 -21 9 -36c3 -62 -54 -201 -129 -201c-54 0 -107 51 -107 108c0 61 46 256 131 256c26 0 48 -13 62 -34l1 -4c0 -12 -17 -12 -25 -12c-7 0 -22 -23 -25 -28c-31 -48 -61 -138 -61 -198c0 -14 2 -25 5 -34
c38 23 77 123 74 168c0 9 -14 13 -17 35c-2 19 6 32 27 33c39 2 104 10 137 15c16 93 32 288 136 288c41 0 83 -29 90 -79c2 -13 -12 -69 -34 -66c-17 3 -36 1 -36 35c0 8 1 44 -7 51c-36 -30 -58 -172 -62 -213c7 1 61 8 120 18l16 53c42 139 42 138 45 144
c11 32 81 -6 78 -42c-20 -68 -25 -80 -40 -139c37 6 67 12 77 16s16 9 25 9c15 -1 18 -37 5 -52c-18 -19 -69 -33 -125 -43c-31 -123 -47 -230 -32 -231c29 5 133 61 178 196c3 8 9 35 17 36c20 1 31 -19 31 -47c0 -71 -79 -178 -137 -218c-23 -16 -50 -25 -76 -25
c-54 0 -103 38 -100 132c2 43 11 97 20 142c-54 -7 -98 -11 -107 -13c-8 -93 -12 -145 -21 -240c-3 -32 -7 -66 -7 -104c0 -16 4 -27 -21 -27c-38 0 -60 34 -60 69z" />
    <glyph glyph-name="o_l" unicode="ol" horiz-adv-x="446" 
d="M300 32c-7 15 -9 46 -9 82c0 35 2 75 7 108c-13 -9 -24 -17 -56 -31c4 -15 4 -29 2 -45c-13 -92 -73 -177 -130 -173c-74 5 -104 68 -99 141c3 63 50 197 121 209c23 5 95 -7 93 -43c-1 -8 -12 -10 -18 -9c-10 0 -18 4 -28 1c-50 -14 -92 -130 -92 -204
c0 -18 2 -33 7 -44c32 12 71 87 71 148c0 12 -2 24 -5 34c-19 16 -15 34 15 33c41 -3 84 26 130 62c43 185 92 290 129 322c14 13 27 21 45 19c54 -3 89 -42 78 -94c-18 -85 -81 -175 -162 -259c-11 -57 -29 -162 -29 -227c0 -15 1 -28 3 -37c33 10 85 99 127 210
c3 8 9 20 17 20c23 0 31 -20 31 -41c0 -11 -2 -22 -5 -31c-17 -59 -74 -159 -87 -173c-18 -19 -54 -30 -80 -30c-22 0 -60 17 -76 52zM495 567c-15 -23 -57 -113 -71 -164c56 80 83 154 71 164z" />
    <glyph glyph-name="o_l_l" unicode="oll" horiz-adv-x="698" 
d="M597 143c-2 -9 -3 -22 -3 -35c0 -35 6 -76 15 -85c28 -1 107 94 140 213c2 8 9 19 17 19c20 0 39 -7 35 -31c-22 -117 -92 -246 -187 -245c-42 1 -69 32 -84 72c-36 -48 -79 -72 -119 -72c-34 0 -67 18 -91 54c-17 25 -26 80 -26 133c0 20 2 39 4 56
c-13 -8 -23 -16 -57 -30c1 -10 2 -20 2 -30c0 -89 -53 -193 -128 -189c-74 3 -104 67 -100 140c3 63 49 198 120 210c23 5 95 -7 93 -43c-1 -8 -12 -9 -18 -9c-10 1 -18 4 -28 2c-50 -14 -91 -129 -91 -203c0 -18 2 -35 8 -46c32 12 70 87 70 148c0 12 -1 24 -5 35
c-19 16 -15 33 15 32c41 -2 84 26 130 62c43 185 92 290 129 322c14 13 27 21 45 19c54 -3 90 -42 78 -94c-20 -88 -85 -186 -162 -259c-10 -42 -25 -124 -25 -185c0 -35 5 -64 19 -72c33 -6 81 42 122 106v1c-5 165 64 409 122 475c17 18 33 26 50 26c14 0 29 -5 46 -15h-1
c34 -19 51 -53 42 -93c-26 -120 -125 -320 -177 -389zM609 278c23 38 82 180 102 254c7 21 8 58 -11 35c-23 -31 -77 -201 -91 -289zM495 567c-15 -23 -57 -113 -71 -164c56 80 83 154 71 164z" />
    <glyph glyph-name="o_m" unicode="om" horiz-adv-x="856" 
d="M436 240c0 -8 -1 -17 -3 -28h6c30 38 59 83 111 112c34 19 87 -33 85 -70c-1 -21 -4 -62 -11 -89c37 47 77 92 109 116c17 15 88 -6 81 -35c-7 -30 -32 -111 -32 -166c0 -14 1 -26 5 -35c33 10 87 97 120 190c3 8 9 20 17 20c20 0 31 -15 31 -39c0 -10 -1 -21 -5 -33
c-17 -59 -67 -139 -80 -153c-18 -19 -54 -30 -80 -30c-80 0 -97 78 -90 145c-28 -38 -63 -78 -84 -121c-9 -10 -21 -8 -34 -6c-25 3 -50 19 -58 44c-1 3 34 166 37 181l-4 -3c-35 -35 -56 -64 -142 -208l-8 -25c-4 -12 -17 -20 -41 -12c-26 10 -61 32 -61 66
c0 17 5 34 13 50c1 5 2 10 4 14c6 17 46 122 38 154c-18 2 -46 -2 -76 -7c3 -13 4 -26 4 -40c0 -29 -6 -60 -17 -90c-18 -48 -58 -132 -109 -152c-9 -5 -19 -7 -30 -7c-42 0 -90 32 -108 66c-5 10 -7 26 -7 45c0 72 32 187 79 223c8 4 16 8 28 2l2 -1c18 21 59 36 89 27
c12 -3 22 -8 31 -14c34 9 70 16 95 9c34 -10 95 -44 95 -100zM164 88c41 85 49 124 54 165c0 2 0 4 -1 6c-29 -4 -57 -8 -80 -5c-38 -56 -47 -167 -42 -202c6 -56 45 -3 69 36z" />
    <glyph glyph-name="o_n" unicode="on" horiz-adv-x="686" 
d="M436 240c0 -16 -4 -38 -8 -63c33 48 92 122 136 140c48 5 90 -36 80 -76c-14 -55 -40 -162 -27 -196c30 10 80 79 120 190c3 8 9 20 17 20c20 0 31 -15 31 -39c0 -10 -1 -21 -5 -33c-17 -59 -67 -139 -80 -153c-18 -19 -54 -33 -80 -33c-61 0 -89 61 -89 120
c0 40 8 84 18 120c-41 -48 -73 -106 -115 -174l-35 -70c-10 -33 -75 10 -86 43c-6 8 -8 19 -4 34c16 53 44 138 51 209c-19 2 -47 -2 -79 -8c3 -12 4 -25 4 -39c0 -30 -6 -64 -18 -95c-18 -48 -62 -128 -113 -148c-9 -5 -19 -7 -29 -7c-40 0 -83 33 -101 67
c-5 10 -7 26 -7 45c0 72 32 187 79 223c8 4 16 8 28 2l2 -1c18 21 59 36 89 27c10 -3 20 -7 28 -12c18 2 36 4 54 4c16 0 32 -2 44 -5c34 -10 95 -52 95 -92zM164 88c41 85 49 124 54 165c0 2 0 4 -1 6c-29 -4 -57 -8 -80 -5c-38 -56 -47 -167 -42 -202c6 -56 45 -3 69 36z
" />
    <glyph glyph-name="o_o" unicode="oo" horiz-adv-x="540" 
d="M180 281c9 -1 24 -1 43 -1c45 0 109 3 143 12c12 10 23 18 29 17c10 4 21 6 31 6c37 0 70 -25 81 -57c53 -5 109 26 127 37c15 9 30 -30 -11 -63c-40 -27 -77 -36 -110 -37c-1 -17 -5 -34 -11 -51c-31 -89 -82 -153 -133 -165c-39 -12 -79 23 -96 56c-7 12 -10 26 -10 41
c0 49 29 112 53 155c-34 -5 -71 -6 -74 -4c15 -84 -64 -230 -134 -248c-42 -2 -104 27 -109 76c-6 81 44 218 119 266c8 5 18 7 29 7c20 0 41 -7 49 -17c5 -8 -10 -25 -16 -30zM337 40c33 17 89 101 105 168c-22 8 -36 19 -38 24c-3 2 -5 5 -6 9c-30 -61 -82 -196 -61 -201z
M149 255c-34 -38 -66 -119 -73 -175c-1 -10 -3 -33 -1 -44c40 46 51 60 78 124c5 13 14 45 14 64c-7 6 -18 12 -18 31z" />
    <glyph glyph-name="o_o_r" unicode="oor" horiz-adv-x="911" 
d="M364 296c17 12 32 16 40 17c45 6 72 -6 91 -33c22 7 44 23 59 48c1 15 4 32 17 47c21 10 53 0 58 -27l-14 -31c11 -4 27 -5 39 -6c21 0 63 -36 56 -57c-14 -43 -40 -123 -40 -176c0 -13 1 -24 5 -33c31 13 90 76 130 190c3 8 9 20 17 20c20 0 32 -15 32 -39
c0 -10 -2 -21 -6 -33c-21 -61 -70 -135 -90 -153c-19 -18 -54 -33 -80 -33c-55 0 -90 51 -90 107c0 46 14 108 30 161c-7 1 -18 6 -29 12c-23 -27 -48 -44 -75 -52c2 -25 -3 -53 -12 -81c-31 -89 -82 -153 -133 -165c-39 -12 -79 23 -96 56c-7 12 -10 26 -10 41
c0 49 30 114 54 157c-28 -4 -59 -5 -75 -6c15 -84 -64 -230 -134 -248c-42 -2 -104 27 -109 76c-6 81 48 222 118 262c8 5 19 7 30 7c20 0 42 -7 48 -17c5 -6 -8 -22 -15 -26h1c30 -3 141 1 183 15zM337 40c35 19 97 113 107 181c-13 2 -39 4 -46 19
c-30 -61 -82 -195 -61 -200zM149 255c-34 -38 -66 -119 -73 -175c-1 -10 -3 -33 -1 -44c52 27 95 116 97 188c-7 6 -23 12 -23 31z" />
    <glyph glyph-name="o_p" unicode="op" horiz-adv-x="647" 
d="M621 272c4 -48 -16 -122 -53 -180c39 13 76 37 102 78c13 21 22 45 30 65c3 8 9 20 17 20c19 0 31 -13 31 -36c0 -10 -2 -22 -7 -35c-32 -95 -130 -149 -230 -155c-24 -18 -52 -28 -82 -25c-14 4 -33 10 -44 23c-28 -99 -52 -197 -49 -242c1 -14 -6 -15 -17 -16
c-22 -2 -58 19 -63 42c-9 59 55 254 84 350c16 53 25 91 25 115c0 14 -3 23 -9 27c-14 9 -40 -2 -78 -22c5 -15 7 -31 7 -49c0 -29 -6 -61 -16 -91c-13 -40 -55 -133 -106 -153c-11 -5 -23 -8 -35 -8c-40 0 -84 27 -104 69c-5 11 -7 29 -7 50c0 73 28 187 79 218
c8 4 16 8 28 2l2 -1c18 21 59 36 89 27l8 -3c36 17 78 29 118 23c36 -6 97 -45 98 -96c26 29 76 75 122 63c31 -10 44 -21 60 -60zM164 88c41 85 49 124 54 165v1c-26 -2 -63 9 -69 15c-47 -47 -60 -179 -54 -217c6 -56 45 -3 69 36zM533 277c-35 -29 -63 -67 -90 -106
c-11 -20 -27 -48 -39 -77c0 -2 1 -3 2 -4c16 -6 35 -9 57 -11c42 52 75 148 70 198z" />
    <glyph glyph-name="o_r" unicode="or" horiz-adv-x="496" 
d="M15 32c-5 8 -9 20 -10 35c-6 70 29 198 91 225c9 9 18 20 32 25c39 10 87 -3 108 -28c20 7 40 20 58 41c5 15 19 46 35 60c23 7 50 -3 52 -31c-7 -14 -16 -31 -26 -45c11 -5 29 -2 41 -3c21 0 63 -36 56 -57c-14 -43 -40 -123 -40 -176c0 -13 1 -24 5 -33
c31 13 90 76 130 190c3 8 9 20 17 20c20 0 32 -15 32 -39c0 -10 -2 -21 -6 -33c-21 -61 -70 -135 -90 -153c-19 -18 -54 -33 -80 -33c-40 0 -72 26 -85 67c-4 11 -5 24 -5 40c0 46 14 108 30 161c-7 1 -25 5 -36 13c-26 -24 -39 -32 -65 -43c4 -24 1 -53 -5 -81
c-24 -91 -80 -160 -130 -176c-37 -15 -90 23 -109 54zM87 32c52 18 98 125 103 194c-13 1 -49 0 -58 14c-39 -60 -66 -205 -45 -208z" />
    <glyph glyph-name="o_v" unicode="ov" horiz-adv-x="551" 
d="M584 344c0 -98 -145 -347 -241 -355c-33 -3 -66 33 -72 70c-12 73 66 186 40 206c-15 15 -40 9 -56 3c4 -8 5 -25 5 -37c0 -79 -82 -221 -136 -243h1c-8 -3 -15 -5 -23 -5c-44 0 -101 43 -101 88c-2 130 90 278 144 280c14 1 47 0 47 -19c0 -4 -4 -7 -6 -11
c29 5 57 9 86 9c58 0 111 -33 111 -103c0 -45 -38 -116 -46 -171c71 56 168 204 168 305c0 14 -2 31 -11 41c8 13 36 19 51 12h-1c36 -12 40 -35 40 -70zM83 40c23 -6 113 155 119 206c2 14 -25 -4 -59 2c-8 1 -87 -200 -60 -208z" />
    <glyph glyph-name="o_w" unicode="ow" horiz-adv-x="722" 
d="M1 71c-2 130 103 278 144 280c14 1 47 0 47 -19c0 -4 -4 -7 -6 -11c40 6 81 12 122 8c26 -1 84 -27 85 -91c1 -48 -34 -129 -33 -144c37 53 73 106 109 162c10 21 5 29 35 29c22 0 65 -15 57 -40c-18 -60 -40 -136 -35 -185c67 53 143 207 143 301c0 14 -2 31 -11 41
c8 13 36 19 51 12h-1c36 -12 40 -35 40 -70s-10 -72 -25 -110c-27 -66 -124 -254 -206 -239c-59 11 -63 55 -68 111c-16 -27 -67 -117 -97 -117c-33 0 -84 36 -84 74c0 73 73 189 47 209c-15 13 -44 1 -62 -5c4 -8 7 -24 7 -36c0 -79 -82 -221 -136 -243h1
c-8 -3 -15 -5 -23 -5c-44 0 -101 43 -101 88zM83 40c23 -6 113 155 119 206c2 14 -38 -11 -62 -3c-7 2 -84 -195 -57 -203z" />
    <glyph glyph-name="p_p" unicode="pp" horiz-adv-x="646" 
d="M316 272c2 -29 -4 -65 -16 -102c11 2 21 3 29 3h15c15 66 29 140 37 189c0 7 -3 13 -3 19c-1 11 14 12 22 12c23 1 54 -12 62 -33c1 -20 -20 -85 -21 -112c18 27 73 94 110 95c40 2 89 -23 85 -68c-9 -103 -48 -252 -159 -292c-30 -1 -56 8 -83 35
c-14 -65 -46 -181 -55 -241c-2 -12 8 -31 -11 -32c-33 -2 -62 17 -68 45c18 97 41 194 64 294l9 37c-15 -1 -37 -6 -62 -14c-33 -57 -84 -101 -144 -95c-14 4 -33 13 -44 26c-28 -99 -53 -194 -50 -239c1 -14 -9 -18 -20 -19c-22 -2 -55 15 -60 45c4 63 17 91 48 216
c13 59 75 309 77 334c0 6 9 11 26 11c16 0 51 -16 51 -37c1 -5 -6 -44 -11 -75c26 29 66 70 112 58c31 -10 44 -21 60 -60zM452 28c42 19 101 208 93 254c-59 -68 -99 -129 -133 -204h1c8 -14 25 -39 39 -50zM228 277c-35 -29 -63 -67 -90 -106c-11 -20 -32 -59 -44 -88
c23 17 60 35 98 51c24 50 39 108 36 143z" />
    <glyph glyph-name="r_r" unicode="rr" horiz-adv-x="583" 
d="M235 -3c-71 8 -91 65 -91 130c0 46 10 97 21 138c-15 2 -34 13 -38 17c-15 -53 -25 -81 -35 -102c-10 -13 -21 -18 -30 -18c-16 0 -29 14 -29 15c0 6 9 33 14 47c16 44 30 107 45 160c1 4 5 7 18 8c21 1 38 -13 41 -25c2 -12 -12 -35 1 -44c12 -8 29 -10 49 -12
c21 0 63 -36 56 -57c-13 -41 -34 -105 -34 -158c0 -19 3 -36 9 -51c62 -4 137 255 161 339c1 4 5 7 18 8c21 1 38 -13 41 -25c2 -12 -12 -35 1 -44c12 -8 29 -10 49 -12c21 0 63 -36 56 -57c-14 -44 -36 -122 -36 -189c0 -44 10 -84 36 -107c26 -8 46 24 66 22
c14 -1 17 -13 16 -23c-1 -19 -17 -41 -52 -42c-42 -1 -73 13 -102 51c-29 39 -42 92 -42 151c0 47 8 98 22 148c-15 2 -34 13 -38 17c-35 -91 -68 -300 -193 -285z" />
    <glyph glyph-name="s_t" unicode="st" horiz-adv-x="430" 
d="M285 348c42 139 49 167 52 173c11 32 81 -6 78 -42c-18 -76 -27 -113 -33 -129c10 0 38 -1 54 -8c14 -5 35 -18 42 -29c6 -9 -4 -15 -32 -15c-17 0 -12 -3 -82 -5c-39 -143 -56 -253 -39 -254c30 9 117 82 158 196c3 8 9 20 17 20c20 0 31 -15 31 -39
c0 -10 -1 -21 -5 -33c-17 -59 -72 -136 -108 -165c-24 -19 -54 -30 -83 -30c-52 0 -100 35 -97 125c4 64 12 127 27 175c-58 0 -129 -31 -125 -71c4 -45 76 -99 76 -153c0 -52 -59 -87 -104 -88c-43 -1 -105 23 -107 56c-1 9 3 24 15 22c20 -4 48 -19 77 -20
c37 -1 55 19 33 51c-25 36 -74 72 -81 123c-14 106 93 136 236 140z" />
    <glyph glyph-name="t_t" unicode="tt" horiz-adv-x="364" 
d="M282 -132c16 -16 20 -41 -19 -34c-37 7 -46 56 -46 107c0 45 7 92 10 114c-26 -34 -67 -82 -110 -86c-53 -5 -99 57 -99 108c0 99 37 215 61 299c-45 -2 -86 -7 -132 -7c-18 0 -57 17 -57 39c0 18 60 19 72 20c63 3 59 4 138 6c14 38 62 184 78 202c17 8 76 -29 74 -53
c-2 -20 -42 -127 -49 -145c39 3 80 3 119 4c5 13 33 91 37 106c7 23 -5 28 17 28c37 0 79 -37 72 -55c-2 -6 -25 -74 -26 -80h35c62 0 178 -2 204 -15c5 -3 21 -11 21 -20s-16 -9 -22 -9c-28 0 -137 2 -204 2c-22 0 -42 -1 -51 -1c-24 -68 -48 -144 -65 -201
c-26 -87 -65 -233 -65 -298c0 -15 2 -26 7 -31zM181 384c-32 -98 -78 -219 -87 -330c-1 -10 -2 -30 4 -38c38 22 119 128 162 213c17 63 32 111 47 161c-41 0 -85 -4 -126 -6z" />
    <glyph glyph-name="v_e" unicode="ve" horiz-adv-x="603" 
d="M251 335c23 12 81 -18 73 -49c-11 -31 -11 -37 -35 -88c0 -22 24 -38 57 -44c0 1 1 2 1 3c9 65 46 144 113 174c13 6 26 9 40 9c11 0 23 -2 34 -7c31 -12 57 -35 64 -70c0 -38 -23 -76 -52 -109c-29 -30 -72 -52 -119 -62c7 -45 44 -58 62 -55c71 10 136 122 165 198
c3 8 9 20 17 20c20 0 31 -15 31 -39c0 -10 -1 -21 -5 -33c-17 -59 -71 -127 -102 -153c-34 -29 -77 -44 -118 -44c-36 0 -69 11 -92 33c-20 18 -31 42 -36 70c-36 4 -69 23 -100 48c-37 -60 -84 -131 -118 -152c-40 -14 -82 11 -97 51c-7 19 -10 42 -10 67
c0 66 21 145 44 199c6 11 14 19 29 19s38 -9 47 -23c3 -5 6 -13 3 -17c-16 -32 -49 -193 -38 -223l1 1c38 47 69 102 97 159c3 41 17 82 44 117zM467 221c-8 -13 -20 -34 -30 -62c38 11 61 35 79 68c11 19 12 39 7 44c-16 11 -47 -37 -56 -50z" />
    <glyph glyph-name="v_y" unicode="vy" horiz-adv-x="646" 
d="M416 265c3 -10 4 -20 4 -30c0 -41 -20 -85 -39 -136c-8 -24 -13 -38 -13 -44c0 -10 14 7 45 47c31 41 73 105 125 199c2 5 5 8 9 9c7 4 17 2 30 -2c22 -9 52 -29 48 -58c-17 -55 -29 -126 -45 -200c34 35 85 89 119 185c3 8 9 20 17 20c20 0 35 -15 31 -39
c-18 -107 -108 -218 -191 -272c-24 -89 -95 -223 -168 -224c-26 0 -53 10 -72 26c-19 17 -37 37 -37 63c0 10 2 20 8 31c17 35 64 66 194 150l26 140c-35 -55 -87 -152 -150 -138c-56 21 -72 58 -66 101c9 61 49 122 49 182c0 26 -23 22 -50 12c0 -1 1 -2 1 -3
c7 -90 -80 -255 -160 -299c-40 -14 -82 11 -97 51c-7 19 -10 42 -10 67c0 66 21 145 44 199c6 11 14 19 29 19s38 -9 47 -23c3 -5 6 -13 3 -17c-16 -32 -49 -193 -38 -223l1 1c38 47 63 92 91 149c9 19 14 38 18 56c-6 -1 -11 0 -15 2c-8 15 -13 27 -13 37c0 13 8 23 25 31
c18 8 41 12 65 12c56 0 119 -23 135 -81zM364 -231c24 -1 61 62 84 115c-57 -42 -123 -78 -84 -115z" />
    <glyph glyph-name="w_e" unicode="we" horiz-adv-x="778" 
d="M426 335c23 12 81 -18 73 -49c-11 -31 -11 -37 -35 -88c0 -22 24 -38 57 -44l1 3c9 65 46 144 113 174c13 6 26 9 40 9c11 0 23 -2 34 -7c31 -12 57 -35 64 -70c0 -38 -23 -76 -52 -109c-29 -30 -72 -52 -119 -62c7 -45 44 -58 62 -55c71 10 136 122 165 198
c3 8 9 20 17 20c20 0 31 -15 31 -39c0 -10 -1 -21 -5 -33c-17 -59 -71 -127 -102 -153c-34 -29 -77 -44 -118 -44c-36 0 -69 11 -92 33c-20 18 -31 42 -36 70c-36 4 -75 20 -100 49c-37 -60 -84 -132 -118 -153c-40 -14 -82 11 -97 51c-9 22 -11 50 -10 80
c-27 -67 -52 -101 -55 -106c-15 -21 -28 -34 -42 -37c-19 -6 -39 -1 -58 17c-12 12 -33 33 -34 55c-3 78 34 217 83 276c14 17 60 0 76 -9c6 -9 4 -15 -2 -23c-18 -27 -54 -147 -64 -209c-1 -1 -1 -1 -1 -2c84 124 102 178 125 218c9 17 26 25 41 25h4c15 0 38 -9 47 -23
c3 -5 6 -13 3 -17c-21 -43 -49 -183 -38 -223l1 1c38 47 69 102 97 159c3 41 17 82 44 117zM642 221c-8 -13 -20 -34 -30 -62c31 9 53 27 79 68c11 19 12 39 7 44c-16 11 -47 -37 -56 -50z" />
    <glyph glyph-name=".notdef" horiz-adv-x="322" 
 />
    <glyph glyph-name="A" unicode="A" horiz-adv-x="571" 
d="M401 599c23 42 29 66 30 74c0 11 11 13 17 12c2 0 5 -1 9 -3c23 3 66 -13 75 -29c3 -7 1 -15 -6 -25c-15 -56 -21 -148 -21 -245c0 -34 0 -69 2 -103c19 -1 35 -3 47 -4c23 -3 21 -55 11 -59c-11 0 -30 -1 -54 -2c9 -109 25 -204 46 -237c7 -11 37 -2 44 -3
c24 2 1 -33 -11 -37c-38 -14 -85 14 -114 62c-22 35 -38 115 -47 211c-62 -3 -133 -8 -200 -13c-71 -93 -145 -179 -200 -229c-14 -13 -33 -17 -41 -16c-10 0 -42 13 -55 31c-12 15 -9 23 5 27c10 2 27 16 35 24c28 27 77 84 133 153c-48 -5 -81 -11 -86 -15
c-5 -3 -15 -7 -21 8c-8 21 2 72 19 82c18 10 83 17 163 20c91 117 182 245 220 316zM423 284c-2 38 -3 77 -3 115c0 28 1 55 2 82c-34 -57 -79 -126 -129 -196h39c32 0 63 0 91 -1z" />
    <glyph glyph-name="AE" unicode="&#xc6;" horiz-adv-x="673" 
d="M196 231c83 108 162 207 231 318c4 12 20 15 32 15c21 0 49 -7 64 -22c35 3 71 6 106 6c20 0 120 5 120 -39c0 -11 -18 -23 -29 -23c-8 0 -14 4 -21 9c-9 6 -35 6 -46 6c-37 0 -74 -4 -112 -7c-23 -56 -82 -179 -94 -233c44 5 90 14 135 14c24 0 64 -11 64 -44
c0 -12 -6 -19 -19 -19c-15 0 -28 7 -47 7c-51 0 -107 -3 -150 -13c-14 -43 -22 -91 -22 -136c0 -29 7 -78 44 -78c34 0 78 18 110 36h-1c14 6 86 44 101 44c23 0 38 -14 29 -36h1c-28 -17 -38 -25 -50 -33h1c-46 -29 -102 -58 -159 -58c-100 0 -160 74 -160 171
c0 26 5 60 14 84c-33 -4 -57 -6 -85 -12c-61 -78 -126 -164 -191 -244c-7 -11 -30 -16 -42 -16c-19 0 -52 8 -52 32c29 7 129 150 188 224c-7 7 -20 18 -20 29c0 15 29 21 40 21c2 0 20 -1 20 -3zM402 385c-38 -47 -79 -97 -111 -144c23 2 46 5 61 8c6 14 8 29 50 136z" />
    <glyph glyph-name="Aacute" unicode="&#xc1;" horiz-adv-x="571" 
d="M401 599c23 42 29 66 30 74c0 11 11 13 17 12c2 0 5 -1 9 -3c23 3 66 -13 75 -29c3 -7 1 -15 -6 -25c-15 -56 -21 -148 -21 -245c0 -34 0 -69 2 -103c19 -1 35 -3 47 -4c23 -3 21 -55 11 -59c-11 0 -30 -1 -54 -2c9 -109 25 -204 46 -237c7 -11 37 -2 44 -3
c24 2 1 -33 -11 -37c-38 -14 -85 14 -114 62c-22 35 -38 115 -47 211c-62 -3 -133 -8 -200 -13c-71 -93 -145 -179 -200 -229c-14 -13 -33 -17 -41 -16c-10 0 -42 13 -55 31c-12 15 -9 23 5 27c10 2 27 16 35 24c28 27 77 84 133 153c-48 -5 -81 -11 -86 -15
c-5 -3 -15 -7 -21 8c-8 21 2 72 19 82c18 10 83 17 163 20c91 117 182 245 220 316zM558 778c-5 -10 -13 -42 -31 -42c-25 0 -62 21 -62 51c0 52 112 126 165 126c17 0 40 -14 49 -28c0 -6 -16 -10 -20 -11c-42 -16 -86 -54 -101 -96zM423 284c-2 38 -3 77 -3 115
c0 28 1 55 2 82c-34 -57 -79 -126 -129 -196h39c32 0 63 0 91 -1z" />
    <glyph glyph-name="Abreve" unicode="&#x102;" horiz-adv-x="571" 
d="M401 599c23 42 29 66 30 74c0 11 11 13 17 12c2 0 5 -1 9 -3c23 3 66 -13 75 -29c3 -7 1 -15 -6 -25c-15 -56 -21 -148 -21 -245c0 -34 0 -69 2 -103c19 -1 35 -3 47 -4c23 -3 21 -55 11 -59c-11 0 -30 -1 -54 -2c9 -109 25 -204 46 -237c7 -11 37 -2 44 -3
c24 2 1 -33 -11 -37c-38 -14 -85 14 -114 62c-22 35 -38 115 -47 211c-62 -3 -133 -8 -200 -13c-71 -93 -145 -179 -200 -229c-14 -13 -33 -17 -41 -16c-10 0 -42 13 -55 31c-12 15 -9 23 5 27c10 2 27 16 35 24c28 27 77 84 133 153c-48 -5 -81 -11 -86 -15
c-5 -3 -15 -7 -21 8c-8 21 2 72 19 82c18 10 83 17 163 20c91 117 182 245 220 316zM419 873c13 13 66 -7 66 -22c0 -13 -11 -50 13 -50c18 0 34 31 40 43c6 19 6 26 29 26c15 0 34 -6 40 -22c0 -58 -47 -99 -104 -99c-47 0 -102 23 -102 80c0 13 9 36 18 44zM423 284
c-2 38 -3 77 -3 115c0 28 1 55 2 82c-34 -57 -79 -126 -129 -196h39c32 0 63 0 91 -1z" />
    <glyph glyph-name="Acircumflex" unicode="&#xc2;" horiz-adv-x="571" 
d="M401 599c23 42 29 66 30 74c0 11 11 13 17 12c2 0 5 -1 9 -3c23 3 66 -13 75 -29c3 -7 1 -15 -6 -25c-15 -56 -21 -148 -21 -245c0 -34 0 -69 2 -103c19 -1 35 -3 47 -4c23 -3 21 -55 11 -59c-11 0 -30 -1 -54 -2c9 -109 25 -204 46 -237c7 -11 37 -2 44 -3
c24 2 1 -33 -11 -37c-38 -14 -85 14 -114 62c-22 35 -38 115 -47 211c-62 -3 -133 -8 -200 -13c-71 -93 -145 -179 -200 -229c-14 -13 -33 -17 -41 -16c-10 0 -42 13 -55 31c-12 15 -9 23 5 27c10 2 27 16 35 24c28 27 77 84 133 153c-48 -5 -81 -11 -86 -15
c-5 -3 -15 -7 -21 8c-8 21 2 72 19 82c18 10 83 17 163 20c91 117 182 245 220 316zM350 805c0 12 21 13 29 13c22 0 62 44 81 62c13 14 10 31 33 31c32 0 48 -14 60 -35c12 -20 36 -76 46 -103c7 -3 19 -8 19 -16c0 -4 -1 -7 -3 -9c-8 -5 -20 -11 -34 -11
c-43 0 -67 51 -85 83c-20 -20 -61 -59 -93 -59c-19 0 -53 27 -53 44zM423 284c-2 38 -3 77 -3 115c0 28 1 55 2 82c-34 -57 -79 -126 -129 -196h39c32 0 63 0 91 -1z" />
    <glyph glyph-name="Adieresis" unicode="&#xc4;" horiz-adv-x="571" 
d="M401 599c23 42 29 66 30 74c0 11 11 13 17 12c2 0 5 -1 9 -3c23 3 66 -13 75 -29c3 -7 1 -15 -6 -25c-15 -56 -21 -148 -21 -245c0 -34 0 -69 2 -103c19 -1 35 -3 47 -4c23 -3 21 -55 11 -59c-11 0 -30 -1 -54 -2c9 -109 25 -204 46 -237c7 -11 37 -2 44 -3
c24 2 1 -33 -11 -37c-38 -14 -85 14 -114 62c-22 35 -38 115 -47 211c-62 -3 -133 -8 -200 -13c-71 -93 -145 -179 -200 -229c-14 -13 -33 -17 -41 -16c-10 0 -42 13 -55 31c-12 15 -9 23 5 27c10 2 27 16 35 24c28 27 77 84 133 153c-48 -5 -81 -11 -86 -15
c-5 -3 -15 -7 -21 8c-8 21 2 72 19 82c18 10 83 17 163 20c91 117 182 245 220 316zM423 284c-2 38 -3 77 -3 115c0 28 1 55 2 82c-34 -57 -79 -126 -129 -196h39c32 0 63 0 91 -1zM419 852c37 0 52 -23 52 -48c0 -30 -22 -63 -57 -63c-18 0 -35 6 -44 20c-4 12 -7 24 -7 35
c0 12 3 24 10 38c8 14 29 18 46 18zM574 856c31 0 60 -19 60 -54c0 -14 -4 -27 -11 -35c-20 -22 -22 -22 -51 -22c-34 0 -56 39 -46 69c11 25 18 42 48 42z" />
    <glyph glyph-name="Agrave" unicode="&#xc0;" horiz-adv-x="571" 
d="M401 599c23 42 29 66 30 74c0 11 11 13 17 12c2 0 5 -1 9 -3c23 3 66 -13 75 -29c3 -7 1 -15 -6 -25c-15 -56 -21 -148 -21 -245c0 -34 0 -69 2 -103c19 -1 35 -3 47 -4c23 -3 21 -55 11 -59c-11 0 -30 -1 -54 -2c9 -109 25 -204 46 -237c7 -11 37 -2 44 -3
c24 2 1 -33 -11 -37c-38 -14 -85 14 -114 62c-22 35 -38 115 -47 211c-62 -3 -133 -8 -200 -13c-71 -93 -145 -179 -200 -229c-14 -13 -33 -17 -41 -16c-10 0 -42 13 -55 31c-12 15 -9 23 5 27c10 2 27 16 35 24c28 27 77 84 133 153c-48 -5 -81 -11 -86 -15
c-5 -3 -15 -7 -21 8c-8 21 2 72 19 82c18 10 83 17 163 20c91 117 182 245 220 316zM437 863c12 -41 36 -81 78 -101c10 1 17 -1 23 -10c8 -19 -29 -24 -46 -22c-47 7 -134 59 -141 119c-2 20 30 32 46 32c13 0 36 -2 40 -18zM423 284c-2 38 -3 77 -3 115c0 28 1 55 2 82
c-34 -57 -79 -126 -129 -196h39c32 0 63 0 91 -1z" />
    <glyph glyph-name="Aogonek" unicode="&#x104;" horiz-adv-x="571" 
d="M401 599c23 42 29 66 30 74c0 11 11 13 17 12c2 0 5 -1 9 -3c23 3 66 -13 75 -29c3 -7 1 -15 -6 -25c-15 -56 -21 -148 -21 -245c0 -34 0 -69 2 -103c19 -1 35 -3 47 -4c23 -3 21 -55 11 -59c-11 0 -30 -1 -54 -2c9 -109 25 -204 46 -237c7 -11 37 -2 44 -3
c24 2 1 -33 -11 -37c-22 -8 -47 -2 -69 13c-17 -21 -37 -44 -37 -66c-1 -56 87 -32 77 -67c-5 -18 -39 -16 -46 -16c-25 0 -55 6 -78 20c-28 17 -45 41 -45 69c0 16 5 33 17 52c10 16 37 49 61 67c-19 39 -33 113 -41 201c-62 -3 -133 -8 -200 -13
c-71 -93 -145 -179 -200 -229c-14 -13 -33 -17 -41 -16c-10 0 -42 13 -55 31c-12 15 -9 23 5 27c10 2 27 16 35 24c28 27 77 84 133 153c-48 -5 -81 -11 -86 -15c-5 -3 -15 -7 -21 8c-8 21 2 72 19 82c18 10 83 17 163 20c91 117 182 245 220 316zM423 284
c-2 38 -3 77 -3 115c0 28 1 55 2 82c-34 -57 -79 -126 -129 -196h39c32 0 63 0 91 -1z" />
    <glyph glyph-name="Aring" unicode="&#xc5;" horiz-adv-x="571" 
d="M401 599c23 42 29 66 30 74v1c-11 14 -16 33 -16 55c-5 43 38 84 81 84c18 0 39 1 54 -11c24 -19 39 -47 39 -78c0 -32 -26 -59 -57 -72c3 -7 1 -14 -6 -24c-15 -56 -21 -148 -21 -245c0 -34 0 -69 2 -103c19 -1 35 -3 47 -4c23 -3 21 -55 11 -59c-11 0 -30 -1 -54 -2
c9 -109 25 -204 46 -237c7 -11 37 -2 44 -3c24 2 1 -33 -11 -37c-38 -14 -85 14 -114 62c-22 35 -38 115 -47 211c-62 -3 -133 -8 -200 -13c-71 -93 -145 -179 -200 -229c-14 -13 -33 -17 -41 -16c-10 0 -42 13 -55 31c-12 15 -9 23 5 27c10 2 27 16 35 24
c28 27 77 84 133 153c-48 -5 -81 -11 -86 -15c-5 -3 -15 -7 -21 8c-8 21 2 72 19 82c18 10 83 17 163 20c91 117 182 245 220 316zM423 284c-2 38 -3 77 -3 115c0 28 1 55 2 82c-34 -57 -79 -126 -129 -196h39c32 0 63 0 91 -1zM501 702c18 7 24 21 24 37c0 8 -8 16 -10 23
c-21 0 -44 -13 -45 -28c-3 -24 11 -36 31 -32z" />
    <glyph glyph-name="Atilde" unicode="&#xc3;" horiz-adv-x="571" 
d="M401 599c23 42 29 66 30 74c0 11 11 13 17 12c2 0 5 -1 9 -3c23 3 66 -13 75 -29c3 -7 1 -15 -6 -25c-15 -56 -21 -148 -21 -245c0 -34 0 -69 2 -103c19 -1 35 -3 47 -4c23 -3 21 -55 11 -59c-11 0 -30 -1 -54 -2c9 -109 25 -204 46 -237c7 -11 37 -2 44 -3
c24 2 1 -33 -11 -37c-38 -14 -85 14 -114 62c-22 35 -38 115 -47 211c-62 -3 -133 -8 -200 -13c-71 -93 -145 -179 -200 -229c-14 -13 -33 -17 -41 -16c-10 0 -42 13 -55 31c-12 15 -9 23 5 27c10 2 27 16 35 24c28 27 77 84 133 153c-48 -5 -81 -11 -86 -15
c-5 -3 -15 -7 -21 8c-8 21 2 72 19 82c18 10 83 17 163 20c91 117 182 245 220 316zM377 780c31 42 50 56 84 55c40 -1 49 -25 84 -51c7 4 18 13 18 23c0 15 9 28 31 19c12 -5 20 -14 25 -23c10 -39 -22 -77 -70 -77c-18 0 -63 19 -81 53c-17 -16 -26 -44 -44 -44
c-21 0 -45 22 -47 45zM423 284c-2 38 -3 77 -3 115c0 28 1 55 2 82c-34 -57 -79 -126 -129 -196h39c32 0 63 0 91 -1z" />
    <glyph glyph-name="B" unicode="B" horiz-adv-x="564" 
d="M564 426c-14 -34 -42 -97 -155 -177c80 -9 130 -82 130 -147c0 -20 -5 -40 -15 -56c-48 -80 -197 -105 -301 -105c-12 0 -23 0 -34 1c-31 0 -76 56 -72 83l52 186c23 85 62 236 77 325c-86 -29 -189 -84 -196 -112c-6 -21 -17 -11 -18 -11c-16 7 -27 42 -27 74
c0 19 4 37 14 47c52 44 144 77 237 90v30c-11 23 3 24 22 22c11 -1 69 -12 78 -33c1 -3 2 -8 2 -14c54 -2 104 -13 141 -34c51 -30 72 -86 72 -130c0 -15 -3 -29 -7 -39zM289 198l-28 -7l-44 -167c-2 -7 -3 -14 -4 -20c107 19 268 54 263 151c-20 36 -73 46 -128 46
c-20 0 -40 -1 -59 -3zM511 510c-7 31 -90 49 -163 46c-9 -46 -40 -180 -66 -282c109 39 239 165 229 236z" />
    <glyph glyph-name="C" unicode="C" horiz-adv-x="469" 
d="M180 -26c10 -4 22 -6 34 -6c108 0 269 154 304 267c3 9 12 27 22 26c16 -2 24 -17 24 -40c0 -20 -6 -46 -19 -75c-35 -90 -152 -219 -257 -237c-13 -2 -26 -3 -38 -3c-136 0 -231 105 -231 244c0 14 1 28 3 42c5 37 15 81 27 117c40 122 189 362 341 347
c30 -3 67 -23 83 -49c3 -3 15 -25 15 -29c4 -27 -1 -50 -4 -79c-1 -7 2 -13 2 -20c-2 -13 -20 -12 -30 -12c-16 2 -38 13 -48 28c-7 10 -5 78 -8 98c-30 -12 -56 -31 -82 -54c-73 -68 -143 -161 -176 -263c-17 -52 -27 -108 -27 -159c0 -65 18 -121 65 -143z" />
    <glyph glyph-name="Cacute" unicode="&#x106;" horiz-adv-x="469" 
d="M180 -26c10 -4 22 -6 34 -6c108 0 269 154 304 267c3 9 12 27 22 26c16 -2 24 -17 24 -40c0 -20 -6 -46 -19 -75c-35 -90 -152 -219 -257 -237c-13 -2 -26 -3 -38 -3c-136 0 -231 105 -231 244c0 14 1 28 3 42c5 37 15 81 27 117c40 122 189 362 341 347
c30 -3 67 -23 83 -49c3 -3 15 -25 15 -29c4 -27 -1 -50 -4 -79c-1 -7 2 -13 2 -20c-2 -13 -20 -12 -30 -12c-16 2 -38 13 -48 28c-7 10 -5 78 -8 98c-30 -12 -56 -31 -82 -54c-73 -68 -143 -161 -176 -263c-17 -52 -27 -108 -27 -159c0 -65 18 -121 65 -143zM361 755
c-5 -10 -13 -42 -31 -42c-25 0 -62 21 -62 51c0 52 112 126 165 126c17 0 40 -14 49 -28c0 -6 -16 -10 -20 -11c-42 -16 -86 -54 -101 -96z" />
    <glyph glyph-name="Ccaron" unicode="&#x10c;" horiz-adv-x="469" 
d="M180 -26c10 -4 22 -6 34 -6c108 0 269 154 304 267c3 9 12 27 22 26c16 -2 24 -17 24 -40c0 -20 -6 -46 -19 -75c-35 -90 -152 -219 -257 -237c-13 -2 -26 -3 -38 -3c-136 0 -231 105 -231 244c0 14 1 28 3 42c5 37 15 81 27 117c40 122 189 362 341 347
c30 -3 67 -23 83 -49c3 -3 15 -25 15 -29c4 -27 -1 -50 -4 -79c-1 -7 2 -13 2 -20c-2 -13 -20 -12 -30 -12c-16 2 -38 13 -48 28c-7 10 -5 78 -8 98c-30 -12 -56 -31 -82 -54c-73 -68 -143 -161 -176 -263c-17 -52 -27 -108 -27 -159c0 -65 18 -121 65 -143zM303 813
c0 23 15 33 32 33c18 0 38 -10 48 -27c0 -14 0 -28 4 -44c50 35 61 43 86 65c3 4 7 6 11 6c17 0 41 -11 43 -30c-29 -39 -89 -110 -147 -110c-15 0 -37 4 -48 16c-21 21 -29 57 -29 91z" />
    <glyph glyph-name="Ccedilla" unicode="&#xc7;" horiz-adv-x="469" 
d="M180 -26c10 -4 22 -6 34 -6c108 0 269 154 304 267c3 9 12 27 22 26c16 -2 24 -17 24 -40c0 -20 -6 -46 -19 -75c-35 -90 -152 -219 -257 -237c-11 -1 -22 -2 -33 -2c-22 -15 -28 -32 -28 -36c0 -28 63 -68 63 -108c0 -28 -26 -68 -74 -76c-31 -5 -75 15 -97 39
c-10 11 -11 35 3 46c5 4 18 -10 21 -13c23 -22 72 -43 72 -7c0 38 -49 84 -51 121c-1 16 5 31 14 44c-96 30 -159 119 -159 232c0 14 1 28 3 43c5 37 15 81 27 117c40 122 189 362 341 347c30 -3 67 -23 83 -49c3 -3 15 -25 15 -29c4 -27 -1 -50 -4 -79c-1 -7 2 -13 2 -20
c-2 -13 -20 -12 -30 -12c-16 2 -38 13 -48 28c-7 10 -5 78 -8 98c-30 -12 -56 -31 -82 -54c-73 -68 -143 -161 -176 -263c-17 -52 -27 -108 -27 -159c0 -65 18 -121 65 -143z" />
    <glyph glyph-name="D" unicode="D" horiz-adv-x="587" 
d="M79 -3c18 0 36 0 54 2c-14 9 -26 24 -26 40c0 14 -13 13 54 257c20 75 50 174 69 253l-45 -6c-90 -15 -199 -85 -208 -119c-6 -21 -17 -11 -18 -11c-16 7 -27 39 -27 70c0 19 4 38 14 51c66 66 185 105 300 104c1 8 1 15 1 21c-4 19 5 30 24 28c11 -1 61 -14 72 -44
c1 -4 2 -9 1 -16c29 -6 57 -16 82 -29c91 -47 165 -155 171 -278c8 -146 -146 -379 -441 -379c-13 0 -27 0 -40 1c-22 0 -81 14 -77 46c-1 7 13 11 40 9zM262 310l-58 -246c-4 -20 -8 -40 -8 -54c178 45 330 198 330 355c0 14 -1 29 -4 43c-15 78 -87 130 -197 141
c-13 -49 -34 -124 -63 -239z" />
    <glyph glyph-name="Dcaron" unicode="&#x10e;" horiz-adv-x="699" 
d="M152 -3c18 0 36 0 54 2c-14 9 -26 24 -26 40c0 14 -13 13 54 257c20 75 50 174 69 253l-45 -6c-90 -15 -199 -85 -208 -119c-6 -21 -17 -11 -18 -11c-16 7 -27 39 -27 70c0 19 4 38 14 51c66 66 185 105 300 104c1 8 1 15 1 21c-4 19 5 30 24 28c11 -1 61 -14 72 -44
c1 -4 2 -9 1 -16c29 -6 57 -16 82 -29c91 -47 165 -155 171 -278c8 -146 -146 -379 -441 -379c-13 0 -27 0 -40 1c-22 0 -81 14 -77 46c-1 7 13 11 40 9zM335 310l-58 -246c-4 -20 -8 -40 -8 -54c178 45 330 198 330 355c0 14 -1 29 -4 43c-15 78 -87 130 -197 141
c-13 -49 -34 -124 -63 -239zM322 867c0 23 15 33 32 33c18 0 38 -10 48 -27c0 -14 0 -28 4 -44c50 35 61 43 86 65c3 4 7 6 11 6c17 0 41 -11 43 -30c-29 -39 -89 -110 -147 -110c-15 0 -37 4 -48 16c-21 21 -29 57 -29 91z" />
    <glyph glyph-name="Dcroat" unicode="&#x110;" horiz-adv-x="699" 
d="M152 -3c18 0 36 0 54 2c-14 9 -26 24 -26 40c0 13 -12 13 44 220h-54c-15 0 -26 3 -31 7c-12 9 -15 13 -20 18c-4 6 -6 12 -6 17c0 3 1 8 17 14c3 1 10 2 24 2c28 0 56 -1 85 -2c19 72 46 161 64 234l-45 -6c-90 -15 -199 -85 -208 -119c-6 -21 -17 -11 -18 -11
c-16 7 -27 39 -27 70c0 19 4 38 14 51c66 66 185 105 300 104c1 8 1 15 1 21c-4 19 5 30 24 28c11 -1 61 -14 72 -44c1 -4 2 -9 1 -16c29 -6 57 -16 82 -29c91 -47 165 -155 171 -278c8 -146 -146 -379 -441 -379c-13 0 -27 0 -40 1c-22 0 -81 14 -77 46c-1 7 13 11 40 9z
M443 292c11 -19 0 -33 -24 -33h-96l-46 -195c-4 -20 -8 -40 -8 -54c178 45 330 198 330 355c0 14 -1 29 -4 43c-15 78 -87 130 -197 141c-13 -49 -34 -123 -63 -237h24c56 0 71 -10 84 -20z" />
    <glyph glyph-name="E" unicode="E" horiz-adv-x="466" 
d="M7 123c17 96 95 178 188 221c-20 15 -35 35 -41 65c-2 11 -3 21 -3 31c0 138 180 241 285 248c13 0 26 -1 36 -4c27 -11 53 -45 55 -76c1 -13 -2 -23 -8 -33c-11 -14 -29 -9 -32 -2c-5 4 3 18 -12 27c-99 -23 -268 -120 -240 -205c4 -12 17 -20 35 -26c21 4 43 7 64 7
s42 -3 63 -7c12 -4 28 -65 11 -79c-9 -8 -22 -10 -36 -10c-10 0 -19 1 -29 2c-45 -5 -128 -25 -195 -84c-43 -39 -69 -95 -69 -141s27 -83 92 -80c113 5 286 119 351 259c11 24 29 32 45 11c5 -8 7 -22 2 -38c-44 -152 -205 -296 -360 -296c-12 0 -24 0 -35 2
c-96 14 -170 79 -170 174c0 11 1 22 3 34z" />
    <glyph glyph-name="E.salt" unicode="&#xe484;" horiz-adv-x="440" 
d="M97 580c55 39 172 63 301 61c60 -1 96 -9 116 -22c16 -10 24 -35 15 -55c-11 -14 -19 -8 -23 -1c-8 12 -34 18 -69 18c-43 0 -100 -8 -159 -20h-1l-5 -22c-23 -56 -82 -176 -94 -230c44 5 90 11 135 11c24 0 64 -11 64 -44c0 -12 -6 -19 -19 -19c-15 0 -28 7 -47 7
c-51 0 -107 -3 -150 -13c-14 -43 -33 -136 -33 -181c0 -29 7 -78 44 -78c74 0 165 80 210 80c23 0 38 -14 29 -36c-62 -39 -125 -91 -207 -91c-100 0 -160 74 -160 171c0 26 16 105 25 129l-50 -6c-10 9 -12 40 27 49l37 9c6 14 8 26 50 133c18 42 29 78 42 104
c-47 -15 -48 -23 -61 -35c-4 -4 -12 -8 -18 4c-4 7 -8 27 -8 45c0 14 2 28 9 32z" />
    <glyph glyph-name="Eacute" unicode="&#xc9;" horiz-adv-x="467" 
d="M369 752c-5 -10 -13 -42 -31 -42c-25 0 -62 21 -62 51c0 52 112 126 165 126c17 0 40 -14 49 -28c0 -6 -16 -10 -20 -11c-42 -16 -86 -54 -101 -96zM7 123c17 96 95 178 188 221c-20 15 -35 35 -41 65c-2 11 -3 21 -3 31c0 138 180 241 285 248c13 0 26 -1 36 -4
c27 -11 53 -45 55 -76c1 -13 -2 -23 -8 -33c-11 -14 -29 -9 -32 -2c-5 4 3 18 -12 27c-99 -23 -268 -120 -240 -205c4 -12 17 -20 35 -26c21 4 43 7 64 7s42 -3 63 -7c12 -4 28 -65 11 -79c-9 -8 -22 -10 -36 -10c-10 0 -19 1 -29 2c-45 -5 -128 -25 -195 -84
c-43 -39 -69 -95 -69 -141s27 -83 92 -80c113 5 286 119 351 259c11 24 29 32 45 11c5 -8 7 -22 2 -38c-44 -152 -205 -296 -360 -296c-12 0 -24 0 -35 2c-96 14 -170 79 -170 174c0 11 1 22 3 34z" />
    <glyph glyph-name="Ecaron" unicode="&#x11a;" horiz-adv-x="470" 
d="M281 813c0 23 15 33 32 33c18 0 38 -10 48 -27c0 -14 0 -28 4 -44c50 35 61 43 86 65c3 4 7 6 11 6c17 0 41 -11 43 -30c-29 -39 -89 -110 -147 -110c-15 0 -37 4 -48 16c-21 21 -29 57 -29 91zM7 123c17 96 95 178 188 221c-20 15 -35 35 -41 65c-2 11 -3 21 -3 31
c0 138 180 241 285 248c13 0 26 -1 36 -4c27 -11 53 -45 55 -76c1 -13 -2 -23 -8 -33c-11 -14 -29 -9 -32 -2c-5 4 3 18 -12 27c-99 -23 -268 -120 -240 -205c4 -12 17 -20 35 -26c21 4 43 7 64 7s42 -3 63 -7c12 -4 28 -65 11 -79c-9 -8 -22 -10 -36 -10c-10 0 -19 1 -29 2
c-45 -5 -128 -25 -195 -84c-43 -39 -69 -95 -69 -141s27 -83 92 -80c113 5 286 119 351 259c11 24 29 32 45 11c5 -8 7 -22 2 -38c-44 -152 -205 -296 -360 -296c-12 0 -24 0 -35 2c-96 14 -170 79 -170 174c0 11 1 22 3 34z" />
    <glyph glyph-name="Ecircumflex" unicode="&#xca;" horiz-adv-x="467" 
d="M241 774c0 12 21 13 29 13c22 0 62 44 81 62c13 14 10 31 33 31c32 0 48 -14 60 -35c12 -20 36 -76 46 -103c7 -3 19 -8 19 -16c0 -4 -1 -7 -3 -9c-8 -5 -20 -11 -34 -11c-43 0 -67 51 -85 83c-20 -20 -61 -59 -93 -59c-19 0 -53 27 -53 44zM7 123c17 96 95 178 188 221
c-20 15 -35 35 -41 65c-2 11 -3 21 -3 31c0 138 180 241 285 248c13 0 26 -1 36 -4c27 -11 53 -45 55 -76c1 -13 -2 -23 -8 -33c-11 -14 -29 -9 -32 -2c-5 4 3 18 -12 27c-99 -23 -268 -120 -240 -205c4 -12 17 -20 35 -26c21 4 43 7 64 7s42 -3 63 -7c12 -4 28 -65 11 -79
c-9 -8 -22 -10 -36 -10c-10 0 -19 1 -29 2c-45 -5 -128 -25 -195 -84c-43 -39 -69 -95 -69 -141s27 -83 92 -80c113 5 286 119 351 259c11 24 29 32 45 11c5 -8 7 -22 2 -38c-44 -152 -205 -296 -360 -296c-12 0 -24 0 -35 2c-96 14 -170 79 -170 174c0 11 1 22 3 34z" />
    <glyph glyph-name="Edieresis" unicode="&#xcb;" horiz-adv-x="467" 
d="M288 842c37 0 52 -23 52 -48c0 -30 -22 -63 -57 -63c-18 0 -35 6 -44 20c-5 16 -8 28 -8 43c0 9 7 22 11 30c7 13 18 14 31 16c5 1 10 2 15 2zM443 846c7 0 40 -11 45 -15h-1c11 -8 16 -24 16 -39c0 -14 -4 -27 -11 -35c-20 -22 -22 -22 -51 -22c-34 0 -56 39 -46 69
c11 25 18 42 48 42zM7 123c17 96 95 178 188 221c-20 15 -35 35 -41 65c-2 11 -3 21 -3 31c0 138 180 241 285 248c13 0 26 -1 36 -4c27 -11 53 -45 55 -76c1 -13 -2 -23 -8 -33c-11 -14 -29 -9 -32 -2c-5 4 3 18 -12 27c-99 -23 -268 -120 -240 -205c4 -12 17 -20 35 -26
c21 4 43 7 64 7s42 -3 63 -7c12 -4 28 -65 11 -79c-9 -8 -22 -10 -36 -10c-10 0 -19 1 -29 2c-45 -5 -128 -25 -195 -84c-43 -39 -69 -95 -69 -141s27 -83 92 -80c113 5 286 119 351 259c11 24 29 32 45 11c5 -8 7 -22 2 -38c-44 -152 -205 -296 -360 -296
c-12 0 -24 0 -35 2c-96 14 -170 79 -170 174c0 11 1 22 3 34z" />
    <glyph glyph-name="Egrave" unicode="&#xc8;" horiz-adv-x="470" 
d="M285 830c12 -41 36 -81 78 -101c10 1 17 -1 23 -10c8 -19 -29 -24 -46 -22c-47 7 -134 59 -141 119c-2 20 30 32 46 32c13 0 36 -2 40 -18zM9 123c17 96 95 178 188 221c-20 15 -35 35 -41 65c-2 11 -3 21 -3 31c0 138 180 241 285 248c13 0 26 -1 36 -4
c27 -11 53 -45 55 -76c1 -13 -2 -23 -8 -33c-11 -14 -29 -9 -32 -2c-5 4 3 18 -12 27c-99 -23 -268 -120 -240 -205c4 -12 17 -20 35 -26c21 4 43 7 64 7s42 -3 63 -7c12 -4 28 -65 11 -79c-9 -8 -22 -10 -36 -10c-10 0 -19 1 -29 2c-45 -5 -128 -25 -195 -84
c-43 -39 -69 -95 -69 -141s27 -83 92 -80c113 5 286 119 351 259c11 24 29 32 45 11c5 -8 7 -22 2 -38c-44 -152 -205 -296 -360 -296c-12 0 -24 0 -35 2c-96 14 -170 79 -170 174c0 11 1 22 3 34z" />
    <glyph glyph-name="Eogonek" unicode="&#x118;" horiz-adv-x="470" 
d="M7 123c17 96 95 178 188 221c-20 15 -35 35 -41 65c-2 11 -3 21 -3 31c0 138 180 241 285 248c13 0 26 -1 36 -4c27 -11 53 -45 55 -76c1 -13 -2 -23 -8 -33c-11 -14 -29 -9 -32 -2c-5 4 3 18 -12 27c-99 -23 -268 -120 -240 -205c4 -12 17 -20 35 -26c21 4 43 7 64 7
s42 -3 63 -7c12 -4 28 -65 11 -79c-9 -8 -22 -10 -36 -10c-10 0 -19 1 -29 2c-45 -5 -128 -25 -195 -84c-43 -39 -69 -95 -69 -141s27 -83 92 -80c113 5 286 119 351 259c11 24 29 32 45 11c5 -8 7 -22 2 -38c-43 -148 -198 -289 -350 -296c-17 -19 -42 -41 -43 -68
c-1 -56 98 -45 88 -80c-5 -18 -39 -16 -46 -16c-25 0 -55 6 -78 20c-28 17 -45 41 -45 69c0 16 5 33 17 52c5 9 14 21 25 34c-78 23 -133 82 -133 165c0 11 1 22 3 34z" />
    <glyph glyph-name="Eth" unicode="&#xd0;" horiz-adv-x="699" 
d="M152 -3c18 0 36 0 54 2c-14 9 -26 24 -26 40c0 12 -11 13 35 190h-56c-22 0 -58 21 -58 55c0 20 32 21 42 21h93c20 74 48 168 67 244l-45 -6c-90 -15 -199 -85 -208 -119c-6 -21 -17 -11 -18 -11c-16 7 -27 39 -27 70c0 19 4 38 14 51c66 66 185 105 300 104
c1 8 1 15 1 21c-4 19 5 30 24 28c11 -1 61 -14 72 -44c1 -4 2 -9 1 -16c29 -6 57 -16 82 -29c91 -47 165 -155 171 -278c8 -146 -146 -379 -441 -379c-13 0 -27 0 -40 1c-22 0 -81 14 -77 46c-1 7 13 11 40 9zM335 310l-3 -12c36 -3 70 -6 91 -19c13 -8 20 -19 20 -29
c0 -12 -10 -21 -31 -21h-96l-39 -165c-4 -20 -8 -40 -8 -54c178 45 330 198 330 355c0 14 -1 29 -4 43c-15 78 -87 130 -197 141c-13 -49 -34 -124 -63 -239z" />
    <glyph glyph-name="Euro" unicode="&#x20ac;" horiz-adv-x="440" 
d="M3 329c0 11 28 14 58 14c25 0 51 -2 65 -3c37 73 126 216 225 216c30 0 69 -17 88 -41c3 -3 17 -23 18 -27c3 -13 4 -25 4 -38s-1 -27 -1 -41c0 -7 4 -13 4 -20c0 -13 -18 -14 -28 -14c-16 0 -40 8 -51 22c-8 9 -13 78 -18 96c-60 -30 -108 -99 -143 -159h42
c26 0 56 0 63 -3c17 -6 45 -18 56 -36v-1c0 -10 -26 -13 -32 -14c-18 -3 -53 -3 -87 -3h-69c-7 -20 -18 -39 -21 -60c39 0 78 -3 117 -3c52 0 92 -8 104 -36c-7 -23 -48 -19 -66 -19h-162c-1 -13 -2 -25 -2 -38c0 -52 22 -101 82 -101c48 0 97 17 141 34c14 5 54 28 66 28
c59 0 -16 -60 -38 -76c-45 -29 -100 -37 -153 -37c-122 0 -183 75 -183 200c-28 1 -56 11 -80 30c-2 5 -11 19 -11 24c0 9 7 12 15 12c25 0 51 -6 82 -7c0 17 10 40 14 56c-13 2 -47 1 -56 7c-18 7 -43 15 -43 38z" />
    <glyph glyph-name="F" unicode="F" horiz-adv-x="353" 
d="M-5 569c67 44 293 74 446 69c62 -2 112 -10 134 -26c20 -14 28 -43 16 -67c-14 -15 -23 -8 -27 0c-10 15 -39 23 -81 24c-51 2 -120 -5 -189 -16c-12 -54 -83 -210 -104 -291c28 1 60 4 92 3c21 -1 43 -3 62 -10c23 -10 44 -25 30 -40c-6 -8 -52 -8 -66 -9
c-24 0 -98 -5 -142 -11l-17 -64c-28 -105 -31 -138 -34 -166s-1 -45 3 -50c8 -11 0 -15 -19 -13c-28 4 -53 24 -65 50c-9 52 25 173 41 235c-18 1 -42 37 -38 57c-1 6 8 10 26 12l37 2c36 104 79 212 97 269c1 3 2 6 4 9c-88 -19 -164 -43 -189 -64c-5 -4 -14 -9 -22 5
c-6 10 -8 32 -7 51c0 19 4 36 12 41z" />
    <glyph glyph-name="F.salt" unicode="&#xe485;" horiz-adv-x="352" 
d="M28 299c16 16 28 17 52 22c39 6 79 8 112 16c19 79 42 158 40 205c-1 28 -19 40 -46 40c-80 0 -239 -101 -251 -134c-4 -12 -9 -15 -20 -12c-13 4 -43 46 -35 73c21 74 191 128 288 124c62 -3 141 -36 141 -104c0 -53 -17 -128 -30 -183c32 4 62 7 104 9
c13 1 48 6 48 -13c0 -16 -26 -25 -41 -28c-32 -6 -84 -16 -124 -20c-33 -113 -82 -230 -82 -351c0 -3 1 -6 3 -8c1 -2 1 -4 1 -5c0 -9 -12 -10 -19 -10c-14 0 -29 3 -41 13s-28 22 -28 39c0 103 60 254 76 307c-28 -6 -59 -8 -87 -12c-24 -3 -66 2 -61 32z" />
    <glyph glyph-name="G" unicode="G" horiz-adv-x="566" 
d="M290 300c33 20 116 30 194 30c34 0 67 -2 95 -6c16 -2 21 -18 21 -37c0 -9 -1 -19 -3 -29c-15 0 -37 -1 -62 -3c5 -6 7 -12 9 -17c2 -8 1 -15 -1 -23c-22 -40 -58 -134 -82 -224c-15 -56 -41 -145 -33 -175c10 -36 -87 -12 -89 20c-5 82 66 259 86 310
c-97 -124 -179 -163 -232 -180c-80 -15 -159 36 -173 120c-2 14 -4 29 -4 46c0 74 23 170 56 248c48 108 152 265 242 289c59 14 134 -17 158 -62c15 -41 -24 -134 -66 -137c-20 -1 -58 -3 -46 30c14 38 31 93 24 117c-92 -23 -168 -177 -211 -262
c-39 -89 -73 -204 -73 -272c0 -35 9 -58 30 -59c64 -4 194 90 313 218l5 5c-73 -9 -144 -20 -154 -30c-5 -3 -15 -7 -21 8c-8 21 0 65 17 75z" />
    <glyph glyph-name="H" unicode="H" horiz-adv-x="595" 
d="M8 273c20 12 83 20 160 24c28 113 52 223 55 275c0 8 3 17 1 25c-5 23 11 20 15 20c29 0 75 -6 75 -49c0 -42 -36 -209 -52 -267c31 1 62 1 93 1c43 0 85 -1 120 -3c17 62 28 108 41 161c9 39 24 99 27 123c1 7 -3 15 -3 22c0 9 15 9 21 9c25 -1 61 -17 69 -44
c-21 -87 -46 -185 -68 -281l12 -3c21 -10 31 -55 21 -59l-47 3c-21 -96 -39 -188 -45 -262c-1 -7 1 -13 1 -19c0 -13 -18 -15 -28 -15c-20 1 -68 20 -64 46c7 56 28 166 46 249c-67 -2 -148 -6 -222 -12c-12 -38 -32 -121 -35 -134c-11 -45 -36 -119 -36 -171
c0 -19 -1 -22 -22 -22c-26 0 -66 15 -66 48c0 22 9 51 15 72c13 48 33 121 53 199c-74 -8 -129 -17 -135 -26c-5 -3 -15 -7 -21 8c-8 21 2 72 19 82z" />
    <glyph glyph-name="H.1" unicode="&#xe000;" horiz-adv-x="575" 
d="M8 273c19 11 76 19 145 24c28 109 58 226 74 300c-11 -4 -27 -8 -28 7c14 26 35 78 41 78c40 3 87 -33 81 -78c-4 -42 -24 -129 -70 -302c20 1 40 1 60 1c55 0 108 -2 148 -5c31 133 62 262 76 319c4 19 5 37 3 46c-1 15 9 17 30 13c24 -7 49 -35 54 -77
c2 -28 -34 -175 -72 -330c9 -17 12 -39 5 -42c-4 0 -9 1 -15 2c-45 -182 -89 -362 -77 -366c3 -8 -5 -15 -20 -16c-30 -1 -56 37 -59 58c-4 30 25 173 59 325c-63 -2 -141 -6 -215 -12l-49 -184c-6 -25 -9 -50 -10 -64c1 -11 -11 -12 -29 -7c-19 5 -50 35 -50 62
c0 19 17 93 40 184c-65 -8 -114 -17 -120 -26c-5 -3 -15 -7 -21 8c-8 21 2 72 19 82z" />
    <glyph glyph-name="I" unicode="I" horiz-adv-x="388" 
d="M378 -26c7 -7 12 -25 12 -42c0 -19 -7 -35 -25 -29c-20 6 -47 9 -77 9c-121 0 -299 -44 -332 -84c-4 -5 -17 -5 -23 9c-8 23 1 71 13 82c33 27 99 49 173 62c-4 6 -6 13 -5 21c8 132 94 403 124 534c-84 -18 -160 -42 -185 -58c-5 -3 -14 -8 -21 6c-4 8 -6 21 -6 34
c0 22 5 45 15 51c62 38 250 76 381 76c50 0 91 -5 115 -18c21 -11 33 -52 21 -75c-14 -16 -22 -7 -27 0c-9 11 -34 15 -67 15c-36 0 -83 -5 -132 -13c-14 -94 -39 -186 -63 -278c-28 -101 -59 -186 -68 -285c17 1 34 2 50 2c31 0 61 -2 88 -7c16 -3 29 -7 39 -12z" />
    <glyph glyph-name="Iacute" unicode="&#xcd;" horiz-adv-x="388" 
d="M378 -26c7 -7 12 -25 12 -42c0 -19 -7 -35 -25 -29c-20 6 -47 9 -77 9c-121 0 -299 -44 -332 -84c-4 -5 -17 -5 -23 9c-8 23 1 71 13 82c33 27 99 49 173 62c-4 6 -6 13 -5 21c8 132 94 403 124 534c-84 -18 -160 -42 -185 -58c-5 -3 -14 -8 -21 6c-4 8 -6 21 -6 34
c0 22 5 45 15 51c62 38 250 76 381 76c50 0 91 -5 115 -18c21 -11 33 -52 21 -75c-14 -16 -22 -7 -27 0c-9 11 -34 15 -67 15c-36 0 -83 -5 -132 -13c-14 -94 -39 -186 -63 -278c-28 -101 -59 -186 -68 -285c17 1 34 2 50 2c31 0 61 -2 88 -7c16 -3 29 -7 39 -12zM337 757
c-5 -10 -13 -42 -31 -42c-25 0 -62 21 -62 51c0 52 112 126 165 126c17 0 40 -14 49 -28c0 -6 -16 -10 -20 -11c-42 -16 -86 -54 -101 -96z" />
    <glyph glyph-name="Icircumflex" unicode="&#xce;" horiz-adv-x="388" 
d="M378 -26c7 -7 12 -25 12 -42c0 -19 -7 -35 -25 -29c-20 6 -47 9 -77 9c-121 0 -299 -44 -332 -84c-4 -5 -17 -5 -23 9c-8 23 1 71 13 82c33 27 99 49 173 62c-4 6 -6 13 -5 21c8 132 94 403 124 534c-84 -18 -160 -42 -185 -58c-5 -3 -14 -8 -21 6c-4 8 -6 21 -6 34
c0 22 5 45 15 51c62 38 250 76 381 76c50 0 91 -5 115 -18c21 -11 33 -52 21 -75c-14 -16 -22 -7 -27 0c-9 11 -34 15 -67 15c-36 0 -83 -5 -132 -13c-14 -94 -39 -186 -63 -278c-28 -101 -59 -186 -68 -285c17 1 34 2 50 2c31 0 61 -2 88 -7c16 -3 29 -7 39 -12zM214 778
c0 12 21 13 29 13c22 0 62 44 81 62c13 14 10 31 33 31c32 0 48 -14 60 -35c12 -20 36 -76 46 -103c7 -3 19 -8 19 -16c0 -4 -1 -7 -3 -9c-8 -5 -20 -11 -34 -11c-43 0 -67 51 -85 83c-20 -20 -61 -59 -93 -59c-19 0 -53 27 -53 44z" />
    <glyph glyph-name="Idieresis" unicode="&#xcf;" horiz-adv-x="388" 
d="M378 -26c7 -7 12 -25 12 -42c0 -19 -7 -35 -25 -29c-20 6 -47 9 -77 9c-121 0 -299 -44 -332 -84c-4 -5 -17 -5 -23 9c-8 23 1 71 13 82c33 27 99 49 173 62c-4 6 -6 13 -5 21c8 132 94 403 124 534c-84 -18 -160 -42 -185 -58c-5 -3 -14 -8 -21 6c-4 8 -6 21 -6 34
c0 22 5 45 15 51c62 38 250 76 381 76c50 0 91 -5 115 -18c21 -11 33 -52 21 -75c-14 -16 -22 -7 -27 0c-9 11 -34 15 -67 15c-36 0 -83 -5 -132 -13c-14 -94 -39 -186 -63 -278c-28 -101 -59 -186 -68 -285c17 1 34 2 50 2c31 0 61 -2 88 -7c16 -3 29 -7 39 -12zM222 814
c37 0 52 -23 52 -48c0 -30 -22 -63 -57 -63c-18 0 -35 6 -44 20c-5 16 -8 28 -8 43c0 9 7 22 11 30c7 13 18 14 31 16c5 1 10 2 15 2zM377 818c7 0 40 -11 45 -15h-1c11 -8 16 -24 16 -39c0 -14 -4 -27 -11 -35c-20 -22 -22 -22 -51 -22c-34 0 -56 39 -46 69
c11 25 18 42 48 42z" />
    <glyph glyph-name="Igrave" unicode="&#xcc;" horiz-adv-x="388" 
d="M378 -26c7 -7 12 -25 12 -42c0 -19 -7 -35 -25 -29c-20 6 -47 9 -77 9c-121 0 -299 -44 -332 -84c-4 -5 -17 -5 -23 9c-8 23 1 71 13 82c33 27 99 49 173 62c-4 6 -6 13 -5 21c8 132 94 403 124 534c-84 -18 -160 -42 -185 -58c-5 -3 -14 -8 -21 6c-4 8 -6 21 -6 34
c0 22 5 45 15 51c62 38 250 76 381 76c50 0 91 -5 115 -18c21 -11 33 -52 21 -75c-14 -16 -22 -7 -27 0c-9 11 -34 15 -67 15c-36 0 -83 -5 -132 -13c-14 -94 -39 -186 -63 -278c-28 -101 -59 -186 -68 -285c17 1 34 2 50 2c31 0 61 -2 88 -7c16 -3 29 -7 39 -12zM259 832
c12 -41 36 -81 78 -101c10 1 17 -1 23 -10c8 -19 -29 -24 -46 -22c-47 7 -134 59 -141 119c-2 20 30 32 46 32c13 0 36 -2 40 -18z" />
    <glyph glyph-name="J" unicode="J" horiz-adv-x="457" 
d="M99 447c-11 8 -16 26 -16 45c0 24 7 49 17 56c80 63 298 92 419 92c13 0 25 0 36 -1c44 -3 127 -18 136 -71c2 -12 -5 -32 -20 -32c-6 0 -9 5 -12 9c-16 20 -59 21 -83 21c-25 0 -60 -3 -100 -8c0 -9 1 -19 1 -28c-3 -187 -119 -664 -329 -669c-64 -2 -124 47 -137 105
c-4 17 -5 35 -5 53c0 88 39 184 71 215c20 19 60 26 78 23c14 -3 30 -12 21 -24c-3 -4 -14 -7 -18 -12c-38 -48 -79 -154 -79 -228c0 -44 15 -76 52 -78c142 41 246 450 269 631c-119 -20 -250 -55 -285 -97c-2 -3 -8 -8 -16 -2z" />
    <glyph glyph-name="K" unicode="K" horiz-adv-x="549" 
d="M276 629c0 -58 -32 -182 -55 -270c73 86 191 183 282 183c27 0 65 -16 62 -45c-1 -8 -29 -9 -35 -11c-95 -29 -161 -98 -223 -169c-35 -40 -92 -122 -92 -178c0 -30 16 -52 60 -57c75 -10 231 35 290 73c31 19 51 26 62 26c26 0 4 -42 -25 -70
c-34 -33 -128 -92 -205 -107c-30 -6 -56 -8 -80 -8c-85 0 -138 34 -168 95c-1 1 -1 1 -1 2l-23 -81c-4 -17 -8 -38 -8 -55c0 -18 -1 -22 -22 -22c-25 0 -76 18 -76 48c0 34 73 257 83 293c30 110 63 252 74 366c0 5 0 12 -2 17c-3 3 -5 6 -5 10c0 13 17 15 26 15
c32 0 81 -18 81 -55z" />
    <glyph glyph-name="K.salt" unicode="&#xe48a;" horiz-adv-x="536" 
d="M276 629c0 -76 -54 -264 -73 -339l-3 -12v-1c115 68 253 216 294 287c7 13 12 27 11 39c-2 17 22 18 31 12c32 -21 51 -71 42 -103c-7 -50 -182 -231 -328 -308c58 -70 166 -180 241 -180c18 0 26 10 35 10c7 0 13 -10 13 -16c0 -38 -51 -60 -85 -60
c-98 0 -217 91 -288 188l-31 -122c-4 -17 -8 -38 -8 -55c0 -18 -1 -22 -22 -22c-25 0 -76 18 -76 48c0 34 63 245 73 281c30 110 63 252 74 366c0 5 0 12 -2 17c-3 3 -5 6 -5 10c0 13 17 15 26 15c32 0 81 -18 81 -55z" />
    <glyph glyph-name="L" unicode="L" 
d="M18 110c0 175 104 400 135 545c4 18 43 9 59 -3c19 -15 35 -32 29 -66c-61 -218 -130 -352 -130 -527c0 -32 7 -86 48 -86c78 0 159 88 232 88c25 0 42 -15 33 -40c-32 -18 -61 -42 -97 -61c-41 -22 -87 -39 -132 -39c-111 0 -177 82 -177 189z" />
    <glyph glyph-name="Lacute" unicode="&#x139;" 
d="M277 778c-5 -10 -13 -42 -31 -42c-25 0 -62 21 -62 51c0 52 112 126 165 126c17 0 40 -14 49 -28c0 -6 -16 -10 -20 -11c-42 -16 -86 -54 -101 -96zM18 110c0 175 104 400 135 545c4 18 43 9 59 -3c19 -15 35 -32 29 -66c-61 -218 -130 -352 -130 -527
c0 -32 7 -86 48 -86c78 0 159 88 232 88c25 0 42 -15 33 -40c-32 -18 -61 -42 -97 -61c-41 -22 -87 -39 -132 -39c-111 0 -177 82 -177 189z" />
    <glyph glyph-name="Lcaron" unicode="&#x13d;" 
d="M153 808c0 23 15 33 32 33c18 0 38 -10 48 -27c0 -14 0 -28 4 -44c50 35 61 43 86 65c3 4 7 6 11 6c17 0 41 -11 43 -30c-29 -39 -89 -110 -147 -110c-15 0 -37 4 -48 16c-21 21 -29 57 -29 91zM18 110c0 175 104 400 135 545c4 18 43 9 59 -3c19 -15 35 -32 29 -66
c-61 -218 -130 -352 -130 -527c0 -32 7 -86 48 -86c78 0 159 88 232 88c25 0 42 -15 33 -40c-32 -18 -61 -42 -97 -61c-41 -22 -87 -39 -132 -39c-111 0 -177 82 -177 189z" />
    <glyph glyph-name="Lslash" unicode="&#x141;" 
d="M212 652c19 -15 35 -32 29 -66c-23 -96 -47 -186 -68 -263c27 16 54 31 81 45c9 5 20 8 32 8c17 0 34 -6 44 -19c5 -12 -4 -22 -28 -31l1 1c-65 -38 -116 -69 -156 -94c-23 -78 -40 -133 -43 -147c-7 -30 -12 -59 -12 -81c0 -16 3 -28 10 -34c31 -25 229 77 281 106
c17 11 36 19 44 15c40 -31 -178 -198 -292 -195c-58 2 -113 54 -124 105c-2 9 -3 20 -3 32c0 33 7 75 17 123c-19 -10 -33 -17 -48 -21c-15 -5 -53 -7 -64 11c-5 6 3 17 25 32c35 20 71 43 108 66c37 142 90 305 107 410c4 18 43 9 59 -3z" />
    <glyph glyph-name="M" unicode="M" horiz-adv-x="662" 
d="M261 137c0 85 13 178 17 268c-58 -131 -140 -343 -265 -458c-15 -14 -36 -18 -44 -17c-11 0 -46 14 -60 33c-14 18 -11 25 5 29c11 3 30 18 39 26c115 106 279 428 313 553c16 38 2 89 45 89c34 0 71 -43 71 -77c0 -30 -5 -96 -9 -125c-10 -115 -29 -234 -29 -353
c59 115 146 299 205 414c28 55 58 111 75 127c23 22 76 -26 76 -62c0 -24 -18 -85 -24 -111c-27 -125 -78 -321 -78 -453c0 -23 -1 -46 8 -63c9 0 18 5 24 7c34 20 34 -44 0 -51c-89 -18 -117 71 -117 150c0 64 22 221 34 284c-35 -57 -140 -314 -191 -318
c-60 -5 -95 53 -95 108z" />
    <glyph glyph-name="M.salt" unicode="&#xe48c;" horiz-adv-x="788" 
d="M746 -65c-6 -14 -19 -25 -40 -25c-50 0 -74 51 -74 126c0 108 35 295 60 406c2 8 -60 -105 -69 -122c-32 -64 -90 -208 -120 -273c-10 -31 -9 -49 -48 -49c-41 0 -94 30 -94 79c0 133 64 341 89 485c-128 -167 -242 -420 -314 -618c0 -18 -18 -22 -32 -22
c-33 0 -70 24 -70 61c0 93 56 262 93 416c8 33 41 152 27 186c-32 -6 -72 -22 -96 -46c-5 -6 -12 -11 -20 -11c-21 0 -41 26 -38 47c6 41 78 87 124 82c52 -6 122 -53 122 -112c0 -72 -25 -128 -39 -200h1c35 83 154 289 226 305c48 11 125 -39 113 -100
c-17 -90 -68 -303 -79 -393c62 109 129 320 221 412c7 7 17 10 29 10c36 0 85 -31 85 -62c-31 -180 -96 -384 -86 -568c25 9 38 3 29 -14z" />
    <glyph glyph-name="N" unicode="N" horiz-adv-x="622" 
d="M430 -27c-38 72 -98 348 -122 453c-53 -221 -276 -587 -397 -574c-23 4 -54 22 -67 46c-9 19 -6 26 10 28c12 2 33 10 45 17c123 67 354 394 353 637c0 29 38 42 68 42c17 0 30 -4 33 -11c30 -155 74 -320 114 -487c36 116 155 468 213 539c13 15 32 17 52 16
c23 -2 48 -26 47 -52c-2 -10 -4 -10 -13 -9c-7 1 -13 3 -19 6c-89 -158 -172 -442 -217 -620c-2 -13 -5 -28 -6 -41c0 -17 -7 -25 -25 -24c-17 0 -54 22 -69 34z" />
    <glyph glyph-name="N.salt" unicode="&#xe48d;" horiz-adv-x="536" 
d="M462 -50c20 0 34 -16 17 -33c-6 -7 -35 -8 -45 -7c-62 5 -82 64 -82 143c0 154 103 475 100 530c-28 -22 -51 -46 -74 -73c-95 -113 -272 -413 -314 -532c-5 -16 -16 -22 -28 -22c-23 0 -51 26 -54 63c26 97 82 283 110 380c15 52 48 173 36 208c-26 12 -48 0 -70 -14
c-13 -8 -18 -24 -37 -24c-25 0 -33 33 -28 53c7 25 55 60 88 61c57 2 139 -49 139 -118c0 -45 -35 -162 -45 -197c72 104 177 283 271 284c50 1 97 -49 97 -106c0 -45 -15 -95 -25 -133c-22 -94 -79 -277 -79 -380c0 -42 5 -83 23 -83z" />
    <glyph glyph-name="Nacute" unicode="&#x143;" horiz-adv-x="624" 
d="M510 749c-5 -10 -13 -42 -31 -42c-25 0 -62 21 -62 51c0 52 112 126 165 126c17 0 40 -14 49 -28c0 -6 -16 -10 -20 -11c-42 -16 -86 -54 -101 -96zM430 -27c-38 72 -98 348 -122 453c-53 -221 -276 -587 -397 -574c-23 4 -54 22 -67 46c-9 19 -6 26 10 28
c12 2 33 10 45 17c123 67 354 394 353 637c0 29 38 42 68 42c17 0 30 -4 33 -11c30 -155 74 -320 114 -487c36 116 155 468 213 539c13 15 32 17 52 16c23 -2 48 -26 47 -52c-2 -10 -4 -10 -13 -9c-7 1 -13 3 -19 6c-89 -158 -172 -442 -217 -620c-2 -13 -5 -28 -6 -41
c0 -17 -7 -25 -25 -24c-17 0 -54 22 -69 34z" />
    <glyph glyph-name="Ncaron" unicode="&#x147;" horiz-adv-x="634" 
d="M393 799c0 23 15 33 32 33c18 0 38 -10 48 -27c0 -14 0 -28 4 -44c50 35 61 43 86 65c3 4 7 6 11 6c17 0 41 -11 43 -30c-29 -39 -89 -110 -147 -110c-15 0 -37 4 -48 16c-21 21 -29 57 -29 91zM430 -27c-38 72 -98 348 -122 453c-53 -221 -276 -587 -397 -574
c-23 4 -54 22 -67 46c-9 19 -6 26 10 28c12 2 33 10 45 17c123 67 354 394 353 637c0 29 38 42 68 42c17 0 30 -4 33 -11c30 -155 74 -320 114 -487c36 116 155 468 213 539c13 15 32 17 52 16c23 -2 48 -26 47 -52c-2 -10 -4 -10 -13 -9c-7 1 -13 3 -19 6
c-89 -158 -172 -442 -217 -620c-2 -13 -5 -28 -6 -41c0 -17 -7 -25 -25 -24c-17 0 -54 22 -69 34z" />
    <glyph glyph-name="Ntilde" unicode="&#xd1;" horiz-adv-x="557" 
d="M365 -7c-38 72 -60 339 -70 444c-66 -191 -214 -406 -305 -493c-13 -14 -24 -15 -32 -16c-11 0 -58 11 -71 30c-14 16 -13 24 2 30c13 2 31 17 39 27c72 70 262 327 313 545c11 51 -6 92 49 90c11 0 62 -1 68 -19c30 -155 24 -303 56 -473c36 116 135 457 193 528
c13 15 33 19 53 18c23 -2 55 -31 54 -57c-2 -10 -4 -10 -13 -9c-7 1 -13 3 -19 6c-89 -158 -172 -442 -217 -620c-2 -13 -5 -28 -6 -41c0 -17 -7 -25 -25 -24c-17 0 -54 22 -69 34zM339 772c31 42 50 56 84 55c40 -1 49 -25 84 -51c7 4 18 13 18 23c0 15 9 28 31 19
c12 -5 20 -14 25 -23c10 -39 -22 -77 -70 -77c-18 0 -63 19 -81 53c-17 -16 -26 -44 -44 -44c-21 0 -45 22 -47 45z" />
    <glyph glyph-name="O" unicode="O" horiz-adv-x="513" 
d="M42 339c4 126 100 274 241 284c158 13 230 -116 223 -275c-9 -179 -121 -414 -306 -413c-50 0 -112 15 -151 73c-31 45 -42 102 -42 158c0 66 16 132 35 173zM105 221c-5 -19 -7 -43 -7 -68c0 -72 22 -153 78 -163c131 -21 213 224 226 326c3 25 5 51 5 76
c0 100 -30 185 -117 173c-71 -14 -120 -70 -141 -145c-6 -22 -11 -51 -11 -80c0 -46 13 -91 54 -108c33 -10 -11 -28 -26 -28c-23 -2 -42 4 -61 17z" />
    <glyph glyph-name="OE" unicode="&#x152;" horiz-adv-x="656" 
d="M474 458c65 13 133 27 201 27c29 0 41 0 61 -20c1 -3 6 -13 6 -16c0 -10 -15 -21 -25 -21c-9 0 -18 5 -26 10c-57 0 -117 -12 -173 -21h5c-30 -61 -64 -124 -90 -188c41 5 82 6 123 6c19 0 72 2 72 -31c0 -13 -7 -22 -20 -22c-22 0 -44 6 -70 6c-43 0 -87 -3 -124 -7
c-11 -21 -33 -95 -33 -153c0 -42 11 -75 46 -75c49 0 148 49 182 87c5 5 13 7 20 7c14 0 38 -4 38 -21c0 -43 -107 -95 -145 -110h1c-24 -10 -51 -13 -77 -13c-44 0 -92 16 -123 49c-25 -44 -81 -76 -132 -76c-126 0 -167 125 -167 235c0 141 84 427 252 427
c59 0 122 -32 156 -80c3 2 15 6 18 6c5 0 20 -1 24 -6zM294 190c-5 8 -2 24 36 32c27 72 26 75 26 78c0 9 4 17 7 25c4 12 4 30 4 42c0 38 -14 117 -64 117c-25 0 -50 -24 -67 -40h1c-82 -84 -124 -236 -124 -359c0 -32 11 -178 54 -178c44 0 116 125 127 161
c10 33 15 67 27 100c-7 5 -19 12 -27 22z" />
    <glyph glyph-name="Oacute" unicode="&#xd3;" horiz-adv-x="513" 
d="M42 339c4 126 100 274 241 284c158 13 230 -116 223 -275c-9 -179 -121 -414 -306 -413c-50 0 -112 15 -151 73c-31 45 -42 102 -42 158c0 66 16 132 35 173zM105 221c-5 -19 -7 -43 -7 -68c0 -72 22 -153 78 -163c131 -21 213 224 226 326c3 25 5 51 5 76
c0 100 -30 185 -117 173c-71 -14 -120 -70 -141 -145c-6 -22 -11 -51 -11 -80c0 -46 13 -91 54 -108c33 -10 -11 -28 -26 -28c-23 -2 -42 4 -61 17zM337 731c-5 -10 -13 -42 -31 -42c-25 0 -62 21 -62 51c0 52 112 126 165 126c17 0 40 -14 49 -28c0 -6 -16 -10 -20 -11
c-42 -16 -86 -54 -101 -96z" />
    <glyph glyph-name="Ocircumflex" unicode="&#xd4;" horiz-adv-x="513" 
d="M42 339c4 126 100 274 241 284c158 13 230 -116 223 -275c-9 -179 -121 -414 -306 -413c-50 0 -112 15 -151 73c-31 45 -42 102 -42 158c0 66 16 132 35 173zM105 221c-5 -19 -7 -43 -7 -68c0 -72 22 -153 78 -163c131 -21 213 224 226 326c3 25 5 51 5 76
c0 100 -30 185 -117 173c-71 -14 -120 -70 -141 -145c-6 -22 -11 -51 -11 -80c0 -46 13 -91 54 -108c33 -10 -11 -28 -26 -28c-23 -2 -42 4 -61 17zM208 733c0 12 21 13 29 13c22 0 62 44 81 62c13 14 10 31 33 31c32 0 48 -14 60 -35c12 -20 36 -76 46 -103
c7 -3 19 -8 19 -16c0 -4 -1 -7 -3 -9c-8 -5 -20 -11 -34 -11c-43 0 -67 51 -85 83c-20 -20 -61 -59 -93 -59c-19 0 -53 27 -53 44z" />
    <glyph glyph-name="Odieresis" unicode="&#xd6;" horiz-adv-x="513" 
d="M42 339c4 126 100 274 241 284c158 13 230 -116 223 -275c-9 -179 -121 -414 -306 -413c-50 0 -112 15 -151 73c-31 45 -42 102 -42 158c0 66 16 132 35 173zM105 221c-5 -19 -7 -43 -7 -68c0 -72 22 -153 78 -163c131 -21 213 224 226 326c3 25 5 51 5 76
c0 100 -30 185 -117 173c-71 -14 -120 -70 -141 -145c-6 -22 -11 -51 -11 -80c0 -46 13 -91 54 -108c33 -10 -11 -28 -26 -28c-23 -2 -42 4 -61 17zM209 797c7 13 22 19 38 19c28 0 60 -18 60 -49c0 -30 -22 -63 -57 -63c-18 0 -35 6 -44 20c-4 12 -7 24 -7 35
c0 12 3 24 10 38zM410 819c31 0 60 -20 60 -54c0 -14 -4 -27 -11 -35c-20 -22 -22 -22 -51 -22c-34 0 -56 39 -46 69c11 25 18 42 48 42z" />
    <glyph glyph-name="Ograve" unicode="&#xd2;" horiz-adv-x="513" 
d="M42 339c4 126 100 274 241 284c158 13 230 -116 223 -275c-9 -179 -121 -414 -306 -413c-50 0 -112 15 -151 73c-31 45 -42 102 -42 158c0 66 16 132 35 173zM105 221c-5 -19 -7 -43 -7 -68c0 -72 22 -153 78 -163c131 -21 213 224 226 326c3 25 5 51 5 76
c0 100 -30 185 -117 173c-71 -14 -120 -70 -141 -145c-6 -22 -11 -51 -11 -80c0 -46 13 -91 54 -108c33 -10 -11 -28 -26 -28c-23 -2 -42 4 -61 17zM280 809c12 -41 36 -81 78 -101c10 1 17 -1 23 -10c8 -19 -29 -24 -46 -22c-47 7 -134 59 -141 119c-2 20 30 32 46 32
c13 0 36 -2 40 -18z" />
    <glyph glyph-name="Ohungarumlaut" unicode="&#x150;" horiz-adv-x="513" 
d="M42 339c4 126 100 274 241 284c158 13 230 -116 223 -275c-9 -179 -121 -414 -306 -413c-50 0 -112 15 -151 73c-31 45 -42 102 -42 158c0 66 16 132 35 173zM105 221c-5 -19 -7 -43 -7 -68c0 -72 22 -153 78 -163c131 -21 213 224 226 326c3 25 5 51 5 76
c0 100 -30 185 -117 173c-71 -14 -120 -70 -141 -145c-6 -22 -11 -51 -11 -80c0 -46 13 -91 54 -108c33 -10 -11 -28 -26 -28c-23 -2 -42 4 -61 17zM300 714c-5 -10 -13 -42 -31 -42c-25 0 -62 21 -62 51c0 52 112 126 165 126c17 0 40 -14 49 -28c0 -6 -16 -10 -20 -11
c-42 -16 -86 -54 -101 -96zM450 704c-5 -10 -13 -42 -31 -42c-25 0 -62 21 -62 51c0 52 112 126 165 126c17 0 40 -14 49 -28c0 -6 -16 -10 -20 -11c-42 -16 -86 -54 -101 -96z" />
    <glyph glyph-name="Oslash" unicode="&#xd8;" horiz-adv-x="513" 
d="M42 339c4 126 100 274 241 284c45 4 84 -4 115 -22c40 49 80 93 100 93c15 0 51 -12 51 -33c0 -6 -4 -12 -8 -17l-5 -1l-74 -101c33 -50 47 -119 44 -194c-9 -179 -121 -414 -306 -413c-28 0 -60 5 -90 19c-4 -13 -6 -24 -6 -33c0 -7 3 -14 3 -21c0 -17 -12 -18 -26 -18
c-36 0 -59 34 -59 68c0 19 7 44 18 73c-24 43 -33 95 -33 145c0 66 16 130 35 171zM378 428c-31 -46 -177 -274 -243 -413c11 -13 25 -22 41 -25c131 -21 213 224 226 326c3 25 5 51 5 75s-2 47 -6 69zM306 476c7 10 26 39 51 73c-17 13 -39 20 -67 16
c-71 -14 -120 -70 -141 -145c-6 -22 -11 -51 -11 -79c0 -31 6 -63 22 -85c59 98 121 188 146 220zM105 221c-6 -22 -8 -48 -8 -76c11 21 23 41 35 62c-10 3 -18 8 -27 14z" />
    <glyph glyph-name="Otilde" unicode="&#xd5;" horiz-adv-x="513" 
d="M42 339c4 126 100 274 241 284c158 13 230 -116 223 -275c-9 -179 -121 -414 -306 -413c-50 0 -112 15 -151 73c-31 45 -42 102 -42 158c0 66 16 132 35 173zM105 221c-5 -19 -7 -43 -7 -68c0 -72 22 -153 78 -163c131 -21 213 224 226 326c3 25 5 51 5 76
c0 100 -30 185 -117 173c-71 -14 -120 -70 -141 -145c-6 -22 -11 -51 -11 -80c0 -46 13 -91 54 -108c33 -10 -11 -28 -26 -28c-23 -2 -42 4 -61 17zM219 729c31 42 50 56 84 55c40 -1 49 -25 84 -51c7 4 18 13 18 23c0 15 9 28 31 19c12 -5 20 -14 25 -23
c10 -39 -22 -77 -70 -77c-18 0 -63 19 -81 53c-17 -16 -26 -44 -44 -44c-21 0 -45 22 -47 45z" />
    <glyph glyph-name="P" unicode="P" horiz-adv-x="492" 
d="M546 422c-39 -112 -194 -269 -343 -269c-11 0 -23 1 -34 3l-34 -132c-5 -25 -9 -50 -7 -64c1 -11 -13 -15 -32 -13c-22 1 -67 21 -67 48c0 14 6 37 73 281c21 77 42 155 57 234c-66 -29 -126 -65 -131 -86c-6 -21 -17 -11 -18 -11c-16 7 -27 42 -27 74c0 19 4 37 14 47
c41 34 106 62 177 79c2 20 2 40 0 46c-13 13 2 27 21 25c11 -1 64 -5 79 -41c1 -3 2 -8 2 -15c14 1 28 2 42 2c61 0 117 -11 159 -35c53 -31 74 -92 74 -138c0 -14 -2 -25 -5 -35zM203 290l-19 -75c147 34 309 210 296 295c-7 29 -73 46 -139 46c-23 0 -45 -2 -65 -6l-12 -3
c-10 -53 -30 -134 -61 -257z" />
    <glyph glyph-name="Q" unicode="Q" horiz-adv-x="531" 
d="M538 -24c18 -10 26 -62 17 -82c-6 -15 -15 -11 -20 -7c-11 13 -169 36 -313 48c-35 -8 -60 -12 -86 -12c-24 0 -50 3 -84 10c-6 2 -10 6 -12 10c-7 8 -7 52 15 57c32 7 69 10 138 10h31c105 61 170 189 184 306c3 24 4 48 4 72c0 109 -31 212 -121 205
c-72 -12 -131 -90 -154 -202c-7 -33 -13 -75 -13 -117c0 -72 16 -144 70 -173c41 -18 -13 -42 -32 -41c-95 -3 -139 132 -138 235c3 195 114 345 258 349c162 4 232 -129 230 -293c-1 -110 -60 -264 -169 -346c86 -6 175 -16 195 -29z" />
    <glyph glyph-name="R" unicode="R" horiz-adv-x="487" 
d="M496 -34c-81 -14 -238 62 -332 174l-29 -116c-5 -25 -9 -50 -7 -64c1 -11 -13 -15 -32 -13c-22 1 -72 21 -67 48c9 52 107 445 130 515c-66 -29 -126 -65 -131 -86c-6 -21 -17 -11 -18 -11c-16 7 -27 42 -27 74c0 19 4 37 14 47c41 34 106 62 177 79c2 20 2 40 0 46
c-13 13 2 27 21 25c11 -1 64 -5 79 -41c1 -3 2 -8 2 -15c14 1 28 2 42 2c61 0 117 -11 159 -35c53 -31 74 -92 74 -138c0 -14 -2 -25 -5 -35c-35 -99 -157 -229 -287 -256c89 -91 213 -164 256 -136c8 5 19 8 24 -12c0 -26 -19 -49 -43 -52zM192 250l13 -20
c141 42 287 199 275 280c-7 29 -73 46 -139 46c-23 0 -45 -2 -65 -6l-12 -3c-10 -53 -30 -134 -72 -297z" />
    <glyph glyph-name="Racute" unicode="&#x154;" horiz-adv-x="487" 
d="M496 -34c-81 -14 -238 62 -332 174l-29 -116c-5 -25 -9 -50 -7 -64c1 -11 -13 -15 -32 -13c-22 1 -67 21 -67 48c0 14 6 37 73 281c21 77 42 155 57 234c-66 -29 -126 -65 -131 -86c-6 -21 -17 -11 -18 -11c-16 7 -27 42 -27 74c0 19 4 37 14 47c41 34 106 62 177 79
c2 20 2 40 0 46c-13 13 2 27 21 25c11 -1 64 -5 79 -41c1 -3 2 -8 2 -15c14 1 28 2 42 2c61 0 117 -11 159 -35c53 -31 74 -92 74 -138c0 -14 -2 -25 -5 -35c-35 -99 -157 -229 -287 -256c89 -91 213 -164 256 -136c8 5 19 8 24 -12c0 -26 -19 -49 -43 -52zM203 290l-11 -40
l13 -20c141 42 287 199 275 280c-7 29 -73 46 -139 46c-23 0 -45 -2 -65 -6l-12 -3c-10 -53 -30 -134 -61 -257zM321 775c-5 -10 -13 -42 -31 -42c-25 0 -62 21 -62 51c0 52 112 126 165 126c17 0 40 -14 49 -28c0 -6 -16 -10 -20 -11c-42 -16 -86 -54 -101 -96z" />
    <glyph glyph-name="Rcaron" unicode="&#x158;" horiz-adv-x="487" 
d="M496 -34c-81 -14 -238 62 -332 174l-29 -116c-5 -25 -9 -50 -7 -64c1 -11 -13 -15 -32 -13c-22 1 -67 21 -67 48c0 14 6 37 73 281c21 77 42 155 57 234c-66 -29 -126 -65 -131 -86c-6 -21 -17 -11 -18 -11c-16 7 -27 42 -27 74c0 19 4 37 14 47c41 34 106 62 177 79
c2 20 2 40 0 46c-13 13 2 27 21 25c11 -1 64 -5 79 -41c1 -3 2 -8 2 -15c14 1 28 2 42 2c61 0 117 -11 159 -35c53 -31 74 -92 74 -138c0 -14 -2 -25 -5 -35c-35 -99 -157 -229 -287 -256c89 -91 213 -164 256 -136c8 5 19 8 24 -12c0 -26 -19 -49 -43 -52zM203 290l-11 -40
l13 -20c141 42 287 199 275 280c-7 29 -73 46 -139 46c-23 0 -45 -2 -65 -6l-12 -3c-10 -53 -30 -134 -61 -257zM245 826c0 23 15 33 32 33c18 0 38 -10 48 -27c0 -14 0 -28 4 -44c50 35 61 43 86 65c3 4 7 6 11 6c17 0 41 -11 43 -30c-29 -39 -89 -110 -147 -110
c-15 0 -37 4 -48 16c-21 21 -29 57 -29 91z" />
    <glyph glyph-name="S" unicode="S" horiz-adv-x="389" 
d="M41 368c-2 12 -4 24 -4 35c0 156 223 277 336 277c14 0 26 -2 36 -6c26 -13 50 -48 50 -80c0 -12 -4 -23 -11 -32c-11 -13 -29 -7 -32 0c-4 4 4 18 -10 28c-100 -16 -279 -113 -288 -205c-5 -34 70 -73 139 -114c76 -43 110 -108 110 -160c0 -15 -3 -29 -9 -42
c-29 -67 -203 -146 -286 -146c-15 0 -28 3 -35 9c-15 12 -26 45 -25 62c3 27 22 26 26 11c8 -29 251 71 259 134c2 22 -49 45 -80 58c-63 29 -158 89 -176 171z" />
    <glyph glyph-name="Sacute" unicode="&#x15a;" horiz-adv-x="389" 
d="M41 368c-2 12 -4 24 -4 35c0 156 223 277 336 277c14 0 26 -2 36 -6c26 -13 50 -48 50 -80c0 -12 -4 -23 -11 -32c-11 -13 -29 -7 -32 0c-4 4 4 18 -10 28c-100 -16 -279 -113 -288 -205c-5 -34 70 -73 139 -114c76 -43 110 -108 110 -160c0 -15 -3 -29 -9 -42
c-29 -67 -203 -146 -286 -146c-15 0 -28 3 -35 9c-15 12 -26 45 -25 62c3 27 22 26 26 11c8 -29 251 71 259 134c2 22 -49 45 -80 58c-63 29 -158 89 -176 171zM280 761c-5 -10 -13 -42 -31 -42c-25 0 -62 21 -62 51c0 52 112 126 165 126c17 0 40 -14 49 -28
c0 -6 -16 -10 -20 -11c-42 -16 -86 -54 -101 -96z" />
    <glyph glyph-name="Scaron" unicode="&#x160;" horiz-adv-x="389" 
d="M206 841c0 23 15 33 32 33c18 0 38 -10 48 -27c0 -14 0 -28 4 -44c50 35 61 43 86 65c3 4 7 6 11 6c17 0 41 -11 43 -30c-29 -39 -89 -110 -147 -110c-15 0 -37 4 -48 16c-21 21 -29 57 -29 91zM41 368c-2 12 -4 24 -4 35c0 156 223 277 336 277c14 0 26 -2 36 -6
c26 -13 50 -48 50 -80c0 -12 -4 -23 -11 -32c-11 -13 -29 -7 -32 0c-4 4 4 18 -10 28c-100 -16 -279 -113 -288 -205c-5 -34 70 -73 139 -114c76 -43 110 -108 110 -160c0 -15 -3 -29 -9 -42c-29 -67 -203 -146 -286 -146c-15 0 -28 3 -35 9c-15 12 -26 45 -25 62
c3 27 22 26 26 11c8 -29 251 71 259 134c2 22 -49 45 -80 58c-63 29 -158 89 -176 171z" />
    <glyph glyph-name="Scedilla" unicode="&#x15e;" horiz-adv-x="389" 
d="M212 -110c-1 8 -9 32 2 39c7 5 20 8 32 8c14 0 29 -4 35 -14c21 -33 -19 -125 -53 -146c-10 -6 -31 -7 -42 -2c-2 4 6 13 8 15c15 19 22 45 22 70c0 11 -2 20 -4 30zM41 368c-2 12 -4 24 -4 35c0 156 223 277 336 277c14 0 26 -2 36 -6c26 -13 50 -48 50 -80
c0 -12 -4 -23 -11 -32c-11 -13 -29 -7 -32 0c-4 4 4 18 -10 28c-100 -16 -279 -113 -288 -205c-5 -34 70 -73 139 -114c76 -43 110 -108 110 -160c0 -15 -3 -29 -9 -42c-29 -67 -203 -146 -286 -146c-15 0 -28 3 -35 9c-15 12 -26 45 -25 62c3 27 22 26 26 11
c8 -29 251 71 259 134c2 22 -49 45 -80 58c-63 29 -158 89 -176 171z" />
    <glyph glyph-name="T" unicode="T" horiz-adv-x="280" 
d="M-61 577c90 39 291 75 454 75c90 0 169 -11 211 -38c20 -13 26 -44 13 -67c-14 -15 -22 -7 -27 1c-10 17 -56 24 -121 24c-55 0 -123 -5 -191 -13c16 -10 28 -28 26 -43c-42 -162 -125 -380 -138 -557c-2 -28 -1 -39 3 -44c9 -10 2 -20 -17 -19c-28 3 -60 25 -73 51
c-7 23 -1 69 11 123c5 23 14 74 60 233c19 64 52 173 77 249c-140 -20 -272 -50 -293 -73c-4 -4 -18 -3 -20 13c-2 23 -4 72 25 85z" />
    <glyph glyph-name="Tcaron" unicode="&#x164;" horiz-adv-x="280" 
d="M-61 577c90 39 291 75 454 75c90 0 169 -11 211 -38c20 -13 26 -44 13 -67c-14 -15 -22 -7 -27 1c-10 17 -56 24 -121 24c-55 0 -123 -5 -191 -13c16 -10 28 -28 26 -43c-42 -162 -125 -380 -138 -557c-2 -28 -1 -39 3 -44c9 -10 2 -20 -17 -19c-28 3 -60 25 -73 51
c-7 23 -1 69 11 123c5 23 14 74 60 233c19 64 52 173 77 249c-140 -20 -272 -50 -293 -73c-4 -4 -18 -3 -20 13c-2 23 -4 72 25 85zM218 825c0 23 15 33 32 33c18 0 38 -10 48 -27c0 -14 0 -28 4 -44c50 35 61 43 86 65c3 4 7 6 11 6c17 0 41 -11 43 -30
c-29 -39 -89 -110 -147 -110c-15 0 -37 4 -48 16c-21 21 -29 57 -29 91z" />
    <glyph glyph-name="U" unicode="U" horiz-adv-x="567" 
d="M196 693c29 0 88 -29 86 -60c-17 -67 -67 -180 -90 -246c-21 -60 -53 -154 -74 -240c-11 -47 -18 -85 -18 -109c0 -21 5 -32 16 -32c17 0 49 27 100 86c102 122 208 293 252 415c11 27 12 29 22 51c15 32 90 -27 77 -58c-22 -47 -41 -85 -58 -131
c-25 -65 -44 -157 -44 -229c0 -41 6 -75 21 -95c32 7 106 107 134 190c3 8 9 19 17 20c19 3 37 -14 27 -59c-16 -71 -78 -149 -91 -163c-21 -22 -51 -34 -80 -34s-57 12 -76 38c-30 40 -41 101 -40 145c-44 -66 -158 -248 -246 -248c-65 0 -122 58 -122 126
c0 101 66 281 100 377c14 43 74 185 74 229c0 6 -2 11 -2 17c0 8 8 10 15 10z" />
    <glyph glyph-name="Uacute" unicode="&#xda;" horiz-adv-x="567" 
d="M206 693c29 0 78 -29 76 -60c-17 -67 -67 -180 -90 -246c-21 -60 -53 -154 -74 -240c-11 -47 -18 -85 -18 -109c0 -21 5 -32 16 -32c17 0 49 27 100 86c102 122 208 293 252 415c11 27 12 29 22 51c15 32 90 -27 77 -58c-22 -47 -41 -85 -58 -131
c-25 -65 -44 -157 -44 -229c0 -41 6 -75 21 -95c32 7 106 107 134 190c3 8 9 19 17 20c19 3 37 -14 27 -59c-16 -71 -78 -149 -91 -163c-21 -22 -51 -34 -80 -34s-57 12 -76 38c-30 40 -41 101 -40 145c-44 -66 -158 -248 -246 -248c-65 0 -112 58 -112 126
c0 101 66 281 100 377c14 43 74 185 74 229c0 6 -2 11 -2 17c0 8 8 10 15 10zM450 713c-5 -10 -13 -42 -31 -42c-25 0 -62 21 -62 51c0 52 112 126 165 126c17 0 40 -14 49 -28c0 -6 -16 -10 -20 -11c-42 -16 -86 -54 -101 -96z" />
    <glyph glyph-name="Ucircumflex" unicode="&#xdb;" horiz-adv-x="567" 
d="M206 693c29 0 78 -29 76 -60c-17 -67 -67 -180 -90 -246c-21 -60 -53 -154 -74 -240c-11 -47 -18 -85 -18 -109c0 -21 5 -32 16 -32c17 0 49 27 100 86c102 122 208 293 252 415c11 27 12 29 22 51c15 32 90 -27 77 -58c-22 -47 -41 -85 -58 -131
c-25 -65 -44 -157 -44 -229c0 -41 6 -75 21 -95c32 7 106 107 134 190c3 8 9 19 17 20c19 3 37 -14 27 -59c-16 -71 -78 -149 -91 -163c-21 -22 -51 -34 -80 -34s-57 12 -76 38c-30 40 -41 101 -40 145c-44 -66 -158 -248 -246 -248c-65 0 -112 58 -112 126
c0 101 66 281 100 377c14 43 74 185 74 229c0 6 -2 11 -2 17c0 8 8 10 15 10zM298 773c0 12 21 13 29 13c22 0 62 44 81 62c13 14 10 31 33 31c32 0 48 -14 60 -35c12 -20 36 -76 46 -103c7 -3 19 -8 19 -16c0 -4 -1 -7 -3 -9c-8 -5 -20 -11 -34 -11c-43 0 -67 51 -85 83
c-20 -20 -61 -59 -93 -59c-19 0 -53 27 -53 44z" />
    <glyph glyph-name="Udieresis" unicode="&#xdc;" horiz-adv-x="567" 
d="M206 693c29 0 78 -29 76 -60c-17 -67 -67 -180 -90 -246c-21 -60 -53 -154 -74 -240c-11 -47 -18 -85 -18 -109c0 -21 5 -32 16 -32c17 0 49 27 100 86c102 122 208 293 252 415c11 27 12 29 22 51c15 32 90 -27 77 -58c-22 -47 -41 -85 -58 -131
c-25 -65 -44 -157 -44 -229c0 -41 6 -75 21 -95c32 7 106 107 134 190c3 8 9 19 17 20c19 3 37 -14 27 -59c-16 -71 -78 -149 -91 -163c-21 -22 -51 -34 -80 -34s-57 12 -76 38c-30 40 -41 101 -40 145c-44 -66 -158 -248 -246 -248c-65 0 -112 58 -112 126
c0 101 66 281 100 377c14 43 74 185 74 229c0 6 -2 11 -2 17c0 8 8 10 15 10zM368 820c37 0 52 -23 52 -48c0 -30 -22 -63 -57 -63c-18 0 -35 6 -44 20c-5 16 -8 28 -8 43c0 9 7 22 11 30c7 13 18 14 31 16c5 1 10 2 15 2zM523 824c7 0 40 -11 45 -15h-1
c11 -8 16 -24 16 -39c0 -14 -4 -27 -11 -35c-20 -22 -22 -22 -51 -22c-34 0 -56 39 -46 69c11 25 18 42 48 42z" />
    <glyph glyph-name="Ugrave" unicode="&#xd9;" horiz-adv-x="567" 
d="M206 693c29 0 78 -29 76 -60c-17 -67 -67 -180 -90 -246c-21 -60 -53 -154 -74 -240c-11 -47 -18 -85 -18 -109c0 -21 5 -32 16 -32c17 0 49 27 100 86c102 122 208 293 252 415c11 27 12 29 22 51c15 32 90 -27 77 -58c-22 -47 -41 -85 -58 -131
c-25 -65 -44 -157 -44 -229c0 -41 6 -75 21 -95c32 7 106 107 134 190c3 8 9 19 17 20c19 3 37 -14 27 -59c-16 -71 -78 -149 -91 -163c-21 -22 -51 -34 -80 -34s-57 12 -76 38c-30 40 -41 101 -40 145c-44 -66 -158 -248 -246 -248c-65 0 -112 58 -112 126
c0 101 66 281 100 377c14 43 74 185 74 229c0 6 -2 11 -2 17c0 8 8 10 15 10zM388 805c12 -41 36 -81 78 -101c10 1 17 -1 23 -10c8 -19 -29 -24 -46 -22c-47 7 -134 59 -141 119c-2 20 30 32 46 32c13 0 36 -2 40 -18z" />
    <glyph glyph-name="Uhungarumlaut" unicode="&#x170;" horiz-adv-x="567" 
d="M196 693c29 0 88 -29 86 -60c-17 -67 -67 -180 -90 -246c-21 -60 -53 -154 -74 -240c-11 -47 -18 -85 -18 -109c0 -21 5 -32 16 -32c17 0 49 27 100 86c102 122 208 293 252 415c11 27 12 29 22 51c15 32 90 -27 77 -58c-22 -47 -41 -85 -58 -131
c-25 -65 -44 -157 -44 -229c0 -41 6 -75 21 -95c32 7 106 107 134 190c3 8 9 19 17 20c19 3 37 -14 27 -59c-16 -71 -78 -149 -91 -163c-21 -22 -51 -34 -80 -34s-57 12 -76 38c-30 40 -41 101 -40 145c-44 -66 -158 -248 -246 -248c-65 0 -122 58 -122 126
c0 101 66 281 100 377c14 43 74 185 74 229c0 6 -2 11 -2 17c0 8 8 10 15 10zM390 725c-5 -10 -13 -42 -31 -42c-25 0 -62 21 -62 51c0 52 112 126 165 126c17 0 40 -14 49 -28c0 -6 -16 -10 -20 -11c-42 -16 -86 -54 -101 -96zM540 715c-5 -10 -13 -42 -31 -42
c-25 0 -62 21 -62 51c0 52 112 126 165 126c17 0 40 -14 49 -28c0 -6 -16 -10 -20 -11c-42 -16 -86 -54 -101 -96z" />
    <glyph glyph-name="Uring" unicode="&#x16e;" horiz-adv-x="567" 
d="M197 693c29 0 87 -29 85 -60c-17 -67 -67 -180 -90 -246c-21 -60 -53 -154 -74 -240c-11 -47 -18 -85 -18 -109c0 -21 5 -32 16 -32c17 0 49 27 100 86c102 122 208 293 252 415c11 27 12 29 22 51c15 32 90 -27 77 -58c-22 -47 -41 -85 -58 -131
c-25 -65 -44 -157 -44 -229c0 -41 6 -75 21 -95c32 7 106 107 134 190c3 8 9 19 17 20c19 3 37 -14 27 -59c-16 -71 -78 -149 -91 -163c-21 -22 -51 -34 -80 -34s-57 12 -76 38c-30 40 -41 101 -40 145c-44 -66 -158 -248 -246 -248c-65 0 -121 58 -121 126
c0 101 66 281 100 377c14 43 74 185 74 229c0 6 -2 11 -2 17c0 8 8 10 15 10zM342 753c-5 43 38 84 81 84c18 0 39 1 54 -11c24 -19 39 -47 39 -78c0 -44 -50 -79 -95 -79c-51 0 -79 35 -79 84zM428 727c14 6 19 18 19 32c0 6 -6 13 -8 19c-16 0 -34 -11 -35 -24
c-2 -20 9 -30 24 -27z" />
    <glyph glyph-name="V" unicode="V" horiz-adv-x="368" 
d="M104 541c9 -39 9 -77 11 -108c7 -320 7 -357 28 -429c113 213 191 500 286 634c9 12 37 20 61 20c13 0 25 -2 32 -8h-1c9 -9 8 -21 -6 -32h1c-99 -173 -161 -352 -250 -533c-32 -55 -55 -111 -83 -126c-9 -6 -23 -8 -40 -4c-41 5 -86 38 -96 82c-14 67 -16 150 -32 442
l-5 49c-1 12 -6 24 -10 31s9 11 31 12c28 2 53 -9 73 -30z" />
    <glyph glyph-name="W" unicode="W" horiz-adv-x="683" 
d="M9 46c-11 131 97 374 153 560c-5 2 -8 8 -7 13c1 10 18 9 26 7c28 -9 68 -47 65 -78c-22 -140 -143 -411 -143 -525c0 -14 2 -25 6 -34c124 68 198 311 257 443c11 22 17 17 48 7c15 -6 57 -39 48 -59c-13 -44 -19 -94 -19 -143c0 -78 17 -155 53 -209
c46 42 132 471 184 566c9 14 28 24 54 26c20 3 44 -4 62 -16c9 -3 9 -23 0 -25c-17 -1 -55 -122 -70 -170c-40 -129 -93 -332 -146 -411c-22 -21 -56 -35 -90 -35c-27 0 -54 9 -73 29c-43 45 -63 129 -74 181c-38 -95 -111 -216 -172 -239c-12 -5 -25 -7 -37 -7
c-61 0 -119 52 -125 119z" />
    <glyph glyph-name="X" unicode="X" horiz-adv-x="539" 
d="M608 540c-95 -78 -189 -164 -279 -256c18 -92 53 -265 120 -285c40 5 110 137 143 236c3 8 9 19 17 20c19 3 37 -14 27 -59c-16 -71 -78 -179 -91 -193c-29 -30 -74 -42 -101 -47c-101 0 -149 75 -190 246c-59 -66 -115 -136 -167 -209c1 -1 15 -6 14 -13
c-1 -2 -3 -4 -5 -6c-23 -17 -33 -32 -48 -55c-9 -22 -82 12 -76 48c3 25 78 126 119 176c45 54 91 106 142 158c-17 90 -49 269 -74 283c-33 -5 -72 -47 -78 -81c-5 -20 1 -32 -15 -35c-26 -4 -49 28 -57 50c5 52 57 104 104 111c54 10 137 -16 155 -75
c10 -34 18 -70 42 -176c52 51 108 101 169 154c51 44 104 83 129 86c9 1 18 -1 25 -2c10 -1 51 -14 47 -31c-3 -4 -13 -5 -17 -6c-25 -18 -37 -25 -55 -39z" />
    <glyph glyph-name="Y" unicode="Y" horiz-adv-x="495" 
d="M169 343c-11 -28 -89 -240 -59 -242c30 -1 99 76 141 128c80 98 155 193 216 305c17 27 21 30 41 30c26 0 69 -25 69 -58c0 -4 -1 -8 -4 -12c-32 -42 -51 -107 -70 -153c-53 -130 -111 -299 -148 -434c-6 -20 -23 -103 -23 -121c6 -1 33 -6 33 -14c0 -21 -43 -33 -57 -28
c-42 14 -48 49 -50 74c-7 88 88 353 125 469c-31 -52 -150 -206 -213 -246c-13 -8 -28 -11 -43 -11c-68 0 -103 56 -103 118c0 55 33 164 57 225c43 109 90 201 131 258c6 8 17 11 30 11c39 0 95 -29 81 -45c-2 -3 -5 -3 -8 -3c-9 -5 -17 -14 -23 -21
c-28 -33 -81 -131 -123 -230z" />
    <glyph glyph-name="Yacute" unicode="&#xdd;" horiz-adv-x="495" 
d="M169 343c-11 -28 -89 -240 -59 -242c30 -1 99 76 141 128c80 98 155 193 216 305c17 27 21 30 41 30c26 0 69 -25 69 -58c0 -4 -1 -8 -4 -12c-32 -42 -51 -107 -70 -153c-53 -130 -111 -299 -148 -434c-6 -20 -23 -103 -23 -121c6 -1 33 -6 33 -14c0 -21 -42 -28 -57 -28
c-45 0 -55 32 -55 71c0 114 93 356 130 472c-31 -52 -150 -206 -213 -246c-13 -8 -28 -11 -43 -11c-68 0 -103 60 -103 122c0 55 33 160 57 221c43 109 90 201 131 258c6 8 17 11 30 11c39 0 95 -29 81 -45c-2 -3 -5 -3 -8 -3c-9 -5 -17 -14 -23 -21
c-28 -33 -81 -131 -123 -230zM451 697c-5 -10 -13 -42 -31 -42c-25 0 -62 21 -62 51c0 52 112 126 165 126c17 0 40 -14 49 -28c0 -6 -16 -10 -20 -11c-42 -16 -86 -54 -101 -96z" />
    <glyph glyph-name="Ydieresis" unicode="&#x178;" horiz-adv-x="495" 
d="M169 343c-11 -28 -89 -240 -59 -242c30 -1 99 76 141 128c80 98 155 193 216 305c17 27 21 30 41 30c26 0 69 -25 69 -58c0 -4 -1 -8 -4 -12c-32 -42 -51 -107 -70 -153c-53 -130 -111 -299 -148 -434c-6 -20 -23 -103 -23 -121c6 -1 33 -6 33 -14c0 -21 -42 -28 -57 -28
c-45 0 -55 32 -55 71c0 114 93 356 130 472c-31 -52 -150 -206 -213 -246c-13 -8 -28 -11 -43 -11c-68 0 -112 56 -112 118c0 55 42 164 66 225c43 109 90 201 131 258c6 8 17 11 30 11c39 0 95 -29 81 -45c-2 -3 -5 -3 -8 -3c-9 -5 -17 -14 -23 -21
c-28 -33 -81 -131 -123 -230zM389 779c37 0 52 -23 52 -48c0 -30 -22 -63 -57 -63c-18 0 -35 6 -44 20c-5 16 -8 28 -8 43c0 9 7 22 11 30c7 13 18 14 31 16c5 1 10 2 15 2zM544 783c7 0 40 -11 45 -15h-1c11 -8 16 -24 16 -39c0 -14 -4 -27 -11 -35
c-20 -22 -22 -22 -51 -22c-34 0 -56 39 -46 69c11 25 18 42 48 42z" />
    <glyph glyph-name="Z" unicode="Z" horiz-adv-x="481" 
d="M450 546c-50 -9 -108 -14 -164 -14c-89 0 -172 12 -201 34c-13 9 -18 28 -18 47c0 16 3 32 8 41c7 13 24 10 26 4c9 -24 116 -35 234 -35c67 0 138 4 196 11c2 7 10 9 16 9c19 0 62 -15 62 -39c0 -15 -167 -205 -273 -311c-72 -70 -131 -130 -209 -217h35
c89 0 235 -8 295 -56c13 -9 19 -47 17 -62c-2 -9 -10 -29 -22 -27c-5 1 -9 5 -10 9c-121 51 -254 55 -381 65c-11 -12 -53 -59 -74 -59c-30 0 -61 45 -61 74c0 32 56 50 84 54c91 91 179 186 268 286c50 55 104 119 172 186z" />
    <glyph glyph-name="Zacute" unicode="&#x179;" horiz-adv-x="481" 
d="M450 546c-50 -9 -108 -14 -164 -14c-89 0 -172 12 -201 34c-13 9 -18 28 -18 47c0 16 3 32 8 41c7 13 24 10 26 4c9 -24 116 -35 234 -35c67 0 138 4 196 11c2 7 10 9 16 9c19 0 62 -15 62 -39c0 -15 -167 -205 -273 -311c-72 -70 -131 -130 -209 -217h35
c89 0 235 -8 295 -56c13 -9 19 -47 17 -62c-2 -9 -10 -29 -22 -27c-5 1 -9 5 -10 9c-121 51 -254 55 -381 65c-11 -12 -53 -59 -74 -59c-30 0 -61 45 -61 74c0 32 56 50 84 54c91 91 179 186 268 286c50 55 104 119 172 186zM367 766c-5 -10 -13 -42 -31 -42
c-25 0 -62 21 -62 51c0 52 112 126 165 126c17 0 40 -14 49 -28c0 -6 -16 -10 -20 -11c-42 -16 -86 -54 -101 -96z" />
    <glyph glyph-name="Zcaron" unicode="&#x17d;" horiz-adv-x="481" 
d="M450 546c-50 -9 -108 -14 -164 -14c-89 0 -172 12 -201 34c-13 9 -18 28 -18 47c0 16 3 32 8 41c7 13 24 10 26 4c9 -24 116 -35 234 -35c67 0 138 4 196 11c2 7 10 9 16 9c19 0 62 -15 62 -39c0 -15 -167 -205 -273 -311c-72 -70 -131 -130 -209 -217h35
c89 0 235 -8 295 -56c13 -9 19 -47 17 -62c-2 -9 -10 -29 -22 -27c-5 1 -9 5 -10 9c-121 51 -254 55 -381 65c-11 -12 -53 -59 -74 -59c-30 0 -61 45 -61 74c0 32 56 50 84 54c91 91 179 186 268 286c50 55 104 119 172 186zM251 843c0 23 15 33 32 33c18 0 38 -10 48 -27
c0 -14 0 -28 4 -44c50 35 61 43 86 65c3 4 7 6 11 6c17 0 41 -11 43 -30c-29 -39 -89 -110 -147 -110c-15 0 -37 4 -48 16c-21 21 -29 57 -29 91z" />
    <glyph glyph-name="Zdotaccent" unicode="&#x17b;" horiz-adv-x="481" 
d="M450 546c-50 -9 -108 -14 -164 -14c-89 0 -172 12 -201 34c-13 9 -18 28 -18 47c0 16 3 32 8 41c7 13 24 10 26 4c9 -24 116 -35 234 -35c67 0 138 4 196 11c2 7 10 9 16 9c19 0 62 -15 62 -39c0 -15 -167 -205 -273 -311c-72 -70 -131 -130 -209 -217h35
c89 0 235 -8 295 -56c13 -9 19 -47 17 -62c-2 -9 -10 -29 -22 -27c-5 1 -9 5 -10 9c-121 51 -254 55 -381 65c-11 -12 -53 -59 -74 -59c-30 0 -61 45 -61 74c0 32 56 50 84 54c91 91 179 186 268 286c50 55 104 119 172 186zM314 814c0 34 52 53 81 36c17 -7 35 -23 34 -44
c-10 -31 -34 -58 -74 -54c-28 4 -46 29 -41 62z" />
    <glyph glyph-name="a" unicode="a" 
d="M162 340c38 -4 64 -21 85 -37c4 8 19 8 26 8c21 0 60 -21 55 -43c-7 -30 -35 -124 -35 -182c0 -13 1 -25 5 -33c32 7 88 99 116 182c3 8 9 19 17 20c19 3 41 -7 31 -52c-16 -71 -68 -156 -81 -170c-19 -21 -46 -30 -72 -30c-27 0 -53 10 -68 25c-19 20 -33 60 -33 81
c-8 -20 -85 -128 -129 -128c-45 0 -78 44 -78 86c0 91 61 261 161 273zM180 275c-31 -30 -86 -139 -101 -228c27 24 91 82 141 193c-6 17 -25 48 -40 35z" />
    <glyph glyph-name="a.end" unicode="&#xe2a0;" 
d="M328 268c-1 -5 -35 -116 -35 -184c0 -31 7 -53 26 -53c29 0 67 28 92 52c16 20 26 35 39 36c51 5 -12 -141 -106 -139c-71 2 -132 53 -136 129c-8 -20 -85 -128 -129 -128c-45 0 -78 44 -78 86c0 91 56 254 161 273c38 -4 64 -21 85 -37c4 8 19 8 26 8
c21 0 60 -21 55 -43zM180 275c-31 -30 -86 -139 -101 -228c27 24 91 82 141 193c-6 17 -25 48 -40 35z" />
    <glyph glyph-name="aacute" unicode="&#xe1;" 
d="M162 340c38 -4 64 -21 85 -37c4 8 19 8 26 8c21 0 60 -21 55 -43c-7 -30 -35 -124 -35 -182c0 -13 1 -25 5 -33c32 7 88 99 116 182c3 8 9 19 17 20c19 3 37 -14 27 -59c-16 -71 -64 -149 -77 -163c-19 -21 -46 -30 -72 -30c-27 0 -53 10 -68 25c-19 20 -33 60 -33 81
c-8 -20 -85 -128 -129 -128c-45 0 -78 44 -78 86c0 91 61 261 161 273zM180 275c-31 -30 -86 -139 -101 -228c27 24 91 82 141 193c-6 17 -25 48 -40 35zM272 424c-5 -10 -13 -42 -31 -42c-25 0 -62 21 -62 51c0 52 112 126 165 126c17 0 40 -14 49 -28
c0 -6 -16 -10 -20 -11c-42 -16 -86 -54 -101 -96z" />
    <glyph glyph-name="abreve" unicode="&#x103;" 
d="M162 340c38 -4 64 -21 85 -37c4 8 19 8 26 8c21 0 60 -21 55 -43c-7 -30 -35 -124 -35 -182c0 -13 1 -25 5 -33c32 7 88 99 116 182c3 8 9 19 17 20c19 3 37 -14 27 -59c-16 -71 -64 -149 -77 -163c-19 -21 -46 -30 -72 -30c-27 0 -53 10 -68 25c-19 20 -33 60 -33 81
c-8 -20 -85 -128 -129 -128c-45 0 -78 44 -78 86c0 91 61 261 161 273zM180 275c-31 -30 -86 -139 -101 -228c27 24 91 82 141 193c-6 17 -25 48 -40 35zM178 498c13 13 66 -7 66 -22c0 -13 -11 -50 13 -50c18 0 34 31 40 43c6 19 6 26 29 26c15 0 34 -6 40 -22
c0 -58 -47 -99 -104 -99c-47 0 -102 23 -102 80c0 13 9 36 18 44z" />
    <glyph glyph-name="acircumflex" unicode="&#xe2;" 
d="M162 340c38 -4 64 -21 85 -37c4 8 19 8 26 8c21 0 60 -21 55 -43c-7 -30 -35 -124 -35 -182c0 -13 1 -25 5 -33c32 7 88 99 116 182c3 8 9 19 17 20c19 3 37 -14 27 -59c-16 -71 -64 -149 -77 -163c-19 -21 -46 -30 -72 -30c-27 0 -53 10 -68 25c-19 20 -33 60 -33 81
c-8 -20 -85 -128 -129 -128c-45 0 -78 44 -78 86c0 91 61 261 161 273zM180 275c-31 -30 -86 -139 -101 -228c27 24 91 82 141 193c-6 17 -25 48 -40 35zM112 448c0 12 21 13 29 13c22 0 62 44 81 62c13 14 10 31 33 31c32 0 48 -14 60 -35c12 -20 36 -76 46 -103
c7 -3 19 -8 19 -16c0 -4 -1 -7 -3 -9c-8 -5 -20 -11 -34 -11c-43 0 -67 51 -85 83c-20 -20 -61 -59 -93 -59c-19 0 -53 27 -53 44z" />
    <glyph glyph-name="acute" unicode="&#xb4;" horiz-adv-x="309" 
d="M176 500c-5 -10 -13 -42 -31 -42c-25 0 -62 21 -62 51c0 52 112 126 165 126c17 0 40 -14 49 -28c0 -6 -16 -10 -20 -11c-42 -16 -86 -54 -101 -96z" />
    <glyph glyph-name="adieresis" unicode="&#xe4;" 
d="M162 340c38 -4 64 -21 85 -37c4 8 19 8 26 8c21 0 60 -21 55 -43c-7 -30 -35 -124 -35 -182c0 -13 1 -25 5 -33c32 7 88 99 116 182c3 8 9 19 17 20c19 3 37 -14 27 -59c-16 -71 -64 -149 -77 -163c-19 -21 -46 -30 -72 -30c-27 0 -53 10 -68 25c-19 20 -33 60 -33 81
c-8 -20 -85 -128 -129 -128c-45 0 -78 44 -78 86c0 91 61 261 161 273zM180 275c-31 -30 -86 -139 -101 -228c27 24 91 82 141 193c-6 17 -25 48 -40 35zM116 474c8 14 23 20 39 20c28 0 59 -19 59 -50c0 -30 -22 -63 -57 -63c-18 0 -35 6 -44 20c-4 12 -7 24 -7 35
c0 12 3 24 10 38zM317 496c31 0 60 -19 60 -54c0 -14 -4 -27 -11 -35c-20 -22 -22 -22 -51 -22c-34 0 -56 39 -46 69c11 25 18 42 48 42z" />
    <glyph glyph-name="ae" unicode="&#xe6;" horiz-adv-x="459" 
d="M457 263c0 -89 -129 -183 -158 -194c8 -22 27 -35 49 -32c71 10 136 122 165 198c3 8 9 20 17 20c20 0 31 -12 31 -35c0 -9 -1 -20 -5 -32c-17 -59 -71 -132 -102 -158c-33 -29 -75 -42 -115 -42c-36 0 -71 11 -94 33c-19 17 -30 39 -36 65c-31 -39 -96 -105 -130 -105
c-45 0 -78 44 -78 86c0 91 61 261 161 273c51 -10 72 -27 104 -48c15 16 32 30 53 39c13 6 26 9 40 9c11 0 23 -2 34 -7c31 -12 57 -35 64 -70zM180 275c-31 -30 -86 -139 -101 -228c27 24 91 82 141 193c-6 17 -25 48 -40 35zM375 227c11 19 12 39 7 44
c-16 11 -47 -37 -56 -50c-11 -17 -29 -50 -39 -93c31 19 62 57 88 99z" />
    <glyph glyph-name="agrave" unicode="&#xe0;" 
d="M162 340c38 -4 64 -21 85 -37c4 8 19 8 26 8c21 0 60 -21 55 -43c-7 -30 -35 -124 -35 -182c0 -13 1 -25 5 -33c32 7 88 99 116 182c3 8 9 19 17 20c19 3 37 -14 27 -59c-16 -71 -64 -149 -77 -163c-19 -21 -46 -30 -72 -30c-27 0 -53 10 -68 25c-19 20 -33 60 -33 81
c-8 -20 -85 -128 -129 -128c-45 0 -78 44 -78 86c0 91 61 261 161 273zM180 275c-31 -30 -86 -139 -101 -228c27 24 91 82 141 193c-6 17 -25 48 -40 35zM171 519c12 -41 36 -81 78 -101c10 1 17 -1 23 -10c8 -19 -29 -24 -46 -22c-47 7 -134 59 -141 119c-2 20 30 32 46 32
c13 0 36 -2 40 -18z" />
    <glyph glyph-name="ampersand" unicode="&#x26;" horiz-adv-x="426" 
d="M360 179c-4 9 1 13 2 14c2 2 9 4 16 4c22 0 61 -20 61 -48c0 -46 -68 -105 -113 -137c19 -42 39 -87 74 -123c-2 13 1 21 15 21c22 0 53 -22 53 -47c0 -22 -28 -35 -47 -35c-74 0 -132 85 -162 144c-42 -21 -90 -36 -140 -36c-38 0 -100 36 -109 83
c-19 103 101 171 153 227c-9 49 -15 103 -15 157c0 82 13 163 43 217c13 24 32 34 53 34c50 0 111 -60 122 -128c3 -18 5 -38 5 -59c0 -68 -22 -150 -108 -244c11 -48 21 -94 38 -140c49 47 64 84 59 96zM232 23c-15 36 -34 97 -45 135c-21 -18 -112 -104 -112 -150
c0 -12 6 -22 22 -26c28 -8 94 17 135 41zM307 523c-7 44 -18 64 -29 64c-14 0 -28 -30 -35 -80c-4 -29 -6 -58 -6 -85c0 -39 3 -75 7 -104c52 58 67 111 67 160c0 16 -2 30 -4 45z" />
    <glyph glyph-name="aogonek" unicode="&#x105;" 
d="M162 340c38 -4 64 -21 85 -37c4 8 19 8 26 8c21 0 60 -21 55 -43c-9 -35 -45 -156 -33 -207c3 -8 9 -6 15 -3c32 22 79 103 104 177c3 8 9 19 17 20c19 3 37 -14 27 -59c-16 -71 -64 -149 -77 -163c-15 -16 -34 -25 -53 -28c-18 -24 -50 -54 -50 -82
c-1 -56 87 -32 77 -67c-5 -18 -39 -16 -46 -16c-25 0 -55 6 -78 20c-28 17 -45 41 -45 69c0 16 5 33 17 52c7 11 22 29 38 46v1c-19 20 -33 60 -33 81c-8 -20 -85 -128 -129 -128c-45 0 -78 44 -78 86c0 91 61 261 161 273zM180 275c-31 -30 -86 -139 -101 -228
c27 24 91 82 141 193c-6 17 -25 48 -40 35z" />
    <glyph glyph-name="aring" unicode="&#xe5;" 
d="M162 340c38 -4 64 -21 85 -37c4 8 19 8 26 8c21 0 60 -21 55 -43c-7 -30 -35 -124 -35 -182c0 -13 1 -25 5 -33c32 7 88 99 116 182c3 8 9 19 17 20c19 3 37 -14 27 -59c-16 -71 -64 -149 -77 -163c-19 -21 -46 -30 -72 -30c-27 0 -53 10 -68 25c-19 20 -33 60 -33 81
c-8 -20 -85 -128 -129 -128c-45 0 -78 44 -78 86c0 91 61 261 161 273zM180 275c-31 -30 -86 -139 -101 -228c27 24 91 82 141 193c-6 17 -25 48 -40 35zM175 444c-5 43 38 84 81 84c18 0 39 1 54 -11c24 -19 39 -47 39 -78c0 -44 -50 -79 -95 -79c-51 0 -79 35 -79 84z
M261 418c14 6 19 18 19 32c0 6 -6 13 -8 19c-14 10 -33 -5 -35 -24c-2 -20 9 -30 24 -27z" />
    <glyph glyph-name="asciicircum" unicode="^" horiz-adv-x="310" 
d="M30 317c48 51 86 110 130 168c25 32 8 54 48 54c67 0 65 -62 79 -110c10 -35 43 -106 79 -122c3 -1 5 -4 0 -10c-6 -6 -19 -15 -30 -15c-34 0 -73 32 -93 57c-17 21 -30 40 -41 66c-26 -31 -72 -119 -112 -119c-29 0 -41 11 -60 30v1z" />
    <glyph glyph-name="asciitilde" unicode="~" horiz-adv-x="419" 
d="M61 220c0 24 49 80 106 75c68 -6 81 -69 137 -88c33 12 11 73 49 73c22 0 54 -16 54 -43c0 -54 -30 -82 -83 -82c-54 0 -113 38 -144 82l-20 -18c-12 -12 -13 -47 -35 -47c-21 0 -64 21 -64 48z" />
    <glyph glyph-name="asterisk" unicode="*" horiz-adv-x="390" 
d="M37 451c0 6 17 14 22 14c38 2 76 8 104 11c-7 18 -36 92 -36 109c0 14 29 21 38 21s40 -6 40 -17c7 -13 11 -36 15 -50c13 26 29 52 46 75c16 8 71 -8 71 -26c0 -4 -3 -7 -6 -9c-20 -28 -38 -60 -57 -95c7 1 19 2 31 2c35 0 81 -7 81 -40c0 -7 -7 -8 -12 -8
c-6 0 -12 2 -17 2c-32 0 -66 -6 -98 -9c22 -39 68 -92 79 -128c-2 -8 -20 -10 -32 -10s-24 4 -33 12c-16 22 -36 43 -53 65c-12 -24 -24 -48 -43 -93c-1 -9 -5 -19 -15 -19c-19 0 -62 35 -65 55c20 36 38 74 57 111c-15 -5 -41 -6 -57 -6c-12 0 -60 19 -60 33z" />
    <glyph glyph-name="at" unicode="@" horiz-adv-x="724" 
d="M406 350c36 -3 60 -17 80 -31c5 7 18 7 25 7c20 0 56 -17 52 -35c-10 -31 -53 -140 -36 -179c57 50 92 135 92 212c0 82 -29 176 -126 176c-129 0 -241 -151 -268 -262c-10 -40 -15 -80 -15 -117c0 -101 38 -179 122 -179c45 0 91 29 125 55c11 10 22 26 36 19
c55 -29 -70 -119 -125 -121c-94 -3 -167 36 -205 116c-20 41 -29 85 -29 131c0 54 12 110 32 165c51 136 157 245 312 245c53 0 116 -15 155 -54h-1c52 -45 73 -110 73 -178c0 -95 -60 -249 -164 -249c-21 0 -44 6 -68 20c-18 17 -24 50 -24 68c-7 -17 -80 -106 -121 -106
c-42 0 -73 37 -73 71c0 75 59 206 151 226zM423 297c-29 -26 -81 -116 -95 -189c25 19 86 67 133 160c-6 14 -23 39 -38 29z" />
    <glyph glyph-name="atilde" unicode="&#xe3;" 
d="M162 340c38 -4 64 -21 85 -37c4 8 19 8 26 8c21 0 60 -21 55 -43c-7 -30 -35 -124 -35 -182c0 -13 1 -25 5 -33c32 7 88 99 116 182c3 8 9 19 17 20c19 3 37 -14 27 -59c-16 -71 -64 -149 -77 -163c-19 -21 -46 -30 -72 -30c-27 0 -53 10 -68 25c-19 20 -33 60 -33 81
c-8 -20 -85 -128 -129 -128c-45 0 -78 44 -78 86c0 91 61 261 161 273zM180 275c-31 -30 -86 -139 -101 -228c27 24 91 82 141 193c-6 17 -25 48 -40 35zM128 443c31 42 50 56 84 55c40 -1 49 -25 84 -51c7 4 18 13 18 23c0 15 9 28 31 19c12 -5 20 -14 25 -23
c10 -39 -22 -77 -70 -77c-18 0 -63 19 -81 53c-17 -16 -26 -44 -44 -44c-21 0 -45 22 -47 45z" />
    <glyph glyph-name="b" unicode="b" horiz-adv-x="336" 
d="M219 23c-16 -12 -40 -18 -64 -18c-19 0 -38 3 -54 10c0 -5 1 -9 2 -13c2 -14 -8 -18 -19 -20c-22 -3 -56 12 -63 41c6 61 11 88 30 194c1 8 2 16 4 25c33 169 76 366 73 349c3 11 0 18 17 19c15 1 42 -9 65 -32c5 -8 5 -10 -4 -49c-25 -104 -54 -197 -63 -256
c24 29 62 72 108 62c31 -8 48 -16 66 -53c10 -34 -7 -121 -42 -189c50 25 94 73 114 142c2 8 9 20 17 20c20 0 32 -14 32 -37c0 -10 -3 -21 -7 -34c-28 -84 -115 -150 -212 -161zM229 281c-33 -31 -58 -71 -83 -112c-10 -19 -23 -47 -33 -75c18 -10 37 -17 56 -19
c40 52 68 154 60 206z" />
    <glyph glyph-name="b.1" unicode="&#xe01b;" horiz-adv-x="316" 
d="M86 387c-189 28 -328 99 -440 97c-16 0 -23 -3 -25 -7c-4 -9 8 -41 -2 -50c-9 -7 -37 -3 -42 16c-6 45 32 125 105 130c122 8 255 -89 419 -127c41 144 88 228 152 226c58 -2 96 -45 98 -97c3 -73 -46 -185 -184 -195c-11 -43 -20 -78 -24 -107c19 23 49 55 81 62
c31 7 81 -23 93 -53c10 -34 -7 -121 -42 -189c-48 -86 -96 -88 -120 -88c-19 0 -38 10 -53 21c0 -5 0 -20 1 -24c2 -14 -8 -18 -19 -20c-22 -3 -56 12 -63 41c9 112 38 251 65 364zM229 281c-33 -31 -58 -71 -83 -112c-10 -19 -23 -47 -33 -75c8 -14 24 -32 43 -34
c40 52 81 169 73 221zM274 612c-36 3 -69 -108 -90 -173c36 0 65 25 85 68c17 37 32 100 5 105z" />
    <glyph glyph-name="b.end" unicode="&#xe2a1;" horiz-adv-x="336" 
d="M191 6c-11 -1 -21 -2 -31 -2c-24 0 -43 4 -59 11c0 -5 1 -9 2 -13c2 -14 -8 -18 -19 -20c-22 -3 -56 12 -63 41c2 107 108 565 107 568c3 11 0 18 17 19c15 1 42 -9 65 -32c5 -8 5 -10 -4 -49c-25 -104 -54 -197 -63 -256c24 29 62 72 108 62c31 -8 48 -16 66 -53
c17 -55 -37 -248 -126 -276zM229 281c-33 -31 -58 -71 -83 -112c-10 -20 -24 -49 -34 -79c11 -20 21 -32 28 -42c55 30 99 170 89 233z" />
    <glyph glyph-name="b.salt" unicode="&#xe4c1;" horiz-adv-x="336" 
d="M86 387c-189 28 -328 99 -440 97c-16 0 -23 -3 -25 -7c-4 -9 8 -41 -2 -50c-9 -7 -37 -3 -42 16c-6 45 32 125 105 130c122 8 255 -89 419 -127c41 144 88 228 152 226c58 -2 96 -45 98 -97s-21 -123 -86 -163c-26 -16 -58 -30 -98 -33c-11 -43 -20 -77 -24 -106
c24 29 62 72 108 62c31 -8 48 -16 66 -53c10 -34 -7 -121 -42 -189c50 25 94 73 114 142c2 8 9 20 17 20c20 0 32 -14 32 -37c0 -10 -3 -21 -7 -34c-28 -84 -115 -150 -212 -161c-16 -12 -40 -18 -64 -18c-19 0 -38 3 -54 10c0 -5 1 -9 2 -13c2 -14 -8 -18 -19 -20
c-22 -3 -56 12 -63 41c9 112 38 251 65 364zM229 281c-33 -31 -58 -71 -83 -112c-10 -19 -23 -47 -33 -75c18 -10 37 -17 56 -19c40 52 68 154 60 206zM274 612c-36 3 -69 -108 -90 -173c39 2 68 33 88 76c17 37 29 92 2 97z" />
    <glyph glyph-name="backslash" unicode="\" horiz-adv-x="422" 
d="M98 662c15 -22 26 -42 35 -61c86 -170 161 -344 244 -516c17 -36 37 -72 53 -109c16 -11 37 -22 37 -46c0 -17 -20 -24 -34 -24c-15 0 -32 2 -45 11c-38 25 -95 161 -111 198c-18 41 -37 82 -56 123c-37 80 -76 159 -114 239l-79 165c-1 3 -3 7 -3 11c0 17 22 18 34 18
s28 -4 39 -9z" />
    <glyph glyph-name="bar" unicode="|" horiz-adv-x="333" 
d="M164 -249c-2 12 -3 34 -3 61c0 53 3 120 3 135c2 226 6 454 23 709c1 14 -1 28 2 40c0 9 10 15 18 17c31 8 57 -4 64 -35c6 -33 -11 -188 -13 -225c-8 -107 -10 -213 -10 -320c0 -113 2 -226 2 -339l1 1l6 -54c2 -19 -14 -27 -34 -27c-25 0 -54 13 -59 37z" />
    <glyph glyph-name="braceleft" unicode="{" horiz-adv-x="369" 
d="M410 629c10 -21 -3 -28 -25 -28c-25 0 -44 17 -59 17h-4c-30 -30 -36 -125 -48 -170h1c-6 -66 -13 -174 -89 -205h-3c37 -7 67 -68 67 -102c0 -86 -48 -177 -48 -263c0 -16 2 -32 6 -48c22 -15 46 5 72 5c17 0 34 -17 29 -35c0 -11 -56 -20 -64 -20
c-75 0 -123 60 -123 131c0 84 44 164 44 250c0 24 -8 39 -24 59h1c-13 5 -38 2 -47 12c-2 2 -11 15 -11 17c0 15 9 25 24 25c8 0 16 -2 31 -2c36 55 43 121 52 175c14 81 11 213 125 213c38 0 60 -13 93 -31z" />
    <glyph glyph-name="braceright" unicode="}" horiz-adv-x="370" 
d="M144 675c11 0 23 -1 23 -6c16 -2 31 -6 46 -12h-1c15 -5 30 -11 43 -19h-1c47 -25 67 -72 67 -124c0 -41 -17 -109 -25 -154c-5 -32 -13 -65 -13 -98c0 -22 3 -45 13 -68c18 -13 58 -13 58 -44c0 -13 -8 -20 -21 -20c-12 0 -23 5 -35 2c-53 -91 -13 -393 -184 -393
c-24 0 -99 19 -99 51c0 15 22 24 34 24c30 0 46 -38 64 -38c50 0 61 328 95 360c16 15 33 27 52 34c-48 27 -62 59 -62 100c0 23 5 50 10 79c11 63 25 133 25 198c0 30 -7 56 -31 71c-19 6 -76 14 -76 45c0 11 10 12 18 12z" />
    <glyph glyph-name="bracketleft" unicode="[" horiz-adv-x="360" 
d="M315 571c-25 -39 -48 -200 -61 -265c-9 -64 -76 -385 -76 -457c38 2 73 19 111 19c12 0 47 -1 47 -20c0 -28 -139 -56 -164 -56c-39 0 -78 21 -78 67c0 52 7 106 16 167c6 39 16 77 23 116c8 44 15 89 25 133c25 111 43 224 69 335c6 24 31 29 52 29c16 0 32 -1 49 -1
s34 1 50 4c14 3 26 8 40 8c18 0 32 -19 13 -36c-33 -33 -72 -43 -116 -43z" />
    <glyph glyph-name="bracketright" unicode="]" horiz-adv-x="366" 
d="M194 566c-18 3 -70 22 -70 47c0 11 16 14 30 18c9 3 21 7 42 7c19 0 46 -4 86 -15c32 -9 85 -40 85 -93s-9 -91 -17 -143c-30 -186 -55 -374 -108 -564c-7 -40 -71 -68 -108 -68c-44 0 -120 25 -120 80c0 9 7 16 17 16c9 0 19 -5 25 -10c25 -14 52 -27 81 -27
c39 0 60 178 66 205c35 175 81 352 81 536c0 3 0 10 -2 12c-16 1 -36 -4 -55 -4c-11 0 -22 1 -33 3z" />
    <glyph glyph-name="breve" unicode="&#x2d8;" horiz-adv-x="270" 
d="M87 621c13 13 66 -7 66 -22c0 -13 -11 -50 13 -50c18 0 34 31 40 43c6 19 6 26 29 26c15 0 34 -6 40 -22c0 -58 -47 -99 -104 -99c-47 0 -102 23 -102 80c0 13 9 36 18 44z" />
    <glyph glyph-name="brokenbar" unicode="&#xa6;" horiz-adv-x="343" 
d="M203 95c-51 -240 -60 -288 -69 -336c-1 -17 -4 -35 -4 -52c0 -10 -20 -21 -29 -21c-13 0 -37 13 -44 24h1c-7 9 -9 20 -9 31c0 50 15 106 27 162c10 51 21 101 32 152c6 29 13 57 22 88c2 8 10 13 18 13c22 0 55 -30 55 -55v-6zM243 274c-5 -19 1 -46 -27 -46
c-25 0 -65 27 -56 61l22 80c25 94 44 190 69 291c8 34 87 -2 78 -43c-12 -52 -33 -133 -50 -193c-17 -67 -21 -76 -36 -150z" />
    <glyph glyph-name="bullet" unicode="&#x2022;" horiz-adv-x="304" 
d="M144 378h2c34 3 64 -5 90 -33c9 -12 13 -24 13 -37c0 -44 -46 -85 -93 -87c-40 0 -70 31 -78 75c0 5 1 13 6 27c7 25 30 47 60 55z" />
    <glyph glyph-name="c" unicode="c" horiz-adv-x="282" 
d="M19 179c16 57 67 158 143 170c32 5 90 -16 100 -49c10 -29 0 -54 -7 -83c-4 -10 -19 -8 -26 -5c-11 4 -26 15 -31 28c-3 7 0 41 -9 58c-31 -13 -77 -87 -93 -143c-7 -23 -11 -47 -11 -67c0 -33 12 -58 47 -60c82 -4 170 111 200 207c3 8 12 20 20 20c20 0 34 -14 31 -38
c-12 -85 -94 -202 -165 -230c-19 -8 -40 -11 -61 -11c-64 0 -130 35 -146 102c-2 9 -3 20 -3 31c0 21 4 45 11 70z" />
    <glyph glyph-name="cacute" unicode="&#x107;" horiz-adv-x="282" 
d="M19 179c16 57 67 158 143 170c32 5 90 -16 100 -49c10 -29 0 -54 -7 -83c-4 -10 -19 -8 -26 -5c-11 4 -26 15 -31 28c-3 7 0 41 -9 58c-31 -13 -77 -87 -93 -143c-7 -23 -11 -47 -11 -67c0 -33 12 -58 47 -60c82 -4 173 111 203 207c3 8 9 20 17 20c20 0 31 -14 31 -38
c0 -9 -1 -21 -5 -33c-17 -60 -98 -173 -160 -197c-19 -8 -40 -11 -61 -11c-64 0 -130 35 -146 102c-2 9 -3 20 -3 31c0 21 4 45 11 70zM270 442c-5 -10 -13 -42 -31 -42c-25 0 -62 21 -62 51c0 52 112 126 165 126c17 0 40 -14 49 -28c0 -6 -16 -10 -20 -11
c-42 -16 -86 -54 -101 -96z" />
    <glyph glyph-name="caron" unicode="&#x2c7;" horiz-adv-x="262" 
d="M75 576c0 23 15 33 32 33c18 0 38 -10 48 -27c0 -14 0 -28 4 -44c50 35 61 43 86 65c3 4 7 6 11 6c17 0 41 -11 43 -30c-29 -39 -89 -110 -147 -110c-15 0 -37 4 -48 16c-21 21 -29 57 -29 91z" />
    <glyph glyph-name="ccaron" unicode="&#x10d;" horiz-adv-x="282" 
d="M19 179c16 57 67 158 143 170c32 5 90 -16 100 -49c10 -29 0 -54 -7 -83c-4 -10 -19 -8 -26 -5c-11 4 -26 15 -31 28c-3 7 0 41 -9 58c-31 -13 -77 -87 -93 -143c-7 -23 -11 -47 -11 -67c0 -33 12 -58 47 -60c82 -4 173 111 203 207c3 8 9 20 17 20c20 0 31 -14 31 -38
c0 -9 -1 -21 -5 -33c-17 -60 -98 -173 -160 -197c-19 -8 -40 -11 -61 -11c-64 0 -130 35 -146 102c-2 9 -3 20 -3 31c0 21 4 45 11 70zM141 518c0 23 15 33 32 33c18 0 38 -10 48 -27c0 -14 0 -28 4 -44c50 35 61 43 86 65c3 4 7 6 11 6c17 0 41 -11 43 -30
c-29 -39 -89 -110 -147 -110c-15 0 -37 4 -48 16c-21 21 -29 57 -29 91z" />
    <glyph glyph-name="ccedilla" unicode="&#xe7;" horiz-adv-x="282" 
d="M19 179c16 57 67 158 143 170c32 5 90 -16 100 -49c10 -29 0 -54 -7 -83c-4 -10 -19 -8 -26 -5c-11 4 -26 15 -31 28c-3 7 0 41 -9 58c-31 -13 -77 -87 -93 -143c-7 -23 -11 -47 -11 -67c0 -33 12 -58 47 -60c82 -4 173 111 203 207c3 8 9 20 17 20c20 0 31 -14 31 -38
c0 -9 -1 -21 -5 -33c-17 -60 -98 -173 -160 -197c-14 -5 -29 -9 -44 -10c-28 -16 -35 -36 -35 -40c0 -28 63 -68 63 -108c0 -28 -26 -68 -74 -76c-31 -5 -75 15 -97 39c-10 11 -11 35 3 46c5 4 18 -10 21 -13c23 -22 72 -43 72 -7c0 38 -49 84 -51 121c-1 17 6 34 18 49
c-40 15 -73 45 -83 90c-2 9 -3 20 -3 31c0 21 4 45 11 70z" />
    <glyph glyph-name="cedilla" unicode="&#xb8;" horiz-adv-x="165" 
d="M143 -3c0 -6 -3 -12 -10 -15c-38 -16 -47 -41 -47 -45c0 -28 63 -68 63 -108c0 -28 -26 -68 -74 -76c-31 -5 -75 15 -97 39c-10 11 -11 35 3 46c5 4 18 -10 21 -13c23 -22 72 -43 72 -7c0 38 -49 84 -51 121c-2 43 47 85 81 85c12 0 39 -14 39 -27z" />
    <glyph glyph-name="cent" unicode="&#xa2;" horiz-adv-x="312" 
d="M288 490c0 -16 -14 -82 -23 -107c27 -5 54 -28 68 -56c-6 -20 -14 -43 -40 -43c-10 0 -15 6 -17 15c-5 11 -12 19 -22 27c-5 -21 -8 -42 -34 -161l25 6c18 4 35 17 53 17c11 0 39 -12 39 -24c0 -10 -23 -30 -30 -35c-18 -14 -77 -22 -100 -23c-13 -56 -20 -105 -20 -125
c0 -11 2 -21 -14 -21c-27 0 -67 19 -67 53c0 26 9 72 13 95c-40 8 -99 22 -99 91c0 68 99 146 157 173c10 45 26 116 25 135c-1 12 12 20 25 20c22 0 52 -13 61 -37zM154 268c-16 -17 -61 -59 -61 -85c0 -18 18 -24 36 -25c8 37 15 74 25 110z" />
    <glyph glyph-name="circumflex" unicode="&#x2c6;" horiz-adv-x="365" 
d="M64 579c0 12 21 13 29 13c22 0 62 44 81 62c13 14 10 31 33 31c32 0 48 -14 60 -35c12 -20 36 -76 46 -103c7 -3 19 -8 19 -16c0 -4 -1 -7 -3 -9c-8 -5 -20 -11 -34 -11c-43 0 -67 51 -85 83c-20 -20 -61 -59 -93 -59c-19 0 -53 27 -53 44z" />
    <glyph glyph-name="colon" unicode=":" horiz-adv-x="246" 
d="M174 12c-5 -8 -37 -35 -60 -31c-27 5 -38 28 -38 53c0 24 10 49 25 64c22 22 83 -15 83 -50c0 -11 -3 -24 -10 -36zM244 382c-5 -8 -31 -22 -54 -18c-20 4 -30 12 -38 20c-17 15 -6 60 10 76c7 7 21 10 35 10s28 -3 38 -7s18 -24 18 -46c0 -12 -3 -25 -9 -35z" />
    <glyph glyph-name="comma" unicode="," horiz-adv-x="258" 
d="M64 -58c0 6 27 16 52 79c5 12 4 10 10 30c-2 10 24 16 29 16c18 0 55 -18 55 -42s-7 -37 -24 -64c-9 -15 -56 -48 -78 -48c-15 0 -44 10 -44 29z" />
    <glyph glyph-name="copyright" unicode="&#xa9;" horiz-adv-x="592" 
d="M323 448c61 1 135 -30 151 -82c3 -8 2 -20 6 -27c45 -34 70 -87 70 -139c0 -125 -139 -247 -291 -247c-130 0 -232 97 -232 212c0 150 142 283 296 283zM442 129c13 23 20 52 20 81c0 35 -11 70 -34 95c-16 4 -27 13 -27 29c0 7 1 15 -1 23c-4 29 -38 39 -69 39
c-59 0 -109 -38 -149 -77c-50 -51 -72 -105 -72 -172c0 -63 37 -143 126 -143c88 0 170 61 206 125zM380 292c0 -23 -12 -54 -39 -54c-12 0 -33 7 -33 23c0 15 3 30 0 48v1c-25 -19 -45 -60 -60 -87c-17 -30 -26 -66 -26 -100c0 -24 12 -33 29 -33c27 0 65 24 79 45
c3 5 9 8 15 8c18 0 31 -16 31 -33c0 -30 -85 -65 -110 -65c-51 0 -115 35 -115 96c0 60 35 128 78 173c14 15 30 28 50 35h-1c4 1 9 2 13 2c25 0 89 -27 89 -59z" />
    <glyph glyph-name="currency" unicode="&#xa4;" horiz-adv-x="511" 
d="M20 0c0 13 42 43 47 48l29 26h-4c-13 27 -21 56 -21 86c0 40 14 77 36 110c-48 40 -74 65 -101 88h1c-6 4 -11 11 -11 18c0 9 12 19 18 24c10 8 34 13 47 13c9 0 17 -1 21 -10c11 -27 50 -52 76 -71c35 29 88 54 136 54c29 0 81 -14 101 -37l31 34c12 13 22 25 42 25
c11 0 28 -6 36 -14c4 -3 16 -18 17 -22v-3c0 -13 -18 -29 -27 -37l-60 -51h3c18 -30 25 -50 25 -85c0 -41 -25 -75 -46 -108c0 -11 73 -57 98 -83c-6 -21 -10 -26 -28 -38h1c-7 -5 -15 -9 -24 -9c-16 0 -28 16 -39 26l-62 53c-36 -21 -79 -38 -121 -38c-34 0 -60 6 -90 25
c-10 -15 -24 -29 -36 -44c-11 -13 -21 -29 -40 -29c-22 0 -55 26 -55 49zM227 49c79 0 152 79 152 158c0 20 -5 40 -15 58c-11 0 -23 10 -23 21c0 18 -9 40 -32 40c-14 0 -31 -5 -43 -12c-44 -25 -61 -46 -89 -86c-16 -23 -26 -57 -26 -89c0 -47 21 -90 76 -90z" />
    <glyph glyph-name="d" unicode="d" horiz-adv-x="359" 
d="M159 340c34 -4 63 -23 84 -38c57 195 69 230 70 234c3 11 1 18 18 18c15 0 41 -12 63 -36c4 -9 4 -11 -7 -49l-63 -204c-8 -33 -38 -130 -38 -188c0 -13 2 -24 5 -32c35 9 95 106 121 190c3 8 9 20 17 20c20 0 33 -15 31 -39c-5 -52 -51 -148 -86 -186
c-18 -19 -54 -33 -80 -33c-55 0 -81 54 -89 107c-8 -20 -85 -123 -129 -123c-45 0 -78 44 -78 86c0 91 63 248 161 273zM177 275c-31 -30 -86 -139 -101 -228c27 24 91 82 141 193c-6 17 -25 48 -40 35z" />
    <glyph glyph-name="d.end" unicode="&#xe2a3;" horiz-adv-x="359" 
d="M324 265c-27 -93 -45 -184 -45 -284c0 -12 0 -25 1 -37c9 0 38 -1 38 -15c0 -12 -27 -17 -36 -17c-67 0 -78 88 -78 155c0 14 0 26 1 37c-8 -20 -85 -123 -129 -123c-45 0 -78 44 -78 86c0 91 63 248 161 273c34 -4 63 -23 84 -38c57 195 69 230 70 234c3 11 1 18 18 18
c15 0 41 -12 63 -36c4 -9 4 -11 -7 -49zM177 275c-31 -30 -86 -139 -101 -228c27 24 91 82 141 193c-6 17 -25 48 -40 35z" />
    <glyph glyph-name="dagger" unicode="&#x2020;" horiz-adv-x="429" 
d="M221 153c-9 -80 -19 -160 -32 -240c-1 -9 0 -18 -1 -26c-9 -55 -14 -110 -19 -165c-1 -17 -18 -23 -33 -23c-5 0 -10 1 -14 3h2c-7 1 -18 4 -22 10h1c-4 4 -11 10 -11 16c2 76 11 152 18 228c13 145 27 229 47 373c-33 0 -65 -6 -91 -6c-18 0 -27 12 -27 25
c0 14 10 29 30 33l91 7c14 57 32 254 47 258c31 8 74 -17 89 -42c-5 -44 -26 -159 -34 -213c10 0 46 2 82 2c37 0 73 -3 77 -15c3 -12 -25 -31 -35 -34c-11 -3 -23 -2 -34 -2c-33 1 -67 -5 -101 -6l-31 -183h1z" />
    <glyph glyph-name="daggerdbl" unicode="&#x2021;" horiz-adv-x="511" 
d="M46 -66c-16 0 -56 19 -56 35c0 4 8 14 11 16c11 7 115 16 117 17c15 75 30 149 44 224c7 42 25 101 30 143c-19 -3 -39 -5 -58 -5c-16 0 -37 1 -49 13c-6 6 -16 16 -16 26c0 20 133 26 138 27c3 11 56 208 78 225c7 5 20 10 29 10c21 0 57 -23 57 -46
c0 -10 -10 -17 -14 -21c-27 -72 -42 -116 -56 -163c11 0 29 1 47 1c27 0 56 -2 70 -12c9 -7 21 -11 33 -25v-1c0 -6 -21 -9 -25 -10c-25 -4 -50 -7 -74 -7s-48 0 -68 -2c-34 -124 -54 -251 -78 -378c22 0 144 -1 144 -36c0 -13 -24 -15 -33 -15c-40 0 -81 -2 -121 -2
c-13 -67 -21 -128 -21 -195c0 -13 4 -25 4 -37s-3 -20 -16 -20c-17 0 -42 11 -56 18c-18 23 -19 41 -19 69c0 50 8 106 19 159c-19 -5 -41 -8 -61 -8z" />
    <glyph glyph-name="dcaron" unicode="&#x10f;" horiz-adv-x="599" 
d="M159 340c34 -4 63 -23 84 -38c57 195 69 230 70 234c3 11 1 18 18 18c15 0 41 -12 63 -36c4 -9 4 -11 -7 -49l-63 -204c-8 -33 -38 -130 -38 -188c0 -13 2 -24 5 -32c35 9 92 106 118 190c3 8 9 20 17 20c20 0 31 -15 31 -39c0 -10 -1 -21 -5 -33
c-17 -59 -65 -139 -78 -153c-18 -19 -54 -33 -80 -33c-22 0 -41 9 -56 24h1c-20 20 -32 59 -34 83c-8 -20 -85 -123 -129 -123c-45 0 -78 44 -78 86c0 91 63 248 161 273zM177 275c-31 -30 -86 -139 -101 -228c27 24 91 82 141 193c-6 17 -25 48 -40 35zM447 614
c8 17 55 6 65 -6s14 -24 14 -40c0 -34 -13 -94 -41 -117c-10 -8 -51 -6 -51 10c0 10 8 24 11 34c6 20 10 43 10 63c0 19 -2 38 -8 56z" />
    <glyph glyph-name="dcroat" unicode="&#x111;" horiz-adv-x="359" 
d="M159 340c34 -4 63 -23 84 -38l17 60h-53c-22 0 -58 21 -58 55c0 20 32 21 42 21h92c23 77 29 95 30 98c3 11 1 18 18 18c15 0 41 -12 63 -36c4 -9 4 -11 -7 -49l-12 -38c38 -3 74 -5 96 -19c13 -8 20 -19 20 -29c0 -12 -10 -21 -31 -21h-106l-30 -97
c-8 -33 -38 -130 -38 -188c0 -13 2 -24 5 -32c35 9 92 106 118 190c3 8 9 20 17 20c20 0 31 -15 31 -39c0 -10 -1 -21 -5 -33c-17 -59 -65 -139 -78 -153c-18 -19 -54 -33 -80 -33c-22 0 -41 9 -56 24h1c-20 20 -32 59 -34 83c-8 -20 -85 -123 -129 -123
c-45 0 -78 44 -78 86c0 91 63 248 161 273zM177 275c-31 -30 -86 -139 -101 -228c27 24 91 82 141 193c-6 17 -25 48 -40 35z" />
    <glyph glyph-name="degree" unicode="&#xb0;" horiz-adv-x="187" 
d="M31 476c0 39 37 84 81 84c53 0 94 -29 94 -89c0 -53 -60 -78 -96 -78c-44 0 -79 29 -79 83zM143 496c-24 35 -54 1 -54 -29c0 -3 -2 -25 19 -31c29 0 49 36 35 60z" />
    <glyph glyph-name="dieresis" unicode="&#xa8;" horiz-adv-x="347" 
d="M87 609c37 0 52 -23 52 -48c0 -30 -22 -63 -57 -63c-37 0 -52 26 -52 63c0 9 7 22 11 30c8 14 29 18 46 18zM242 613c31 0 60 -19 60 -54c0 -14 -4 -27 -11 -35c-20 -22 -22 -22 -51 -22c-31 0 -47 27 -47 54c0 28 17 57 49 57z" />
    <glyph glyph-name="divide" unicode="&#xf7;" horiz-adv-x="498" 
d="M81 281h115c19 0 60 1 103 1c65 0 138 -2 160 -13h-1c6 -3 23 -10 26 -14c4 -5 16 -18 16 -25c0 -9 -18 -12 -25 -12c-77 0 -156 -5 -234 -5c-48 0 -96 2 -143 8h-1c-11 8 -32 27 -32 42c0 8 10 15 16 18zM178 101c0 38 37 57 72 57c32 0 62 -15 62 -46
c0 -35 -46 -57 -82 -57c-25 0 -52 17 -52 46zM343 399c0 -28 -27 -64 -58 -64c-22 0 -59 34 -59 64c0 31 37 45 56 45c23 0 59 -18 61 -45z" />
    <glyph glyph-name="dollar" unicode="$" horiz-adv-x="367" 
d="M79 312c-25 92 91 172 198 207c11 29 22 58 34 87c8 17 21 24 35 24c17 0 35 -11 43 -31c2 -7 0 -13 -7 -18c-5 -15 -11 -29 -16 -43h13c12 0 23 -1 32 -4c32 -13 61 -57 36 -81c-10 -10 -26 -5 -29 0c-4 3 4 13 -10 20c-21 -3 -45 -9 -70 -17c-25 -74 -48 -144 -68 -206
c60 -27 86 -72 86 -108c0 -12 -3 -23 -8 -32c-16 -30 -80 -62 -144 -83c-19 -66 -26 -96 -20 -75c-1 -10 -1 -18 -1 -22c0 -8 -6 -14 -22 -17c-10 0 -19 1 -23 5h1c-10 5 -18 14 -22 17c-3 7 -7 20 -6 27c1 12 4 27 7 45c-10 -2 -21 -2 -29 -2c-14 0 -25 2 -32 6
c-13 9 -23 33 -22 44c3 20 20 20 23 8c2 -8 35 -2 76 10c10 42 24 92 41 147c-43 20 -84 48 -96 92zM194 281c13 42 29 87 45 133c-49 -26 -86 -58 -90 -89c-3 -16 15 -30 45 -44zM252 191l-25 -82c35 17 62 36 65 52c1 10 -19 21 -40 30z" />
    <glyph glyph-name="dotaccent" unicode="&#x2d9;" horiz-adv-x="224" 
d="M69 622c0 34 52 53 81 36c17 -7 35 -23 34 -44c-10 -31 -34 -58 -74 -54c-28 4 -46 29 -41 62z" />
    <glyph glyph-name="dotlessi" unicode="&#x131;" horiz-adv-x="174" 
d="M51 21c-24 26 -34 62 -34 104c0 52 16 114 39 178c4 8 19 8 26 8c21 0 60 -21 55 -43c-7 -31 -39 -132 -39 -192c0 -13 2 -23 5 -31c30 13 77 75 120 190c3 8 9 20 17 20c20 0 31 -15 31 -39c0 -10 -1 -21 -5 -33c-17 -59 -67 -139 -80 -153c-18 -19 -54 -33 -80 -33
c-22 0 -41 9 -56 24h1z" />
    <glyph glyph-name="e" unicode="e" horiz-adv-x="267" 
d="M264 263c0 -89 -129 -183 -158 -194c8 -22 27 -35 49 -32c71 10 136 122 165 198c3 8 9 20 17 20c20 0 31 -12 31 -35c0 -60 -58 -159 -105 -199c-28 -24 -68 -38 -109 -38c-38 0 -75 12 -102 38c-35 32 -45 84 -39 136c9 65 46 144 113 174c13 6 26 9 40 9
c11 0 23 -2 34 -7c31 -12 57 -35 64 -70zM182 227c11 19 12 39 7 44c-16 11 -47 -37 -56 -50c-11 -17 -29 -50 -39 -93c31 19 62 57 88 99z" />
    <glyph glyph-name="e.end" unicode="&#xe2a4;" horiz-adv-x="292" 
d="M264 263c0 -89 -129 -183 -158 -194c7 -21 23 -30 44 -30c55 0 140 62 162 121c3 8 9 20 17 20c20 0 31 -15 31 -39c0 -10 -1 -21 -5 -33c-25 -88 -97 -130 -171 -130c-44 0 -88 15 -125 43c-35 32 -52 84 -46 136c9 65 46 144 113 174c13 6 26 9 40 9c11 0 23 -2 34 -7
c31 -12 57 -35 64 -70zM182 227c11 19 12 39 7 44c-16 11 -47 -37 -56 -50c-11 -17 -29 -50 -39 -93c31 19 62 57 88 99z" />
    <glyph glyph-name="eacute" unicode="&#xe9;" horiz-adv-x="267" 
d="M264 263c0 -89 -129 -183 -158 -194c8 -22 27 -35 49 -32c71 10 136 122 165 198c3 8 9 20 17 20c20 0 31 -12 31 -35c0 -9 -1 -20 -5 -32c-17 -59 -71 -132 -102 -158c-33 -29 -75 -42 -115 -42c-36 0 -71 11 -94 33c-35 32 -45 84 -39 136c9 65 46 144 113 174
c13 6 26 9 40 9c11 0 23 -2 34 -7c31 -12 57 -35 64 -70zM182 227c11 19 12 39 7 44c-16 11 -47 -37 -56 -50c-11 -17 -29 -50 -39 -93c31 19 62 57 88 99zM208 416c-5 -10 -13 -42 -31 -42c-25 0 -62 21 -62 51c0 52 112 126 165 126c17 0 40 -14 49 -28
c0 -6 -16 -10 -20 -11c-42 -16 -86 -54 -101 -96z" />
    <glyph glyph-name="ecaron" unicode="&#x11b;" horiz-adv-x="267" 
d="M264 263c0 -89 -129 -183 -158 -194c8 -22 27 -35 49 -32c71 10 136 122 165 198c3 8 9 20 17 20c20 0 31 -12 31 -35c0 -9 -1 -20 -5 -32c-17 -59 -71 -132 -102 -158c-33 -29 -75 -42 -115 -42c-36 0 -71 11 -94 33c-35 32 -45 84 -39 136c9 65 46 144 113 174
c13 6 26 9 40 9c11 0 23 -2 34 -7c31 -12 57 -35 64 -70zM182 227c11 19 12 39 7 44c-16 11 -47 -37 -56 -50c-11 -17 -29 -50 -39 -93c31 19 62 57 88 99zM117 483c0 23 15 33 32 33c18 0 38 -10 48 -27c0 -14 0 -28 4 -44c50 35 61 43 86 65c3 4 7 6 11 6
c17 0 41 -11 43 -30c-29 -39 -89 -110 -147 -110c-15 0 -37 4 -48 16c-21 21 -29 57 -29 91z" />
    <glyph glyph-name="ecircumflex" unicode="&#xea;" horiz-adv-x="267" 
d="M264 263c0 -89 -129 -183 -158 -194c8 -22 27 -35 49 -32c71 10 136 122 165 198c3 8 9 20 17 20c20 0 31 -12 31 -35c0 -9 -1 -20 -5 -32c-17 -59 -71 -132 -102 -158c-33 -29 -75 -42 -115 -42c-36 0 -71 11 -94 33c-35 32 -45 84 -39 136c9 65 46 144 113 174
c13 6 26 9 40 9c11 0 23 -2 34 -7c31 -12 57 -35 64 -70zM182 227c11 19 12 39 7 44c-16 11 -47 -37 -56 -50c-11 -17 -29 -50 -39 -93c31 19 62 57 88 99zM54 425c0 12 21 13 29 13c22 0 62 44 81 62c13 14 10 31 33 31c32 0 48 -14 60 -35c12 -20 36 -76 46 -103
c7 -3 19 -8 19 -16c0 -4 -1 -7 -3 -9c-8 -5 -20 -11 -34 -11c-43 0 -67 51 -85 83c-20 -20 -61 -59 -93 -59c-19 0 -53 27 -53 44z" />
    <glyph glyph-name="edieresis" unicode="&#xeb;" horiz-adv-x="267" 
d="M264 263c0 -89 -129 -183 -158 -194c8 -22 27 -35 49 -32c71 10 136 122 165 198c3 8 9 20 17 20c20 0 31 -12 31 -35c0 -9 -1 -20 -5 -32c-17 -59 -71 -132 -102 -158c-33 -29 -75 -42 -115 -42c-36 0 -71 11 -94 33c-35 32 -45 84 -39 136c9 65 46 144 113 174
c13 6 26 9 40 9c11 0 23 -2 34 -7c31 -12 57 -35 64 -70zM182 227c11 19 12 39 7 44c-16 11 -47 -37 -56 -50c-11 -17 -29 -50 -39 -93c31 19 62 57 88 99zM54 464c7 13 22 19 38 19c28 0 60 -18 60 -49c0 -30 -22 -63 -57 -63c-18 0 -35 6 -44 20c-4 12 -7 24 -7 35
c0 12 3 24 10 38zM255 486c31 0 60 -19 60 -54c0 -30 -22 -57 -62 -57c-34 0 -56 39 -46 69c11 25 18 42 48 42z" />
    <glyph glyph-name="egrave" unicode="&#xe8;" horiz-adv-x="267" 
d="M264 263c0 -89 -129 -183 -158 -194c8 -22 27 -35 49 -32c71 10 136 122 165 198c3 8 9 20 17 20c20 0 31 -12 31 -35c0 -9 -1 -20 -5 -32c-17 -59 -71 -132 -102 -158c-33 -29 -75 -42 -115 -42c-36 0 -71 11 -94 33c-35 32 -45 84 -39 136c9 65 46 144 113 174
c13 6 26 9 40 9c11 0 23 -2 34 -7c31 -12 57 -35 64 -70zM182 227c11 19 12 39 7 44c-16 11 -47 -37 -56 -50c-11 -17 -29 -50 -39 -93c31 19 62 57 88 99zM123 519c12 -41 36 -81 78 -101c10 1 17 -1 23 -10c8 -19 -29 -24 -46 -22c-47 7 -134 59 -141 119
c-2 20 30 32 46 32c13 0 36 -2 40 -18z" />
    <glyph glyph-name="eight" unicode="8" horiz-adv-x="376" 
d="M173 -31c-30 0 -76 4 -101 24c-7 -4 -17 -10 -24 -6c-23 13 -38 46 -25 78c8 25 124 145 127 152c-23 62 -74 115 -74 189c0 79 67 111 136 111c70 0 153 -39 153 -119c0 -71 -78 -146 -117 -194c30 -37 74 -100 74 -149c0 -63 -95 -86 -149 -86zM166 425
c-11 -48 16 -97 41 -148c20 25 84 106 84 139c0 37 -22 57 -58 57c-35 0 -57 -16 -67 -48zM196 149c-33 -33 -58 -70 -89 -105c18 -12 61 -17 84 -17c26 0 47 4 47 35c0 30 -24 65 -42 87z" />
    <glyph glyph-name="ellipsis" unicode="&#x2026;" horiz-adv-x="560" 
d="M184 -18c-5 -8 -31 -22 -54 -18c-20 4 -30 12 -38 20c-17 15 -7 50 9 66c7 7 19 10 31 10c13 0 27 -3 37 -8c15 -7 33 -41 15 -70zM344 -18c-5 -8 -31 -22 -54 -18c-20 4 -30 12 -38 20c-17 15 -7 50 9 66c7 7 19 10 31 10c13 0 27 -3 37 -8c15 -7 33 -41 15 -70z
M514 -18c-5 -8 -31 -22 -54 -18c-20 4 -30 12 -38 20c-17 15 -7 50 9 66c7 7 19 10 31 10c13 0 27 -3 37 -8c15 -7 33 -41 15 -70z" />
    <glyph glyph-name="emdash" unicode="&#x2014;" horiz-adv-x="878" 
d="M114 189c-3 12 17 16 43 16c38 0 91 -8 109 -8c91 0 182 -4 481 -4c23 -2 40 -14 53 -34c2 -6 2 -13 1 -20c-1 -5 -8 -8 -34 -8c-12 0 -28 1 -48 2c-62 2 -123 3 -186 3c-104 0 -211 -2 -327 -2c-24 3 -88 26 -92 55z" />
    <glyph glyph-name="endash" unicode="&#x2013;" horiz-adv-x="626" 
d="M85 183c-1 8 12 13 38 14c23 -1 47 -1 72 -1c44 0 89 1 134 1c55 0 110 -1 162 -5c25 0 57 -22 59 -50c-2 -12 -15 -16 -40 -11h1c-64 2 -117 2 -161 2c-49 0 -87 -1 -117 -1c-47 0 -75 2 -99 8c-16 4 -49 22 -49 43z" />
    <glyph glyph-name="eogonek" unicode="&#x119;" horiz-adv-x="267" 
d="M264 263c0 -89 -129 -183 -158 -194c8 -22 27 -35 49 -32c71 10 136 122 165 198c3 8 9 20 17 20c20 0 31 -12 31 -35c0 -9 -1 -20 -5 -32c-17 -59 -71 -132 -102 -158c-21 -18 -44 -30 -69 -36c-9 -19 -45 -50 -46 -76c0 -43 68 -25 60 -52c-4 -14 -30 -12 -36 -12
c-19 0 -42 4 -60 15c-22 13 -35 31 -35 53c0 13 4 27 13 42c4 7 12 17 21 28c-22 5 -42 14 -57 29c-35 32 -45 84 -39 136c9 65 46 144 113 174c13 6 26 9 40 9c11 0 23 -2 34 -7c31 -12 57 -35 64 -70zM182 227c11 19 12 39 7 44c-16 11 -47 -37 -56 -50
c-11 -17 -29 -50 -39 -93c31 19 62 57 88 99z" />
    <glyph glyph-name="equal" unicode="=" horiz-adv-x="510" 
d="M132 199h215c26 0 137 -4 137 -48c0 -9 -18 -14 -58 -16c-75 -4 -154 -5 -229 -5c-27 0 -50 2 -70 22c-15 16 -15 36 5 47zM165 342c9 -1 19 -1 30 -1c44 0 103 6 154 6c13 0 25 0 37 -1c31 -2 77 -14 86 -29c11 -18 -5 -29 -28 -32c-60 -7 -157 -17 -221 -15
c-29 1 -83 -2 -83 61c0 10 14 18 25 11z" />
    <glyph glyph-name="eth" unicode="&#xf0;" horiz-adv-x="275" 
d="M155 429c-24 0 -36 9 -36 19c0 7 6 15 18 22c20 5 43 22 54 31c-4 17 -33 82 -33 83c0 3 2 7 5 9h-1c3 5 9 6 14 6c11 0 22 -5 32 -9c31 -13 42 -27 55 -58c9 3 18 5 27 5c16 0 47 -9 47 -30c0 -5 -58 -25 -58 -28c8 -34 11 -70 11 -105c0 -110 -49 -272 -126 -354
c-17 -18 -43 -39 -69 -39c-49 0 -92 52 -92 102c0 61 53 246 140 246c27 0 36 -5 57 -21c6 42 8 68 8 93c0 15 0 31 -2 46c-15 -9 -33 -18 -51 -18zM181 244c-3 8 -14 26 -25 26c-41 0 -77 -192 -81 -225c56 64 83 128 106 199z" />
    <glyph glyph-name="exclam" unicode="!" horiz-adv-x="287" 
d="M350 543c-43 -128 -88 -258 -121 -394l-1 -14c-15 -28 -75 2 -73 29c21 99 23 101 41 174l58 215c1 7 13 47 13 52c-1 16 13 21 32 18c15 -2 74 -19 51 -80zM214 -18c-5 -8 -31 -22 -54 -18c-20 4 -30 12 -38 20c-17 15 -7 50 9 66c7 7 19 10 31 10c13 0 27 -3 37 -8
c15 -7 33 -41 15 -70z" />
    <glyph glyph-name="exclamdown" unicode="&#xa1;" horiz-adv-x="313" 
d="M127 -22c16 59 75 282 106 344h-1c6 8 19 10 28 10c12 0 42 -7 42 -23c0 -38 -41 -152 -52 -201c-10 -28 -33 -130 -33 -144c0 -2 0 -4 1 -6c1 -17 -19 -22 -32 -22c-23 0 -53 15 -59 42zM240 471c0 1 10 37 10 53c0 3 3 4 5 5h-5c3 8 15 9 23 9c35 0 67 -19 67 -58
c0 -23 -24 -41 -46 -41c-21 0 -39 14 -53 28c0 1 -1 3 -1 4z" />
    <glyph glyph-name="f" unicode="f" horiz-adv-x="217" 
d="M218 287c-38 -64 -74 -112 -123 -173c12 -4 23 -6 34 -6c62 0 115 57 139 127c5 16 15 23 24 23c12 0 24 -13 24 -32c0 -83 -78 -162 -160 -176c21 -31 28 -73 28 -115c0 -63 -23 -203 -114 -203c-73 0 -90 57 -96 127c-1 10 -1 21 -1 33c0 74 18 173 34 256
c28 139 105 393 190 405c29 2 62 -7 76 -22c11 -13 16 -31 16 -52c0 -50 -29 -120 -71 -192zM58 -216c28 47 56 140 56 204c0 22 -4 41 -12 53l-21 17c-9 -66 -28 -144 -28 -216c0 -20 1 -39 5 -58zM214 492c-38 -48 -77 -173 -103 -268c63 100 98 170 107 204
c2 7 6 20 6 34c0 10 -3 21 -10 30z" />
    <glyph glyph-name="f.salt" unicode="&#xe4c5;" horiz-adv-x="219" 
d="M18 273l53 4l2 9c14 67 60 260 142 265c48 2 81 -30 88 -62c1 -28 -3 -41 -4 -64c-1 -25 -46 -8 -52 6c-6 16 -7 28 -10 64c-38 -19 -76 -197 -79 -213l-1 -2h30c24 0 41 -1 53 -6c14 -5 34 -11 45 -22c6 -9 -4 -15 -32 -15c-14 1 -9 1 -107 -7
c-26 -119 -57 -322 -54 -451c1 -16 -3 -19 -22 -20c-35 -1 -58 14 -59 50c-3 88 26 320 48 413c-54 -1 -61 28 -59 32c1 5 -1 15 18 19z" />
    <glyph glyph-name="f_o.end" unicode="&#xe032;" horiz-adv-x="480" 
d="M187 47c-7 82 20 168 50 228l-96 -15c-26 -119 -64 -352 -61 -481c1 -16 -3 -19 -22 -20c-35 -1 -54 35 -55 71c-3 88 30 328 52 421c-54 -1 -56 25 -58 29c0 5 0 18 18 25l54 11l3 14c14 67 49 216 131 221c48 2 79 -27 86 -62c2 -30 -8 -57 -21 -74
c-16 -21 -46 -6 -45 10c1 11 2 26 2 41c0 12 -1 22 -4 29c-38 -19 -61 -152 -65 -170l119 10l5 5c25 27 72 18 74 5c1 -4 -2 -9 -4 -13c40 -3 122 18 155 43c10 10 17 25 29 22c15 -3 26 -38 23 -52c-7 -44 -117 -67 -154 -69c16 -23 20 -50 20 -62
c-2 -75 -49 -222 -108 -247h1c-8 -5 -14 -7 -22 -8c-43 -3 -103 39 -107 88zM270 19c23 -4 86 148 90 224c1 16 -35 34 -45 22c-47 -55 -72 -239 -45 -246z" />
    <glyph glyph-name="fi" unicode="&#xfb01;" horiz-adv-x="391" 
d="M268 21c-24 26 -34 62 -34 104c0 34 7 72 18 112c-13 1 -10 1 -81 -3l-25 -4c-26 -119 -57 -322 -54 -451c1 -16 -3 -19 -22 -20c-35 -1 -54 35 -55 71c-3 88 22 299 44 392c-54 -1 -61 28 -59 32c1 5 -1 15 18 19l53 4l2 9c14 67 60 260 142 265c48 2 79 -27 86 -62
c2 -30 -8 -57 -21 -74c-16 -21 -46 -6 -45 10c1 11 2 26 2 41c0 12 -1 22 -4 29c-38 -19 -72 -197 -75 -213l-1 -2l29 1c10 0 38 0 54 -7c6 -2 13 -4 20 -7c4 12 8 24 13 36c4 8 19 8 26 8c21 0 60 -21 55 -43c-7 -31 -39 -132 -39 -192c0 -13 2 -23 5 -31
c30 13 77 75 120 190c3 8 9 20 17 20c20 0 31 -15 31 -39c0 -10 -1 -21 -5 -33c-17 -59 -67 -139 -80 -153c-18 -19 -54 -33 -80 -33c-22 0 -41 9 -56 24h1zM392 490c13 0 25 -4 34 -16c12 -21 -8 -65 -25 -86c-16 -19 -31 -30 -42 -34c-15 -3 -28 -1 -35 12
c-5 10 -7 21 -7 32c0 42 33 87 75 92z" />
    <glyph glyph-name="five" unicode="5" horiz-adv-x="400" 
d="M124 504c34 18 188 -7 217 30c10 12 17 7 23 -1c14 -19 -1 -54 -9 -68c-17 -22 -73 -27 -124 -27c-15 0 -30 0 -43 1c-23 -46 -37 -91 -52 -144c33 6 80 17 113 13c49 -5 103 -51 100 -127c-2 -73 -104 -152 -158 -189c-27 -16 -57 -32 -90 -29c-22 2 -66 23 -64 51
c1 8 11 9 17 9c7 -1 14 -2 20 -5c22 8 42 19 61 31c47 35 139 90 139 161c0 12 -2 24 -8 37c-44 0 -86 -24 -131 -20c-32 2 -82 54 -80 88c10 57 39 145 69 189z" />
    <glyph glyph-name="four" unicode="4" horiz-adv-x="336" 
d="M137 159c-53 0 -97 26 -109 83c16 69 131 213 228 294c-4 21 82 -12 78 -34c-23 -128 -71 -376 -76 -525h-1c1 -2 2 -4 2 -6c0 -10 -16 -12 -23 -12c-16 0 -62 19 -60 37c6 56 13 112 21 167c-20 -1 -40 -4 -60 -4zM238 427c-12 -17 -129 -172 -129 -206
c0 -12 12 -13 23 -12l71 4c11 64 22 148 35 214z" />
    <glyph glyph-name="fraction" unicode="&#x2044;" horiz-adv-x="395" 
d="M488 496c-56 -68 -178 -220 -161 -200c-125 -169 -157 -218 -183 -270c-8 -15 -10 -28 -8 -39c3 -9 -5 -15 -24 -18c-22 -2 -45 10 -54 32c-7 25 2 50 16 74c71 121 263 386 353 460c23 8 68 6 76 -25c1 -2 -4 -7 -15 -14z" />
    <glyph glyph-name="g" unicode="g" horiz-adv-x="339" 
d="M318 250c-17 -54 -30 -127 -46 -202c34 26 78 85 119 187c3 8 9 20 17 20c20 0 30 -14 30 -37c0 -10 -2 -22 -6 -35c-31 -98 -93 -187 -184 -242c-30 -94 -88 -213 -170 -222c-27 -3 -55 10 -73 26c-19 17 -38 42 -38 71c0 10 2 20 7 30c23 50 110 89 200 139l22 117
c-22 -36 -82 -121 -120 -121c-45 0 -78 44 -78 86c0 91 63 248 161 273c34 -4 58 -18 78 -32c6 6 18 5 33 0c15 -6 25 -13 29 -17c9 -10 15 -17 16 -20c4 -7 5 -14 2 -21h1zM177 275c-31 -30 -86 -139 -101 -228c27 24 91 82 141 193c-6 17 -25 48 -40 35zM46 -222
c25 -11 72 53 95 106c-57 -42 -127 -86 -95 -106z" />
    <glyph glyph-name="g.end" unicode="&#xe2a6;" horiz-adv-x="468" 
d="M177 10c5 20 10 34 20 95c-19 -34 -82 -124 -121 -124c-45 0 -78 44 -78 86c0 91 63 248 161 273c31 -3 53 -15 72 -28c4 3 10 5 16 5c28 0 69 -24 69 -56c0 -10 -39 -176 -46 -209c34 14 71 24 110 24c28 0 58 -10 72 -29c8 -18 11 -40 -11 -42c-21 -2 -32 25 -47 24
c-58 -5 -108 -39 -146 -68c-23 -73 -65 -236 -169 -236c-41 0 -103 35 -106 81c-6 86 161 176 204 204zM177 275c-31 -30 -86 -139 -101 -228c27 24 91 82 141 193c-6 17 -25 48 -40 35zM147 -98c-38 -24 -70 -52 -86 -78c-9 -14 -21 -50 4 -56c34 16 66 90 82 134z" />
    <glyph glyph-name="g.salt" unicode="&#xe4c6;" horiz-adv-x="339" 
d="M-109 -144c10 23 63 5 70 -18c-6 -13 -12 -28 -12 -39c0 -15 11 -25 43 -21c54 7 122 81 163 186c16 41 31 88 39 134c-24 -37 -81 -117 -118 -117c-45 0 -78 44 -78 86c0 91 63 248 161 273c34 -4 58 -18 78 -32c6 6 18 5 33 0c15 -6 25 -13 29 -17c9 -10 15 -17 16 -20
c4 -7 5 -14 2 -21h1c-21 -101 -38 -195 -79 -295c-47 -125 -130 -232 -253 -220c-64 7 -101 45 -101 90c0 10 2 20 6 31zM177 275c-31 -30 -86 -139 -101 -228c27 24 91 82 141 193c-6 17 -25 48 -40 35z" />
    <glyph glyph-name="germandbls" unicode="&#xdf;" horiz-adv-x="428" 
d="M201 210l-7 6c46 54 155 193 146 269c-91 -75 -186 -237 -248 -513c0 -11 -18 -11 -25 -11c-45 0 -60 19 -51 53c36 162 69 272 108 475h-1c2 12 11 17 23 17c21 0 50 -17 55 -41c-8 -44 -10 -29 -19 -73c27 48 112 150 164 148c41 -2 66 -44 68 -68
c6 -72 -59 -160 -100 -219c46 0 96 -40 96 -89c0 -90 -86 -184 -182 -184c-27 0 -84 13 -84 37c0 9 10 15 19 15c13 0 24 -7 39 -7c51 0 131 94 131 148c0 22 -2 47 -17 47c-27 0 -42 -34 -69 -34c-16 0 -34 10 -46 24z" />
    <glyph glyph-name="grave" unicode="`" horiz-adv-x="366" 
d="M197 519c12 -41 36 -81 78 -101c10 1 17 -1 23 -10c8 -19 -29 -24 -46 -22c-47 7 -134 59 -141 119c-2 20 30 32 46 32c13 0 36 -2 40 -18z" />
    <glyph glyph-name="greater" unicode="&#x3e;" horiz-adv-x="414" 
d="M102 365c-11 11 -12 25 -9 41c2 15 22 46 39 46c28 0 59 -35 198 -118c30 -18 55 -43 55 -74c0 -24 -16 -53 -56 -84c-70 -53 -172 -103 -219 -103c-14 0 -55 20 -52 37c2 9 13 13 16 14c52 26 201 84 240 124c-19 3 -208 105 -212 117z" />
    <glyph glyph-name="greaterequal" unicode="&#x2265;" horiz-adv-x="441" 
d="M195 398c61 -49 145 -85 205 -133c11 -7 17 -21 17 -37c0 -26 -16 -57 -50 -69c-72 -24 -147 -37 -225 -70c-19 -8 -25 -16 -34 -16c-15 0 -21 18 -21 35c0 13 4 27 11 32c62 44 168 61 236 83c1 9 -58 44 -70 52c-9 6 -77 42 -111 75c-22 22 -3 58 17 64
c10 3 19 -6 25 -16zM76 37c56 0 111 1 173 1c51 0 146 -5 140 -44c-1 -11 -20 -11 -27 -11c-80 0 -177 -1 -257 -1c-31 0 -78 55 -29 55z" />
    <glyph glyph-name="guillemotleft" unicode="&#xab;" horiz-adv-x="418" 
d="M290 294c-11 -16 -89 -113 -89 -126c0 -4 6 -17 8 -21c4 -10 46 -74 46 -77c0 -11 -27 -17 -38 -17c-18 0 -40 10 -52 25c-20 28 -51 67 -51 104c0 23 93 116 109 144c5 6 12 10 20 10c21 0 39 -19 47 -42zM400 253c0 -24 -64 -63 -72 -96c12 -27 27 -52 44 -79
c4 -9 -2 -18 -4 -20c-5 -5 -21 -8 -28 -8c-6 0 -12 2 -18 4c-26 13 -31 21 -50 47c-3 4 -34 46 -34 54c0 23 2 30 18 47l43 47c11 12 24 24 32 37c3 8 9 13 18 13c11 0 35 -15 40 -25c2 -4 11 -16 11 -21z" />
    <glyph glyph-name="guillemotright" unicode="&#xbb;" horiz-adv-x="356" 
d="M164 294c8 23 26 42 47 42c8 0 15 -4 20 -10c16 -28 109 -121 109 -144c0 -37 -31 -76 -51 -104c-12 -15 -34 -25 -52 -25c-11 0 -38 6 -38 17c0 3 42 67 46 77c2 4 8 17 8 21c0 13 -78 110 -89 126zM54 253c0 5 9 17 11 21c5 10 29 25 40 25c9 0 15 -5 18 -13
c8 -13 21 -25 32 -37l43 -47c16 -17 18 -24 18 -47c0 -8 -31 -50 -34 -54c-19 -26 -24 -34 -50 -47c-6 -2 -12 -4 -18 -4c-7 0 -23 3 -28 8c-2 2 -8 11 -4 20c17 27 32 52 44 79c-8 33 -72 72 -72 96z" />
    <glyph glyph-name="guilsinglleft" unicode="&#x2039;" horiz-adv-x="374" 
d="M327 355c-27 -45 -59 -80 -87 -116c-1 -33 53 -107 53 -108c0 -14 -33 -16 -43 -16c-30 0 -46 20 -62 45c-24 35 -38 66 -38 83c0 19 65 88 73 97c13 15 25 31 38 47c5 6 11 10 19 10c21 0 39 -20 47 -42z" />
    <glyph glyph-name="guilsinglright" unicode="&#x203a;" horiz-adv-x="374" 
d="M191 415c13 -9 47 -53 114 -136c6 -7 20 -28 20 -38c0 -25 -34 -62 -48 -76c-13 -14 -27 -27 -41 -41c-11 -11 -24 -21 -40 -21s-34 20 -34 36c0 9 5 16 10 22c12 14 72 70 66 89c-11 27 -45 61 -65 84c-28 36 -29 44 -29 61c0 13 15 29 28 29c7 0 14 -4 19 -9z" />
    <glyph glyph-name="h" unicode="h" horiz-adv-x="386" 
d="M253 22c-22 24 -29 64 -29 104c0 32 5 65 10 90c-32 -36 -38 -39 -104 -147c-13 -21 -29 -61 -35 -82c-6 -22 -89 6 -89 45c13 128 71 377 100 478c2 6 12 44 13 54c1 12 4 19 13 20c25 2 76 -24 74 -48c-3 -32 -19 -81 -29 -120c-44 -173 -51 -230 -54 -235
c35 50 102 128 145 114c27 -9 67 -41 61 -75c-8 -42 -18 -97 -18 -137c0 -15 1 -29 5 -38c31 3 89 102 120 190c3 8 9 20 17 20c21 0 33 -13 33 -37c0 -9 -2 -19 -5 -31c-17 -59 -69 -143 -82 -157c-20 -21 -48 -32 -77 -32c-24 0 -49 8 -69 24z" />
    <glyph glyph-name="h.end" unicode="&#xe2a7;" horiz-adv-x="336" 
d="M282 -28c-39 35 -46 112 -46 241c-32 -36 -40 -36 -106 -144c-13 -21 -29 -61 -35 -82c-6 -22 -89 6 -89 45c13 83 112 520 117 549c2 11 -2 30 17 31c15 1 42 -10 66 -32c15 -11 -76 -375 -82 -395c35 50 101 124 144 110c27 -9 62 -40 61 -75c-1 -36 -5 -82 -5 -126
c0 -36 3 -71 12 -99c11 -5 47 14 48 -19c1 -18 -18 -29 -41 -29c-19 0 -42 8 -61 25z" />
    <glyph glyph-name="h.salt" unicode="&#xe4c7;" horiz-adv-x="368" 
d="M282 -28c-39 35 -46 112 -46 241c-32 -36 -40 -36 -106 -144c-13 -21 -29 -61 -35 -82c-6 -22 -89 6 -89 45c13 83 112 520 117 549c2 11 -2 30 17 31c15 1 42 -10 66 -32c15 -11 -76 -375 -82 -395c35 50 101 124 144 110c27 -9 62 -40 61 -75c-1 -36 -5 -82 -5 -126
c0 -36 3 -71 12 -99c11 -5 47 14 48 -19c1 -18 -18 -29 -41 -29c-19 0 -42 8 -61 25z" />
    <glyph glyph-name="hungarumlaut" unicode="&#x2dd;" horiz-adv-x="406" 
d="M176 500c-5 -10 -13 -42 -31 -42c-25 0 -62 21 -62 51c0 52 112 126 165 126c17 0 40 -14 49 -28c0 -6 -16 -10 -20 -11c-42 -16 -86 -54 -101 -96zM326 490c-5 -10 -13 -42 -31 -42c-25 0 -62 21 -62 51c0 52 112 126 165 126c17 0 40 -14 49 -28c0 -6 -16 -10 -20 -11
c-42 -16 -86 -54 -101 -96z" />
    <glyph glyph-name="hyphen" unicode="-" horiz-adv-x="555" 
d="M393 209c43 -4 85 -5 110 -21c13 -8 20 -19 20 -29c0 -12 -10 -21 -31 -21h-253c-22 0 -58 21 -58 55c0 20 32 21 42 21h78c31 0 61 -2 92 -5z" />
    <glyph glyph-name="i" unicode="i" horiz-adv-x="174" 
d="M163 504c13 0 25 -4 34 -16c12 -21 -8 -65 -25 -86c-16 -19 -31 -30 -42 -34c-15 -3 -28 -1 -35 12c-5 10 -7 21 -7 32c0 42 33 87 75 92zM51 21c-24 26 -34 62 -34 104c0 52 16 114 39 178c4 8 19 8 26 8c21 0 60 -21 55 -43c-7 -31 -39 -132 -39 -192
c0 -13 2 -23 5 -31c30 13 77 75 120 190c3 8 9 20 17 20c20 0 31 -15 31 -39c0 -10 -1 -21 -5 -33c-17 -59 -67 -139 -80 -153c-18 -19 -54 -33 -80 -33c-22 0 -41 9 -56 24h1z" />
    <glyph glyph-name="i_e.end" unicode="&#xe004;" horiz-adv-x="482" 
d="M420 263c1 -58 -60 -139 -132 -196c10 -14 26 -19 44 -19c59 0 146 61 168 118c3 8 9 20 17 20c20 0 31 -15 31 -39c0 -10 -1 -21 -5 -33c-25 -88 -97 -130 -171 -130c-44 0 -88 15 -125 43l-7 6c-34 -21 -69 -34 -98 -35c-78 -3 -118 69 -111 139c4 57 22 110 37 166
c4 8 11 12 20 12c16 2 62 -14 63 -33c1 -4 -1 -8 -2 -11c-11 -37 -25 -87 -34 -132c-4 -22 -7 -42 -7 -58c0 -18 3 -30 12 -34c22 -9 71 27 86 41c-8 21 -12 47 -12 74c0 83 39 177 129 185c47 4 96 -36 97 -84zM171 507c20 1 32 -7 41 -19c12 -21 1 -65 -23 -92
c-15 -17 -34 -26 -51 -26c-12 0 -23 5 -29 14c-7 11 -10 22 -10 35c0 40 32 83 72 88zM342 292c-46 -22 -63 -87 -68 -145c31 36 83 109 68 145z" />
    <glyph glyph-name="iacute" unicode="&#xed;" horiz-adv-x="174" 
d="M51 21c-24 26 -34 62 -34 104c0 52 16 114 39 178c4 8 19 8 26 8c21 0 60 -21 55 -43c-7 -31 -39 -132 -39 -192c0 -13 2 -23 5 -31c30 13 77 75 120 190c3 8 9 20 17 20c20 0 31 -15 31 -39c0 -10 -1 -21 -5 -33c-17 -59 -67 -139 -80 -153c-18 -19 -54 -33 -80 -33
c-22 0 -41 9 -56 24h1zM179 398c-5 -10 -13 -42 -31 -42c-25 0 -62 21 -62 51c0 52 112 126 165 126c17 0 40 -14 49 -28c0 -6 -16 -10 -20 -11c-42 -16 -86 -54 -101 -96z" />
    <glyph glyph-name="icircumflex" unicode="&#xee;" horiz-adv-x="174" 
d="M51 21c-24 26 -34 62 -34 104c0 52 16 114 39 178c4 8 19 8 26 8c21 0 60 -21 55 -43c-7 -31 -39 -132 -39 -192c0 -13 2 -23 5 -31c30 13 77 75 120 190c3 8 9 20 17 20c20 0 31 -15 31 -39c0 -10 -1 -21 -5 -33c-17 -59 -67 -139 -80 -153c-18 -19 -54 -33 -80 -33
c-22 0 -41 9 -56 24h1zM-13 436c0 12 21 13 29 13c22 0 62 44 81 62c13 14 10 31 33 31c32 0 48 -14 60 -35c12 -20 36 -76 46 -103c7 -3 19 -8 19 -16c0 -4 -1 -7 -3 -9c-8 -5 -20 -11 -34 -11c-43 0 -67 51 -85 83c-20 -20 -61 -59 -93 -59c-19 0 -53 27 -53 44z" />
    <glyph glyph-name="idieresis" unicode="&#xef;" horiz-adv-x="174" 
d="M51 21c-24 26 -34 62 -34 104c0 52 16 114 39 178c4 8 19 8 26 8c21 0 60 -21 55 -43c-7 -31 -39 -132 -39 -192c0 -13 2 -23 5 -31c30 13 77 75 120 190c3 8 9 20 17 20c20 0 31 -15 31 -39c0 -10 -1 -21 -5 -33c-17 -59 -67 -139 -80 -153c-18 -19 -54 -33 -80 -33
c-22 0 -41 9 -56 24h1zM-8 455c7 13 22 19 38 19c28 0 60 -18 60 -49c0 -30 -22 -63 -57 -63c-18 0 -35 6 -44 20c-4 12 -7 24 -7 35c0 12 3 24 10 38zM193 477c31 0 60 -19 60 -54c0 -30 -22 -57 -62 -57c-34 0 -56 39 -46 69c11 25 18 42 48 42z" />
    <glyph glyph-name="igrave" unicode="&#xec;" horiz-adv-x="174" 
d="M51 21c-24 26 -34 62 -34 104c0 52 16 114 39 178c4 8 19 8 26 8c21 0 60 -21 55 -43c-7 -31 -39 -132 -39 -192c0 -13 2 -23 5 -31c30 13 77 75 120 190c3 8 9 20 17 20c20 0 31 -15 31 -39c0 -10 -1 -21 -5 -33c-17 -59 -67 -139 -80 -153c-18 -19 -54 -33 -80 -33
c-22 0 -41 9 -56 24h1zM77 519c12 -41 36 -81 78 -101c10 1 17 -1 23 -10c8 -19 -29 -24 -46 -22c-47 7 -134 59 -141 119c-2 20 30 32 46 32c13 0 36 -2 40 -18z" />
    <glyph glyph-name="j" unicode="j" horiz-adv-x="170" 
d="M148 250c-17 -54 -30 -129 -46 -205c35 34 84 99 119 190c3 8 9 20 17 20c20 0 31 -15 31 -39c0 -10 -1 -21 -5 -33c-30 -96 -99 -188 -188 -243c-24 -84 -57 -160 -110 -202c-15 -13 -37 -19 -58 -19c-27 0 -55 10 -73 26c-19 17 -38 42 -38 71c0 10 2 20 7 30
c23 50 110 89 200 139l59 317c5 12 18 13 37 6c22 -9 52 -29 48 -58zM100 376c-11 7 -20 17 -24 34c-4 27 26 60 46 72c20 11 36 14 46 12c14 -5 25 -14 27 -30c6 -60 -48 -109 -95 -88zM-124 -222c25 -11 72 53 95 106c-57 -42 -127 -86 -95 -106z" />
    <glyph glyph-name="k" unicode="k" horiz-adv-x="340" 
d="M141 247c34 34 87 70 139 67c21 0 54 -12 60 -36c2 -10 -9 -14 -32 -11c-36 5 -106 -66 -131 -95c-13 -15 -45 -62 -45 -92c0 -17 10 -29 42 -25c36 4 144 28 203 144c11 22 30 27 45 18c12 -11 14 -23 6 -47c-55 -131 -182 -176 -238 -173c-33 1 -67 13 -95 34
c-5 -37 -10 -59 -7 -67c4 -15 -4 -27 -27 -22c-21 3 -55 25 -55 51c0 156 97 397 107 502c2 27 10 27 33 22c21 -6 52 -24 54 -47c2 -28 -46 -188 -59 -223z" />
    <glyph glyph-name="k.end" unicode="&#xe2aa;" horiz-adv-x="382" 
d="M129 225l5 4h-1c37 37 91 79 146 79c29 0 34 -7 58 -23h-1c3 -4 7 -8 7 -13c0 -10 -12 -12 -19 -12c-65 0 -197 -109 -190 -177c2 -18 17 -25 40 -25c67 0 195 61 214 84c17 20 15 26 25 29c8 2 22 -14 22 -36c0 -9 -2 -19 -8 -29c-34 -61 -145 -104 -219 -104
c-37 0 -85 5 -114 29c-7 -27 -7 -38 -6 -49c1 -13 3 -19 -17 -19c-30 0 -60 26 -60 57c0 50 31 204 45 257c18 69 25 122 49 189c8 23 21 43 48 43c5 0 26 -2 29 -5h-2c10 -5 24 -12 24 -25c0 -4 -13 -31 -15 -38l-15 -50c-16 -54 -32 -111 -45 -166z" />
    <glyph glyph-name="k_e.end" unicode="&#xe006;" horiz-adv-x="607" 
d="M411 85c3 -28 21 -50 42 -53c59 -9 156 68 179 128c3 8 9 20 17 20c20 0 31 -15 31 -39c0 -10 -1 -21 -5 -33c-24 -84 -94 -130 -167 -136c-63 -5 -130 16 -163 81c-53 -26 -101 -42 -147 -42c-35 0 -68 9 -101 29c0 -12 -3 -26 -3 -69c1 -2 2 -5 2 -8c0 -7 -6 -9 -12 -9
c-29 0 -63 27 -69 48c-13 42 63 358 107 510c8 30 -6 42 27 39c21 -2 60 -16 60 -37c-5 -24 -22 -94 -75 -278c29 32 84 74 133 74c12 0 23 -3 34 -8c11 -6 22 -13 30 -24c3 -6 4 -15 -26 -15c-32 0 -74 -32 -95 -54c-25 -26 -71 -75 -71 -118c0 -19 15 -33 33 -33
c55 0 112 32 160 60c-4 102 58 215 163 215c51 0 88 -36 88 -79c0 -13 -4 -27 -11 -41c-24 -44 -94 -90 -161 -128zM515 265c-32 23 -79 -50 -91 -91c18 13 100 76 91 91z" />
    <glyph glyph-name="l" unicode="l" horiz-adv-x="209" 
d="M108 152c-3 -14 -4 -28 -4 -43c0 -37 8 -72 20 -86c28 -1 101 104 135 212c3 8 9 20 17 20c20 0 31 -15 31 -39c0 -53 -62 -170 -95 -206c-24 -24 -53 -37 -82 -37c-17 0 -34 5 -49 14c-43 26 -58 98 -58 157c0 165 71 404 129 470c17 18 33 26 50 26c14 0 29 -5 46 -15
h-1c34 -19 51 -53 42 -93c-26 -120 -129 -311 -181 -380zM129 297c23 38 77 161 97 235c7 21 8 58 -11 35c-23 -31 -72 -182 -86 -270z" />
    <glyph glyph-name="l.calt" unicode="&#xe01d;" horiz-adv-x="192" 
d="M217 559c-23 -72 -125 -399 -125 -506c0 -20 3 -33 12 -34c30 9 99 112 138 216c3 8 9 20 17 20c20 0 31 -15 31 -39c0 -51 -65 -176 -99 -212c-21 -22 -47 -38 -76 -38c-51 0 -105 38 -102 127c0 84 37 220 93 406c23 77 30 97 33 102c11 32 81 -6 78 -42z" />
    <glyph glyph-name="l.end" unicode="&#xe2ab;" horiz-adv-x="209" 
d="M289 532c-25 -116 -122 -298 -176 -372c-1 -9 -1 -18 -1 -29c0 -55 12 -127 47 -145c26 -6 43 28 63 28c14 0 25 -15 25 -25c0 -19 -22 -41 -57 -41c-47 0 -85 17 -117 52c-28 35 -50 86 -50 144c0 165 71 404 129 470c17 18 33 26 50 26c14 0 29 -5 46 -15h-1
c34 -19 51 -53 42 -93zM129 297c23 38 77 161 97 235c7 21 8 58 -11 35c-23 -31 -72 -182 -86 -270z" />
    <glyph glyph-name="l.salt" unicode="&#xe4cb;" horiz-adv-x="209" 
d="M129 297c-15 -62 -20 -120 -20 -166c0 -60 8 -100 15 -108c28 -1 101 104 135 212c3 8 9 20 17 20c20 0 31 -15 31 -39c0 -53 -62 -170 -95 -206c-24 -24 -53 -37 -82 -37c-17 0 -34 5 -49 14c-43 26 -58 98 -58 157s14 151 38 243c-189 28 -455 131 -567 129
c-50 -1 -8 -21 -27 -57c-15 -11 -37 -3 -42 16c2 49 33 121 106 124c159 7 381 -122 545 -153c32 105 88 223 152 226c66 3 94 -46 94 -98c0 -16 -3 -33 -8 -48c-21 -61 -65 -127 -164 -140c-9 -35 -17 -62 -21 -89zM249 612c-37 -5 -64 -107 -85 -172c17 2 32 6 46 13
c38 19 63 72 63 112c0 22 -7 40 -24 47z" />
    <glyph glyph-name="l_l.end" unicode="&#xe022;" horiz-adv-x="440" 
d="M39 33c-18 27 -26 72 -26 126c0 171 78 436 152 515c13 14 37 21 55 19c54 -3 90 -42 78 -94c-36 -161 -149 -367 -205 -464c-2 -47 2 -93 19 -103c33 -6 81 42 122 106v1c-5 165 64 387 122 453c17 18 33 26 50 26c14 0 29 -5 46 -15h-1c34 -19 50 -62 44 -103
c-12 -82 -83 -250 -171 -374v-6c0 -39 4 -105 47 -131c38 0 45 31 65 32c15 1 22 -16 22 -26c0 -19 -19 -47 -54 -47c-47 0 -85 17 -117 52c-11 14 -21 30 -28 47c-43 -44 -87 -72 -129 -72c-33 0 -64 17 -91 58zM108 285c23 38 100 224 120 298c7 21 8 58 -11 35
c-23 -31 -95 -245 -109 -333zM328 278c23 38 82 158 102 232c7 21 8 58 -11 35c-23 -31 -77 -179 -91 -267z" />
    <glyph glyph-name="lacute" unicode="&#x13a;" horiz-adv-x="209" 
d="M108 152c-3 -14 -4 -28 -4 -43c0 -37 8 -72 20 -86c28 -1 101 111 135 212c3 8 9 20 17 20c20 0 31 -15 31 -39c0 -10 -1 -21 -5 -33c-17 -59 -77 -159 -90 -173c-19 -20 -51 -31 -83 -31c-93 0 -106 80 -106 165c0 165 71 404 129 470c17 18 33 26 50 26
c14 0 29 -5 46 -15h-1c34 -19 51 -53 42 -93c-26 -120 -129 -311 -181 -380zM129 297c23 38 77 161 97 235c7 21 8 58 -11 35c-23 -31 -72 -182 -86 -270zM324 711c-5 -10 -13 -42 -31 -42c-25 0 -62 21 -62 51c0 52 112 126 165 126c17 0 40 -14 49 -28
c0 -6 -16 -10 -20 -11c-42 -16 -86 -54 -101 -96z" />
    <glyph glyph-name="lcaron" unicode="&#x13e;" horiz-adv-x="449" 
d="M108 152c-3 -14 -4 -28 -4 -43c0 -37 8 -72 20 -86c28 -1 101 111 135 212c3 8 9 20 17 20c20 0 31 -15 31 -39c0 -10 -1 -21 -5 -33c-17 -59 -77 -159 -90 -173c-19 -20 -51 -31 -83 -31c-93 0 -106 80 -106 165c0 165 71 404 129 470c17 18 33 26 50 26
c14 0 29 -5 46 -15h-1c34 -19 51 -53 42 -93c-26 -120 -129 -311 -181 -380zM129 297c23 38 77 161 97 235c7 21 8 58 -11 35c-23 -31 -72 -182 -86 -270zM347 617c9 19 62 7 72 -7c11 -13 16 -27 16 -45c0 -37 -14 -104 -45 -130c-12 -8 -57 -6 -57 12c0 11 9 26 12 37
c7 22 11 48 11 71c0 20 -2 42 -9 62z" />
    <glyph glyph-name="less" unicode="&#x3c;" horiz-adv-x="471" 
d="M447 365c-6 -12 -212 -114 -232 -117c32 -40 171 -98 218 -124c3 -1 15 -5 15 -14c0 -17 -45 -37 -59 -37c-47 0 -141 50 -201 103c-30 27 -42 52 -42 74c0 36 31 64 68 84c153 83 191 118 219 118c17 0 31 -31 31 -46c0 -16 -4 -30 -17 -41z" />
    <glyph glyph-name="lessequal" unicode="&#x2264;" horiz-adv-x="360" 
d="M28 23c2 12 29 16 40 16h65c34 0 186 0 205 -12c11 -7 27 -17 24 -33c-1 -10 -24 -10 -30 -10c-80 0 -160 -1 -240 -1c-20 0 -68 6 -64 40zM355 333c-40 -56 -187 -79 -227 -115c60 -34 120 -59 181 -82c5 -2 59 -18 58 -30c-13 -17 -38 -28 -60 -28
c-32 0 -141 52 -183 72c-31 15 -95 40 -89 88c6 44 164 93 199 107h-1c21 9 44 19 62 35c8 7 15 13 25 13c22 0 38 -36 35 -60z" />
    <glyph glyph-name="lslash" unicode="&#x142;" horiz-adv-x="209" 
d="M-40 278c-2 6 7 11 25 16l54 10c24 132 72 263 113 310c17 18 33 26 50 26c14 0 29 -5 46 -15h-1c34 -19 51 -53 42 -93c-11 -49 -24 -82 -54 -95c-17 -3 -23 9 -23 26c0 21 9 49 14 69c7 21 8 58 -11 35c-21 -28 -63 -154 -81 -243l90 15c19 4 46 -7 51 -27
c1 -9 -8 -14 -27 -14l-123 -24c-12 -81 -16 -137 -16 -176c0 -44 6 -65 15 -75c28 -1 101 111 135 212c3 8 9 20 17 20c20 0 31 -15 31 -39c0 -10 -1 -21 -5 -33c-17 -59 -77 -159 -90 -173c-19 -20 -51 -31 -83 -31c-35 0 -70 13 -84 41c-16 30 -22 73 -22 123
c0 35 3 73 8 112c-10 -2 -19 -2 -28 -1c-13 1 -40 9 -43 24z" />
    <glyph glyph-name="m" unicode="m" horiz-adv-x="551" 
d="M404 44c-8 20 -11 42 -11 64c0 12 1 25 2 37c-28 -38 -63 -78 -84 -121c-9 -10 -21 -8 -34 -6c-25 3 -50 19 -58 44c-1 3 34 166 37 181c-39 -38 -60 -67 -146 -211l-8 -25c-4 -12 -17 -20 -41 -12c-26 10 -61 32 -61 66c0 66 47 183 85 257c6 8 16 11 27 11
c21 0 46 -11 54 -25c5 -8 5 -14 2 -19c-12 -7 -33 -63 -34 -73c30 38 59 83 111 112c34 19 86 -33 85 -70c-1 -28 -7 -62 -7 -84c17 20 64 80 105 111c17 15 88 -6 81 -35c-10 -42 -34 -106 -34 -159c0 -15 2 -29 7 -42c30 13 83 79 120 190c3 8 9 20 17 20
c20 0 33 -15 31 -39c-5 -52 -49 -147 -85 -186c-18 -19 -54 -30 -80 -30c-22 0 -65 9 -81 44z" />
    <glyph glyph-name="m.end" unicode="&#xe2ac;" horiz-adv-x="609" 
d="M517 243c0 -7 -7 -26 -11 -36c-10 -36 -16 -77 -16 -119c0 -15 2 -57 26 -57c29 0 67 28 92 52c16 20 26 35 39 36c51 5 -12 -141 -106 -139c-83 2 -135 57 -136 162c-20 -26 -40 -56 -98 -125h1c-5 -8 -13 -14 -23 -14c-22 0 -60 35 -64 56c-1 6 -1 12 -1 18l1 6
c9 47 21 106 35 153c-34 -23 -131 -186 -143 -211c-7 -19 -7 -37 -31 -37c-12 0 -35 9 -45 16h1c-12 10 -39 35 -39 51c0 56 41 158 65 221c7 19 16 53 41 53c28 0 67 -30 55 -51c-19 -55 -26 -69 -31 -82c35 38 72 113 132 113c34 0 78 -34 78 -70c0 -25 -6 -44 -13 -78
c31 41 65 90 113 119c5 4 11 5 17 5c20 0 61 -18 61 -42z" />
    <glyph glyph-name="minus" unicode="&#x2212;" horiz-adv-x="336" 
d="M56 286c-3 15 29 17 44 17h40c61 0 123 -1 184 -8c18 -5 41 -18 35 -40c-3 -9 -9 -12 -28 -9c-7 -1 -21 -1 -217 -1c-14 0 -24 4 -32 9c-11 8 -23 17 -26 32z" />
    <glyph glyph-name="mu" unicode="&#xb5;" horiz-adv-x="386" 
d="M150 564h1c3 3 7 3 10 3c22 0 65 -15 65 -42c0 -5 -2 -8 -4 -12h1c-26 -51 -121 -373 -127 -428c-1 -16 -6 -41 3 -56c35 22 88 113 113 165c22 46 73 204 80 218c7 22 21 46 49 46c26 0 63 -17 65 -49v-1c-31 -64 -97 -229 -97 -325c0 -15 2 -27 5 -38
c33 4 81 82 120 190c3 8 9 20 17 20c20 0 31 -15 31 -39c0 -10 -1 -21 -5 -33c-17 -59 -67 -139 -80 -153c-20 -21 -47 -31 -74 -31c-43 0 -86 27 -95 80c-27 -41 -60 -99 -115 -99c-19 0 -38 6 -54 15c-12 -36 -22 -72 -31 -109c-4 -20 -13 -44 -13 -66c0 -7 5 -11 5 -16
c0 -3 -3 -3 -6 -3c-27 0 -71 18 -71 51c0 75 199 698 207 712z" />
    <glyph glyph-name="n" unicode="n" horiz-adv-x="378" 
d="M312 -3c-61 0 -89 61 -89 120c0 40 8 84 18 120c-41 -48 -73 -106 -150 -244c-4 -15 -19 -16 -37 -6c-21 9 -52 32 -50 59c0 60 41 188 66 249c4 8 14 14 27 14c16 0 47 -9 57 -23c5 -7 1 -7 -9 -30c-7 -15 -17 -41 -30 -86c32 47 95 128 141 147c48 5 90 -36 80 -76
c-11 -43 -33 -103 -33 -155c0 -15 2 -28 6 -41c32 14 89 101 120 190c3 8 9 20 17 20c20 0 35 -14 32 -38c-6 -48 -50 -148 -86 -187c-18 -19 -54 -33 -80 -33z" />
    <glyph glyph-name="n.end" unicode="&#xe2ad;" horiz-adv-x="380" 
d="M153 278c0 -5 0 -9 -3 -11c-6 -21 -14 -42 -18 -64c30 40 102 128 139 126c40 -2 69 -52 69 -88c0 -50 -19 -99 -19 -153c0 -15 2 -57 26 -57c29 0 67 28 92 52c16 20 26 35 39 36c51 5 -12 -141 -106 -139c-83 2 -135 58 -135 141c0 42 9 81 16 121
c-76 -109 -135 -189 -155 -247c-2 -6 -8 -9 -14 -9c-24 0 -77 39 -77 61c0 46 46 214 69 254c3 6 9 9 16 9c21 0 46 -19 61 -32z" />
    <glyph glyph-name="nacute" unicode="&#x144;" horiz-adv-x="378" 
d="M312 -3c-39 0 -72 30 -83 67c-5 16 -6 34 -6 53c0 40 8 84 18 120c-41 -48 -73 -106 -115 -174l-35 -70c-5 -19 -26 -15 -51 3h1c-17 10 -40 27 -37 50c0 60 41 188 66 249c4 8 14 14 27 14c16 0 47 -9 57 -23c5 -7 1 -7 -9 -30c-7 -15 -17 -41 -30 -86
c32 47 95 128 141 147c48 5 90 -36 80 -76c-11 -44 -32 -119 -32 -166c0 -12 2 -22 5 -30c34 25 94 121 120 190c3 8 9 20 17 20c20 0 31 -15 31 -39c0 -10 -1 -21 -5 -33c-17 -59 -67 -139 -80 -153c-18 -19 -54 -33 -80 -33zM263 399c-5 -10 -13 -42 -31 -42
c-25 0 -62 21 -62 51c0 52 112 126 165 126c17 0 40 -14 49 -28c0 -6 -16 -10 -20 -11c-42 -16 -86 -54 -101 -96z" />
    <glyph glyph-name="ncaron" unicode="&#x148;" horiz-adv-x="378" 
d="M312 -3c-39 0 -72 30 -83 67c-5 16 -6 34 -6 53c0 40 8 84 18 120c-41 -48 -73 -106 -115 -174l-35 -70c-5 -19 -26 -15 -51 3h1c-17 10 -40 27 -37 50c0 60 41 188 66 249c4 8 14 14 27 14c16 0 47 -9 57 -23c5 -7 1 -7 -9 -30c-7 -15 -17 -41 -30 -86
c32 47 95 128 141 147c48 5 90 -36 80 -76c-11 -44 -32 -119 -32 -166c0 -12 2 -22 5 -30c34 25 94 121 120 190c3 8 9 20 17 20c20 0 31 -15 31 -39c0 -10 -1 -21 -5 -33c-17 -59 -67 -139 -80 -153c-18 -19 -54 -33 -80 -33zM142 455c0 23 15 33 32 33c18 0 38 -10 48 -27
c0 -14 0 -28 4 -44c50 35 61 43 86 65c3 4 7 6 11 6c17 0 41 -11 43 -30c-29 -39 -89 -110 -147 -110c-15 0 -37 4 -48 16c-21 21 -29 57 -29 91z" />
    <glyph glyph-name="nine" unicode="9" horiz-adv-x="337" 
d="M71 -5c-5 8 -15 29 -4 30c30 13 76 64 108 140c-84 -17 -138 50 -137 123c1 110 61 232 165 232c83 0 120 -50 122 -128c3 -114 -107 -353 -185 -413c-22 -18 -48 -11 -69 16zM136 210c24 0 28 29 52 29c4 0 14 -2 17 -3c25 60 41 125 41 193c0 13 -4 29 -15 42
c-69 0 -116 -160 -116 -208c0 -13 1 -53 21 -53z" />
    <glyph glyph-name="notequal" unicode="&#x2260;" horiz-adv-x="430" 
d="M425 500l-11 -5c-15 -24 -35 -45 -80 -115c16 -1 71 -1 80 -8c7 -3 26 -13 26 -23c0 -16 -19 -21 -31 -21c-41 0 -78 -3 -111 -7c-10 -14 -18 -28 -47 -82c14 0 147 2 168 -11c8 -4 37 -18 37 -32c0 -12 -20 -13 -28 -13c-21 -1 -42 -1 -63 -1h-43c-35 0 -70 -1 -105 -4
c-19 -37 -49 -82 -49 -127c0 -8 3 -14 3 -21c0 -16 -13 -22 -27 -22c-36 0 -60 41 -60 73c0 25 31 76 35 96c-20 0 -46 0 -64 10c-11 6 -30 19 -30 36c0 16 39 18 82 18h46c14 26 31 53 43 80c-19 0 -60 1 -77 7c-22 5 -53 23 -53 50c0 11 12 12 21 12c21 0 42 -6 63 -6h81
c24 37 82 137 122 158c6 4 14 6 21 6c19 0 55 -13 55 -38c0 -3 -2 -7 -4 -10z" />
    <glyph glyph-name="ntilde" unicode="&#xf1;" horiz-adv-x="378" 
d="M312 -3c-39 0 -72 30 -83 67c-5 16 -6 34 -6 53c0 40 8 84 18 120c-41 -48 -73 -106 -115 -174l-35 -70c-5 -19 -26 -15 -51 3h1c-17 10 -40 27 -37 50c0 60 41 188 66 249c4 8 14 14 27 14c16 0 47 -9 57 -23c5 -7 1 -7 -9 -30c-7 -15 -17 -41 -30 -86
c32 47 95 128 141 147c48 5 90 -36 80 -76c-11 -44 -32 -119 -32 -166c0 -12 2 -22 5 -30c34 25 94 121 120 190c3 8 9 20 17 20c20 0 31 -15 31 -39c0 -10 -1 -21 -5 -33c-17 -59 -67 -139 -80 -153c-18 -19 -54 -33 -80 -33zM104 415c31 42 50 56 84 55
c40 -1 49 -25 84 -51c7 4 18 13 18 23c0 15 9 28 31 19c12 -5 20 -14 25 -23c10 -39 -22 -77 -70 -77c-18 0 -63 19 -81 53c-17 -16 -26 -44 -44 -44c-21 0 -45 22 -47 45z" />
    <glyph glyph-name="numbersign" unicode="#" horiz-adv-x="484" 
d="M429 575c5 2 9 2 13 2c16 0 34 -16 49 -27c1 -2 2 -4 2 -7c0 -11 -23 -51 -62 -143c9 0 26 1 34 -2h-2c16 -3 46 -35 46 -51c0 -7 -27 -7 -31 -7c-24 0 -46 -1 -70 -2c-15 -44 -30 -88 -44 -133c17 0 91 6 91 -24c0 -20 -19 -23 -35 -25l-76 -8
c-14 -48 -35 -120 -35 -142c0 -13 -14 -18 -26 -18c-24 0 -53 16 -53 42c0 16 27 96 32 113c-30 -3 -62 -4 -83 -4l-32 -99l-14 -46c-2 -7 -16 -10 -22 -10c-19 0 -51 12 -51 37c0 35 20 75 32 115c-11 0 -41 -2 -48 9c-5 7 -12 15 -13 24c-3 29 67 27 86 29
c12 39 19 76 33 115c-3 -1 -32 -1 -35 -1c-19 0 -60 13 -60 37c0 22 78 26 118 32c13 42 28 84 43 125l9 26c2 7 39 13 47 13c13 0 46 -3 46 -21c0 -8 -8 -22 -11 -30l-39 -104l77 6c20 47 51 143 84 179zM242 319c-15 -42 -27 -79 -40 -122c25 0 50 3 76 3
c13 44 26 82 41 125c-26 -1 -51 -1 -77 -6z" />
    <glyph glyph-name="o" unicode="o" horiz-adv-x="305" 
d="M215 345c46 -11 64 -54 64 -106c0 -35 -8 -74 -22 -109l-4 -11c46 11 86 65 104 116c5 14 13 20 22 20c15 0 30 -17 26 -39c-15 -91 -92 -148 -174 -145c-19 -35 -45 -70 -77 -82c-9 -5 -19 -7 -29 -7c-40 0 -83 33 -101 67c-5 10 -7 26 -7 45c0 72 32 187 79 223
c8 4 16 8 28 2l2 -1c18 21 59 36 89 27zM218 253c-1 27 -9 41 -19 41c-9 0 -20 -11 -28 -32c-5 -18 -9 -36 -9 -53c0 -24 7 -47 24 -68c19 33 27 72 32 112zM106 147c-6 -24 -14 -44 -11 -95c6 -56 45 -3 69 36c-14 8 -47 29 -58 59z" />
    <glyph glyph-name="o.end" unicode="&#xe2ae;" horiz-adv-x="313" 
d="M11 61c5 174 106 303 132 305c14 1 57 0 57 -21c0 -4 -3 -8 -5 -12c40 -6 110 42 138 72c9 11 13 27 25 26c16 -1 31 -34 31 -49c0 -44 -93 -83 -130 -98c12 -13 13 -27 13 -39c0 -68 -78 -253 -139 -274h1c-8 -4 -15 -6 -23 -6c-43 0 -100 47 -100 96zM92 27
c23 -6 112 169 118 224c2 16 -53 -3 -58 2c-6 6 -86 -217 -60 -226z" />
    <glyph glyph-name="o_l.end" unicode="&#xe01c;" horiz-adv-x="432" 
d="M396 285c-14 -60 -32 -168 -32 -260c0 -44 4 -85 15 -114c15 -1 23 -10 23 -18c0 -9 -10 -18 -30 -15c-56 6 -82 95 -82 230c0 34 2 71 5 110c-14 -10 -49 -26 -53 -27c18 -68 -51 -224 -128 -218c-74 6 -104 68 -99 141c3 63 50 197 121 209c23 5 95 -7 93 -43
c-1 -8 -12 -10 -18 -9c-10 0 -18 4 -28 1c-50 -14 -92 -130 -92 -204c0 -18 2 -33 7 -44c32 12 71 87 71 148c0 12 -2 24 -5 34c-19 16 -15 34 15 33c41 -3 84 21 130 57c43 185 92 295 129 327c14 13 27 21 45 19c54 -3 79 -40 76 -93c-4 -81 -100 -198 -163 -264zM495 567
c-15 -23 -57 -113 -71 -164c56 80 83 154 71 164z" />
    <glyph glyph-name="o_m.end" unicode="&#xe00c;" horiz-adv-x="850" 
d="M424 226c26 33 70 83 109 83c34 0 78 -34 78 -70c0 -25 -6 -44 -13 -78c31 41 65 90 113 119c5 4 11 5 17 5c20 0 61 -18 61 -42c0 -7 -7 -26 -11 -36c-10 -36 -16 -77 -16 -119c0 -15 2 -57 26 -57c29 0 67 28 92 52c16 20 26 35 39 36c51 5 -12 -141 -106 -139
c-83 2 -135 57 -136 162c-20 -26 -40 -56 -97 -125c-5 -8 -13 -14 -23 -14c-22 0 -60 35 -64 56c-7 40 21 127 35 177c-22 -15 -70 -87 -105 -144l-34 -62c-9 -16 -8 -43 -30 -43c-16 0 -36 9 -49 18h1c-16 13 -32 29 -36 50c6 19 72 207 72 235c0 17 -70 -13 -83 -17
c-8 -4 5 -23 5 -34c0 -80 -60 -193 -128 -231c-5 -4 -12 -5 -18 -5c-57 0 -107 47 -107 103c0 64 55 228 133 228c23 0 40 -7 58 -20c61 23 96 33 130 33c88 0 89 -93 87 -121zM187 244c-21 -7 -43 -9 -54 -5c-24 -41 -40 -117 -40 -145c0 -10 2 -26 2 -31
c0 -9 111 113 92 181z" />
    <glyph glyph-name="o_n.end" unicode="&#xe00e;" horiz-adv-x="682" 
d="M258 345c53 4 126 -20 135 -82c3 -19 0 -54 -6 -72c17 25 71 83 108 83c35 0 80 -32 85 -67c1 -12 2 -25 2 -38c0 -18 -1 -37 -1 -59c-1 -19 -1 -79 26 -76c21 2 71 32 87 46c14 12 42 29 55 29c45 0 9 -46 -11 -72c-29 -29 -63 -49 -105 -49c-33 0 -81 15 -107 37
c-29 32 -36 69 -36 109c0 24 2 49 5 74c-45 -19 -138 -174 -160 -206c-15 -21 -74 38 -67 65c19 69 60 135 60 208c0 21 -77 6 -91 -4c11 -12 15 -33 15 -57c0 -84 -55 -218 -118 -223c-53 -4 -114 33 -119 87c-5 65 38 248 119 254c12 1 18 1 37 -6c35 11 61 17 87 19z
M176 254c-4 1 -33 11 -33 8c-28 -42 -49 -132 -49 -186c0 -16 2 -28 6 -36c53 44 85 140 76 214z" />
    <glyph glyph-name="o_o_l" unicode="&#xe010;" horiz-adv-x="682" 
d="M644 286c-11 -53 -27 -150 -27 -232c0 -41 4 -77 14 -103c16 -2 23 -10 23 -17c0 -9 -11 -18 -30 -16c-67 8 -85 104 -85 203c0 33 2 66 5 96c-18 -11 -49 -27 -52 -29c4 -10 6 -22 6 -35c0 -73 -60 -186 -130 -180c-73 6 -111 71 -105 144c2 31 16 81 39 124
c-22 -5 -60 -8 -68 -7c7 -13 10 -30 10 -47c0 -85 -74 -204 -142 -204c-41 0 -83 36 -90 81c-11 74 44 249 125 249c10 0 24 -1 33 -6h-1c27 -10 71 -13 109 -13c23 0 47 2 68 6c13 12 27 21 43 23c24 4 95 -10 92 -46c-1 -8 -12 -9 -18 -8c-10 1 -18 4 -28 2
c-57 -14 -84 -152 -88 -200c0 -8 1 -43 5 -49c38 35 68 92 68 147c0 12 -2 24 -5 36c-19 17 -15 35 15 32c41 -3 82 27 128 63c42 186 89 291 126 324c14 12 28 20 46 19c53 -4 81 -41 78 -94c-5 -75 -93 -201 -164 -263zM75 36c15 -14 94 84 94 161c0 14 -3 27 -9 39
l-15 13c-34 -46 -75 -141 -70 -213zM742 568c-14 -23 -56 -114 -70 -165c56 81 82 155 70 165z" />
    <glyph glyph-name="o_p.end" unicode="&#xe013;" horiz-adv-x="651" 
d="M621 272c8 -92 -74 -280 -192 -268c-14 4 -33 10 -44 23c-28 -99 -52 -197 -49 -242c1 -14 -6 -15 -17 -16c-22 -2 -58 19 -63 42c-9 59 55 254 84 350c16 53 25 91 25 115c0 14 -3 23 -9 27c-14 9 -40 -2 -78 -22c5 -15 7 -31 7 -49c0 -29 -6 -61 -16 -91
c-13 -40 -55 -133 -106 -153c-11 -5 -23 -8 -35 -8c-40 0 -84 27 -104 69c-5 11 -7 29 -7 50c0 73 28 187 79 218c8 4 16 8 28 2l2 -1c18 21 59 36 89 27l8 -3c36 17 78 29 118 23c36 -6 97 -45 98 -96c26 29 76 75 122 63c31 -10 44 -21 60 -60zM164 88
c41 85 49 124 54 165v1c-26 -2 -63 9 -69 15c-47 -47 -60 -179 -54 -217c6 -56 45 -3 69 36zM533 277c-35 -29 -63 -67 -90 -106c-11 -20 -27 -48 -39 -77c10 -21 19 -33 25 -44c57 27 110 164 104 227z" />
    <glyph glyph-name="o_r.end" unicode="&#xe015;" horiz-adv-x="474" 
d="M411 388c3 -20 -5 -45 -16 -65c40 -17 64 -26 64 -54c0 -15 -14 -47 -20 -61c-18 -42 -35 -114 -35 -158c0 -20 3 -35 12 -38c13 -5 30 -2 41 1c35 10 40 -1 19 -29c-8 -10 -23 -16 -40 -16c-34 0 -78 24 -97 85c-4 14 -6 31 -6 48c0 55 19 123 38 179l-9 2
c-25 -33 -71 -58 -104 -72c5 -65 -51 -221 -145 -221c-50 0 -113 46 -113 101s20 152 82 212c20 19 49 33 77 33c16 0 59 -10 59 -32c0 -10 -18 -11 -25 -13c-14 -3 -39 -19 -48 -30c-24 -25 -66 -108 -66 -168c0 -18 3 -35 11 -51c31 -4 93 80 99 151c-22 20 -6 73 14 77
c9 2 21 1 28 -2c29 10 88 44 101 67c-5 27 -5 48 -1 55c14 25 75 34 80 -1z" />
    <glyph glyph-name="oacute" unicode="&#xf3;" horiz-adv-x="305" 
d="M215 345c46 -11 64 -54 64 -106c0 -35 -8 -74 -22 -109l-4 -11c46 11 92 63 102 116c2 13 10 20 18 20c20 0 32 -16 32 -39c0 -9 -2 -18 -5 -28c-21 -68 -94 -124 -169 -117c-19 -35 -45 -70 -77 -82c-9 -5 -19 -7 -29 -7c-40 0 -83 33 -101 67c-5 10 -7 26 -7 45
c0 72 32 187 79 223c8 4 16 8 28 2l2 -1c18 21 59 36 89 27zM218 253c-1 27 -9 41 -19 41c-9 0 -20 -11 -28 -32c-5 -18 -9 -39 -9 -59c0 -11 1 -22 4 -32c6 -12 13 -22 20 -30c19 33 27 72 32 112zM106 147c-6 -24 -14 -44 -11 -95c6 -56 45 -3 69 36c-14 8 -47 29 -58 59z
M271 421c-5 -10 -13 -42 -31 -42c-25 0 -62 21 -62 51c0 52 112 126 165 126c17 0 40 -14 49 -28c0 -6 -16 -10 -20 -11c-42 -16 -86 -54 -101 -96z" />
    <glyph glyph-name="ocircumflex" unicode="&#xf4;" horiz-adv-x="305" 
d="M215 345c46 -11 64 -54 64 -106c0 -35 -8 -74 -22 -109l-4 -11c46 11 92 63 102 116c2 13 10 20 18 20c20 0 32 -16 32 -39c0 -9 -2 -18 -5 -28c-21 -68 -94 -124 -169 -117c-19 -35 -45 -70 -77 -82c-9 -5 -19 -7 -29 -7c-40 0 -83 33 -101 67c-5 10 -7 26 -7 45
c0 72 32 187 79 223c8 4 16 8 28 2l2 -1c18 21 59 36 89 27zM218 253c-1 27 -9 41 -19 41c-9 0 -20 -11 -28 -32c-5 -18 -9 -39 -9 -59c0 -11 1 -22 4 -32c6 -12 13 -22 20 -30c19 33 27 72 32 112zM106 147c-6 -24 -14 -44 -11 -95c6 -56 45 -3 69 36c-14 8 -47 29 -58 59z
M74 424c0 12 21 13 29 13c22 0 62 44 81 62c13 14 10 31 33 31c32 0 48 -14 60 -35c12 -20 36 -76 46 -103c7 -3 19 -8 19 -16c0 -4 -1 -7 -3 -9c-8 -5 -20 -11 -34 -11c-43 0 -67 51 -85 83c-20 -20 -61 -59 -93 -59c-19 0 -53 27 -53 44z" />
    <glyph glyph-name="odieresis" unicode="&#xf6;" horiz-adv-x="305" 
d="M215 345c46 -11 64 -54 64 -106c0 -35 -8 -74 -22 -109l-4 -11c46 11 92 63 102 116c2 13 10 20 18 20c20 0 32 -16 32 -39c0 -9 -2 -18 -5 -28c-21 -68 -94 -124 -169 -117c-19 -35 -45 -70 -77 -82c-9 -5 -19 -7 -29 -7c-40 0 -83 33 -101 67c-5 10 -7 26 -7 45
c0 72 32 187 79 223c8 4 16 8 28 2l2 -1c18 21 59 36 89 27zM218 253c-1 27 -9 41 -19 41c-9 0 -20 -11 -28 -32c-5 -18 -9 -39 -9 -59c0 -11 1 -22 4 -32c6 -12 13 -22 20 -30c19 33 27 72 32 112zM106 147c-6 -24 -14 -44 -11 -95c6 -56 45 -3 69 36c-14 8 -47 29 -58 59z
M86 466c7 13 22 19 38 19c28 0 60 -18 60 -49c0 -30 -22 -63 -57 -63c-18 0 -35 6 -44 20c-4 12 -6 24 -6 35c0 13 3 25 9 38zM287 488c31 0 60 -19 60 -54c0 -30 -22 -57 -62 -57c-34 0 -56 39 -46 69c11 25 18 42 48 42z" />
    <glyph glyph-name="oe" unicode="&#x153;" horiz-adv-x="449" 
d="M444 263c0 -89 -129 -183 -158 -194c8 -22 27 -35 49 -32c71 10 136 122 165 198c3 8 9 20 17 20c20 0 31 -12 31 -35c0 -9 -1 -20 -5 -32c-17 -59 -71 -132 -102 -158c-33 -29 -75 -42 -115 -42c-36 0 -71 11 -94 33c-12 10 -20 22 -27 36c-26 -33 -57 -64 -93 -64
c-44 0 -98 38 -98 85c0 27 7 64 18 103c12 42 43 136 95 145c21 14 43 20 65 20c31 0 62 -12 85 -32v-1c9 7 18 13 29 18c13 6 26 9 40 9c11 0 23 -2 34 -7c31 -12 57 -35 64 -70zM95 46c53 26 118 164 118 228c0 11 -2 19 -5 30c-7 0 -16 -3 -22 -6h1
c-36 -27 -15 -55 -44 -55c-20 -36 -54 -119 -54 -169c0 -11 2 -21 6 -28zM362 227c11 19 12 39 7 44c-16 11 -47 -37 -56 -50c-11 -17 -29 -50 -39 -93c31 19 62 57 88 99z" />
    <glyph glyph-name="ogonek" unicode="&#x2db;" horiz-adv-x="239" 
d="M204 24c10 -22 -60 -71 -61 -112c-1 -56 87 -32 77 -67c-5 -18 -39 -16 -46 -16c-25 0 -55 6 -78 20c-28 17 -45 41 -45 69c0 16 5 33 17 52c14 22 63 80 90 80c15 0 37 -7 46 -26z" />
    <glyph glyph-name="ograve" unicode="&#xf2;" horiz-adv-x="305" 
d="M215 345c46 -11 64 -54 64 -106c0 -35 -8 -74 -22 -109l-4 -11c46 11 92 63 102 116c2 13 10 20 18 20c20 0 32 -16 32 -39c0 -9 -2 -18 -5 -28c-21 -68 -94 -124 -169 -117c-19 -35 -45 -70 -77 -82c-9 -5 -19 -7 -29 -7c-40 0 -83 33 -101 67c-5 10 -7 26 -7 45
c0 72 32 187 79 223c8 4 16 8 28 2l2 -1c18 21 59 36 89 27zM218 253c-1 27 -9 41 -19 41c-9 0 -20 -11 -28 -32c-5 -18 -9 -39 -9 -59c0 -11 1 -22 4 -32c6 -12 13 -22 20 -30c19 33 27 72 32 112zM106 147c-6 -24 -14 -44 -11 -95c6 -56 45 -3 69 36c-14 8 -47 29 -58 59z
M142 519c12 -41 36 -81 78 -101c10 1 17 -1 23 -10c8 -19 -29 -24 -46 -22c-47 7 -134 59 -141 119c-2 20 30 32 46 32c13 0 36 -2 40 -18z" />
    <glyph glyph-name="ohungarumlaut" unicode="&#x151;" horiz-adv-x="305" 
d="M215 345c46 -11 64 -54 64 -106c0 -35 -8 -74 -22 -109l-4 -11c46 11 92 63 102 116c2 13 10 20 18 20c20 0 32 -16 32 -39c0 -9 -2 -18 -5 -28c-21 -68 -94 -124 -169 -117c-19 -35 -45 -70 -77 -82c-9 -5 -19 -7 -29 -7c-40 0 -83 33 -101 67c-5 10 -7 26 -7 45
c0 72 32 187 79 223c8 4 16 8 28 2l2 -1c18 21 59 36 89 27zM218 253c-1 27 -9 41 -19 41c-9 0 -20 -11 -28 -32c-5 -18 -9 -39 -9 -59c0 -11 1 -22 4 -32c6 -12 13 -22 20 -30c19 33 27 72 32 112zM106 147c-6 -24 -14 -44 -11 -95c6 -56 45 -3 69 36c-14 8 -47 29 -58 59z
M174 442c-5 -10 -13 -42 -31 -42c-25 0 -62 21 -62 51c0 52 112 126 165 126c17 0 40 -14 49 -28c0 -6 -16 -10 -20 -11c-42 -16 -86 -54 -101 -96zM324 432c-5 -10 -13 -42 -31 -42c-25 0 -62 21 -62 51c0 52 112 126 165 126c17 0 40 -14 49 -28c0 -6 -16 -10 -20 -11
c-42 -16 -86 -54 -101 -96z" />
    <glyph glyph-name="one" unicode="1" horiz-adv-x="272" 
d="M53 394c46 38 83 82 123 136c7 9 21 11 31 11c23 0 54 -16 49 -40c-17 -79 -47 -189 -64 -267c-20 -85 -38 -167 -45 -244c-1 -8 3 -15 3 -22s-6 -8 -11 -8c-33 0 -73 28 -72 56c2 62 41 211 56 275c7 28 11 57 20 93c-19 -16 -32 -33 -58 -33c-12 0 -48 13 -48 29
c0 1 4 7 16 14z" />
    <glyph glyph-name="onehalf" unicode="&#xbd;" horiz-adv-x="574" 
d="M487 466h1c-60 -65 -113 -138 -168 -207c-41 -52 -89 -113 -121 -174c-13 -21 -45 -71 -45 -95c0 -17 1 -24 -22 -24c-30 0 -59 16 -59 48c0 98 301 443 343 490c13 15 35 32 56 32c13 0 51 -11 51 -29c0 -6 -7 -11 -36 -41zM41 388c-19 22 -15 25 -13 28
c12 3 88 85 92 89c16 16 10 36 41 36c21 0 56 -16 56 -43c0 -57 -75 -180 -75 -266c0 -10 5 -22 5 -29c0 -3 -23 -3 -26 -3c-18 0 -64 20 -64 42c0 28 32 117 43 148c-11 -8 -19 -13 -32 -13c-10 0 -20 5 -27 11zM404 173c-33 0 -44 18 -45 41c1 52 62 92 108 92
c53 0 99 -42 99 -99c0 -63 -121 -141 -143 -185c38 0 73 7 110 7c17 0 36 -5 36 -26c0 -5 -1 -11 -2 -16c-2 -8 -21 -7 -27 -8c-42 -6 -104 -13 -147 -13c-32 0 -63 7 -63 47c0 50 130 141 155 192c8 17 6 27 2 46c-31 -2 -64 -28 -64 -65c0 -9 -10 -13 -19 -13z" />
    <glyph glyph-name="onequarter" unicode="&#xbc;" horiz-adv-x="539" 
d="M487 466h1c-60 -65 -113 -138 -168 -207c-41 -52 -89 -113 -121 -174c-13 -21 -45 -71 -45 -95c0 -17 1 -24 -22 -24c-30 0 -59 16 -59 48c0 98 301 443 343 490c13 15 35 32 56 32c13 0 51 -11 51 -29c0 -6 -7 -11 -36 -41zM410 53c-9 -3 -38 -6 -48 -6
c-44 0 -76 29 -79 78c-1 28 128 181 196 181c17 0 44 -19 42 -39c-11 -89 -29 -180 -40 -274c-2 -12 -3 -24 -3 -36h-1c1 -2 2 -5 2 -7c-2 -11 -16 -16 -26 -16c-6 0 -15 2 -20 5c-27 16 -34 30 -34 47s7 37 11 67zM41 388c-19 22 -15 25 -13 28c12 3 88 85 92 89
c16 16 10 36 41 36c21 0 56 -16 56 -43c0 -57 -75 -180 -75 -266c0 -10 5 -22 5 -29c0 -3 -23 -3 -26 -3c-18 0 -64 20 -64 42c0 28 32 117 43 148c-11 -8 -19 -13 -32 -13c-10 0 -20 5 -27 11zM434 193c-15 -13 -85 -72 -86 -93c0 -9 56 1 73 5c6 31 9 64 13 88z" />
    <glyph glyph-name="onesuperior" unicode="&#xb9;" horiz-adv-x="219" 
d="M63 462c1 12 60 41 83 72c6 8 16 13 27 13c21 0 61 -20 52 -42c-24 -61 -81 -187 -81 -273c0 -5 3 -9 3 -14c0 -9 -19 -8 -24 -8c-20 0 -64 16 -64 43c0 24 58 172 63 187c-9 -4 -18 -9 -28 -9c-11 0 -31 21 -31 31z" />
    <glyph glyph-name="ordfeminine" unicode="&#xaa;" horiz-adv-x="305" 
d="M223 306c-22 -7 -54 29 -59 51c-27 -31 -54 -46 -76 -44c-33 5 -54 32 -54 69c0 61 56 142 107 162c18 4 38 0 53 -12c0 -2 16 -13 16 -12c21 0 39 -21 49 -38c8 -16 -26 -98 -33 -136c21 17 32 15 43 6c9 -9 -7 -32 -46 -46zM194 492c-15 13 -40 0 -69 -43
c-10 -16 -29 -58 -22 -75c13 -15 73 42 91 118z" />
    <glyph glyph-name="ordmasculine" unicode="&#xba;" horiz-adv-x="224" 
d="M64 488c-4 33 24 69 60 73c52 6 122 -42 128 -96c7 -62 -44 -201 -113 -209c-36 -4 -90 21 -102 57c-4 10 -5 22 -7 34c-5 45 10 107 34 141zM110 312c16 -30 69 100 70 155c0 15 0 50 -23 44c-26 -35 -54 -104 -54 -159c0 -15 2 -28 7 -40z" />
    <glyph glyph-name="oslash" unicode="&#xf8;" horiz-adv-x="305" 
d="M349 392l-4 -1l-70 -102c7 -18 10 -40 10 -62c0 -32 -6 -66 -18 -97c-45 -94 -81 -129 -113 -141c-18 -8 -37 -8 -56 -2c-14 -29 -22 -53 -22 -66c0 -5 2 -10 2 -15c0 -12 -9 -13 -19 -13c-26 0 -42 25 -42 49c0 19 9 48 25 82c-8 8 -14 16 -18 25c-5 10 -7 26 -7 45
c0 72 32 187 79 223c8 4 16 8 28 2l2 -1c18 21 59 36 89 27c6 -2 12 -4 17 -7c22 34 62 90 86 90c11 0 37 -8 37 -24c0 -4 -3 -8 -6 -12zM174 88c21 45 33 78 39 105c-31 -50 -67 -112 -94 -164c17 7 40 36 55 59zM106 147l-2 -6c32 55 67 108 91 144
c-23 1 -59 -36 -89 -138z" />
    <glyph glyph-name="otilde" unicode="&#xf5;" horiz-adv-x="305" 
d="M215 345c46 -11 64 -54 64 -106c0 -35 -8 -74 -22 -109l-4 -11c46 11 92 63 102 116c2 13 10 20 18 20c20 0 32 -16 32 -39c0 -9 -2 -18 -5 -28c-21 -68 -94 -124 -169 -117c-19 -35 -45 -70 -77 -82c-9 -5 -19 -7 -29 -7c-40 0 -83 33 -101 67c-5 10 -7 26 -7 45
c0 72 32 187 79 223c8 4 16 8 28 2l2 -1c18 21 59 36 89 27zM218 253c-1 27 -9 41 -19 41c-9 0 -20 -11 -28 -32c-5 -18 -9 -39 -9 -59c0 -11 1 -22 4 -32c6 -12 13 -22 20 -30c19 33 27 72 32 112zM106 147c-6 -24 -14 -44 -11 -95c6 -56 45 -3 69 36c-14 8 -47 29 -58 59z
M81 421c31 42 50 56 84 55c40 -1 49 -25 84 -51c7 4 18 13 18 23c0 15 9 28 31 19c12 -5 20 -14 25 -23c10 -39 -22 -77 -70 -77c-18 0 -63 19 -81 53c-17 -16 -26 -44 -44 -44c-21 0 -45 22 -47 45z" />
    <glyph glyph-name="p" unicode="p" horiz-adv-x="342" 
d="M221 332c49 13 95 -31 95 -82c-2 -47 -21 -108 -53 -158c39 13 76 37 102 78c13 21 22 45 30 65c3 8 9 20 17 20c19 0 31 -13 31 -36c0 -10 -2 -22 -7 -35c-32 -95 -130 -149 -230 -155c-24 -18 -52 -28 -82 -25c-14 4 -33 10 -44 23c-28 -99 -50 -183 -47 -228
c1 -14 -9 -18 -20 -19c-22 -2 -55 15 -60 45c4 63 17 91 48 216c13 59 75 309 77 334c0 6 9 11 26 11c16 0 51 -16 51 -37c1 -5 -6 -44 -11 -75c19 21 46 50 77 58zM228 277c-35 -29 -63 -67 -90 -106c-11 -20 -27 -48 -39 -77c0 -2 1 -3 2 -4c16 -6 35 -9 57 -11
c42 52 75 148 70 198z" />
    <glyph glyph-name="p.end" unicode="&#xe2af;" horiz-adv-x="324" 
d="M316 272c8 -92 -74 -280 -192 -268c-14 4 -33 10 -44 23c-28 -99 -50 -183 -47 -228c1 -14 -9 -18 -20 -19c-22 -2 -55 15 -60 45c4 63 17 91 48 216c13 59 75 309 77 334c0 6 9 11 26 11c16 0 51 -16 51 -37c1 -5 -6 -44 -11 -75c26 29 66 70 112 58
c31 -10 44 -21 60 -60zM228 277c-35 -29 -63 -67 -90 -106c-11 -20 -27 -48 -39 -77c10 -21 19 -33 25 -44c57 27 110 164 104 227z" />
    <glyph glyph-name="paragraph" unicode="&#xb6;" horiz-adv-x="1147" 
d="M246 338l1 -27h18l4 4l3 -26l-7 3h-52l-2 -6v26l2 -4h20v30h-20l-2 -4l-3 25l5 -4l52 3l4 2v-26l-4 4h-19zM220 389l-8 -3l14 56l16 -4l-4 -2l-8 -30l12 -4l5 18l-4 5l20 -2l-4 -4l-7 -20l12 -2l8 28l-3 7l17 -4l-14 -56l-3 5zM243 475l-5 -3l9 17l47 12l-29 14l-5 -1
l12 18l1 -5l48 -26l-5 -13l-47 -12l26 -14l7 1l-11 -18l-2 5zM355 537l-22 -23v6l-38 35h-6l23 25c16 14 30 17 44 1c16 -13 16 -27 -1 -44zM315 563l23 -23l8 5c8 8 8 17 -3 23c-6 11 -15 11 -23 0zM360 615l-5 3l31 19c13 9 25 8 30 -4c5 -6 5 -14 -1 -22l26 -10l-22 -16
l1 7l-18 9l-8 -4l9 -16l5 -1l-22 -13l3 5zM390 624l-10 -5l9 -13l9 5c5 4 8 8 4 13c-3 4 -7 4 -12 0zM459 663l-4 4l18 5l47 -48l-23 -6l1 5l-4 5l-27 -9l-3 -5l7 -4l-21 -8zM471 654l-4 -22l19 5zM565 683l-3 2l39 -1c14 -1 22 -9 19 -22c0 -16 -9 -21 -23 -21l-17 3v-16
l4 -4h-26l4 7zM593 672h-12v-18l12 -1c8 0 9 4 9 9c2 5 -1 9 -9 10zM646 672l-1 7l37 -13c15 -4 19 -13 15 -25c-2 -9 -9 -13 -18 -13l9 -27l-26 6l5 4l-5 21l-8 1l-5 -15l1 -7l-23 8l5 4zM672 657l-10 2l-4 -14l11 -4c6 -1 10 0 11 4c2 5 -1 8 -8 12zM747 631l2 2l17 -9
l-8 -66l-22 13l5 1l2 7l-24 15l-8 -2l3 -7l-19 12zM749 615l-21 -13l17 -10zM797 601l43 -43l-12 -13l-1 5l-12 12l-29 -30l-2 -4l-17 17l6 1l29 29l-10 13h-8zM858 523l4 4l11 -17l-35 -59l-15 21h5l4 5l-14 25h-8l-2 -5l-11 18zM853 507l-25 -1l12 -18zM851 402l-2 8
l28 27l-28 -9l-4 -4l-5 21s1 0 5 -3l51 13l1 4l8 -21l-32 -27l41 -8l5 -22l-5 4l-50 -14l-4 -4l-6 23l6 -4l26 8zM916 329l6 3l-3 -21l-61 -29l2 26l4 -3l6 2l1 30l-5 4l-6 -4v22zM903 320l-20 12l-3 -21zM302 182l35 -49l-16 -10v6l-9 13l-35 -22l-1 -6l-13 20h5l34 22
l-11 16l-5 1zM403 73l-47 -13l-10 -13v-4l-18 15l5 2l10 11l7 49l18 -17h-4l-5 -30l27 9v6zM416 64l-1 5l35 -17c13 -7 17 -16 10 -29c-5 -11 -15 -15 -28 -7l-16 5l-5 -11l1 -6l-23 9l5 4zM441 43l-12 6l-8 -17l11 -6c6 -1 10 0 13 4c2 6 1 12 -4 13zM489 36l-4 3l56 -10
l-4 -16l-4 4l-30 8l-1 -13l18 -4l5 4l-2 -21l-4 6l-21 3l-1 -10l28 -8l8 4l-4 -17l-56 11l4 4zM632 36l21 2l-20 -61l-13 -3l-14 30l-8 -33h-14l-30 55l26 4l-4 -5l15 -32l10 39l10 2l17 -37l8 35zM689 58c21 10 35 6 45 -13c9 -20 2 -33 -19 -42c-20 -12 -35 -6 -44 13
c-9 18 -2 33 18 42zM688 25c5 -13 13 -17 22 -12c9 4 13 12 7 23s-13 15 -22 11c-10 -4 -11 -11 -7 -22zM737 78l-5 3l30 22c13 11 22 11 30 0c5 -8 7 -15 0 -22l27 -8l-20 -18v7l-19 6l-7 -4l11 -15h5l-20 -17l2 6zM766 91l-10 -9l10 -11l9 7c5 4 7 10 4 13
c-4 4 -8 4 -13 0zM860 130l-24 -1v-8l11 -9h6l-15 -18l-2 5l-41 30h-6l16 20l1 -6l15 -13l-2 30h-5l17 26l3 -43l45 6l-17 -24zM659 173l-71 2c6 10 9 19 10 28v17h-62v-16c0 -10 2 -19 10 -29h-73c8 10 12 19 12 29v88h51v-20l62 -3v38l-156 1v-58c0 -12 4 -21 12 -30h-73
c8 9 12 20 12 30v166c0 12 -3 21 -11 30h72c-8 -9 -9 -18 -12 -30v-57h44v57c0 9 -2 21 -10 30l125 -1v17c-3 10 -4 19 -12 28h73c-9 -9 -12 -18 -12 -28v-17h4c34 0 61 -13 82 -38c18 -21 26 -48 26 -75c0 -29 -9 -56 -28 -77c-17 -21 -41 -34 -71 -35l3 52
c31 4 45 33 45 60c0 28 -16 61 -58 62h-117v-36h62v19h51v-174c0 -9 1 -21 10 -30zM298 333c1 147 122 265 269 264c147 0 265 -121 264 -268c0 -147 -121 -265 -268 -265s-265 121 -265 269zM815 329c0 138 -111 251 -248 252c-139 0 -251 -110 -252 -249
c0 -138 110 -251 248 -251c139 -3 251 109 252 248zM161 333c3 222 185 403 406 402c222 -3 403 -185 401 -406c-2 -222 -184 -403 -405 -401c-222 0 -403 182 -402 405zM951 329c2 212 -171 386 -384 389c-213 1 -389 -172 -389 -385c-1 -213 172 -388 385 -390
c213 0 388 173 388 386zM246 214c-7 6 -7 16 0 23c5 5 14 5 22 0c5 -7 5 -17 0 -23c-8 -6 -17 -6 -22 0zM858 214c-7 6 -7 16 0 23c6 5 15 5 22 0c6 -7 6 -17 0 -23c-7 -6 -16 -6 -22 0z" />
    <glyph glyph-name="parenleft" unicode="(" horiz-adv-x="281" 
d="M316 584c-7 -3 -27 -30 -33 -37c-61 -74 -107 -198 -134 -290c-26 -88 -39 -188 -39 -281c0 -38 3 -77 15 -113c18 0 58 -8 58 -33c0 -17 -39 -18 -50 -18c-100 0 -115 124 -115 209c0 28 3 56 6 83c18 148 85 386 189 501c19 21 47 40 77 40c21 0 43 -16 46 -38
c-2 -6 -8 -10 -20 -23z" />
    <glyph glyph-name="parenright" unicode=")" horiz-adv-x="450" 
d="M247 408c0 80 -13 150 -52 220h-1c-18 58 47 11 67 -2c69 -48 76 -175 76 -251c0 -157 -110 -453 -206 -516c-7 -5 -20 -7 -34 -7c-28 0 -61 10 -61 32c0 11 22 19 28 24c115 106 183 381 183 500z" />
    <glyph glyph-name="percent" unicode="%" horiz-adv-x="581" 
d="M167 547c49 0 111 -44 119 -102c9 -68 -53 -213 -143 -213c-54 0 -103 54 -105 113c-2 74 53 202 129 202zM322 80c4 55 21 112 55 162c17 23 42 43 70 43c61 0 111 -47 114 -120c2 -59 -52 -190 -126 -190c-58 0 -118 46 -113 105zM531 492h-1
c-39 -47 -84 -90 -123 -143c-64 -85 -124 -170 -184 -258c-13 -23 -45 -73 -45 -100c0 -21 -1 -25 -26 -25c-30 0 -57 19 -57 52c0 73 284 421 342 486c16 18 39 33 64 33c12 0 46 -15 46 -30c0 -5 -12 -13 -16 -15zM405 22c47 50 83 116 83 169c0 15 -3 29 -10 42
c-31 -9 -58 -76 -68 -107c-6 -23 -10 -47 -12 -68c0 -9 1 -30 7 -36zM215 461c-1 11 -5 23 -14 33c-41 -9 -87 -95 -87 -164c0 -14 2 -27 6 -39c56 21 97 125 95 170z" />
    <glyph glyph-name="period" unicode="." horiz-adv-x="243" 
d="M204 -18c-5 -8 -31 -22 -54 -18c-20 4 -30 12 -38 20c-17 15 -7 50 9 66c7 7 19 10 31 10c13 0 27 -3 37 -8c15 -7 33 -41 15 -70z" />
    <glyph glyph-name="periodcentered" unicode="&#xb7;" horiz-adv-x="326" 
d="M218 314c5 -6 18 -36 18 -44c-3 -13 -1 -37 -25 -45c-9 -3 -19 -5 -28 -5c-23 0 -46 9 -58 23c-9 9 -13 19 -13 29c0 27 29 53 62 57c29 -1 39 -11 44 -15z" />
    <glyph glyph-name="perthousand" unicode="&#x2030;" horiz-adv-x="805" 
d="M566 176c16 32 41 72 69 87c4 4 18 5 24 5c56 0 130 -41 130 -104c0 -68 -47 -200 -128 -200c-49 0 -122 38 -122 94c-22 -40 -55 -88 -106 -88c-56 0 -118 57 -118 113c0 53 56 203 115 203c64 0 115 -46 136 -110zM33 343c0 70 59 204 141 204c39 0 75 -23 101 -50
c12 -12 22 -24 22 -48c0 -59 -63 -215 -141 -215c-58 0 -123 43 -123 109zM537 506c0 -14 -26 -35 -36 -46c-67 -78 -132 -157 -250 -319c-12 -20 -80 -117 -80 -153c0 -17 -5 -23 -25 -23c-34 0 -59 21 -59 56c0 22 307 511 403 511c9 0 37 -7 42 -14c2 -3 5 -8 5 -12z
M697 219c-44 -39 -67 -112 -67 -172c0 -9 -1 -33 9 -33c16 0 71 105 71 171c0 14 -3 20 -13 34zM482 186c0 24 -4 59 -19 36c-32 -45 -59 -107 -59 -165c0 -10 3 -28 10 -35c41 26 68 100 68 164zM209 461c0 12 -3 24 -6 36c-60 -46 -77 -129 -74 -203c47 28 80 113 80 167z
" />
    <glyph glyph-name="plus" unicode="+" horiz-adv-x="355" 
d="M59 281c24 6 54 -1 108 -1c13 38 24 73 39 109c8 8 19 14 30 14c14 0 50 -16 50 -32c0 -2 -13 -23 -13 -26c-9 -21 -15 -43 -23 -64c24 0 87 1 111 -10c8 -2 24 -6 24 -18c0 -16 -21 -21 -33 -21c-40 0 -80 -6 -120 -6c-6 -36 -21 -73 -21 -111c0 -10 7 -30 -8 -30
c-21 0 -76 27 -76 50c0 6 18 84 22 92c-33 0 -64 -2 -94 14c-4 5 -15 17 -16 24c-3 10 14 15 20 16z" />
    <glyph glyph-name="plusminus" unicode="&#xb1;" horiz-adv-x="395" 
d="M43 281c0 15 51 10 53 6l2 -6c21 -3 44 -3 68 -3c10 29 28 121 65 121c14 0 52 -12 52 -30c0 -5 -2 -7 -4 -11c-13 -25 -22 -54 -30 -80c37 0 73 1 109 -9h-1c14 -3 22 -13 22 -21c0 -9 -9 -17 -26 -17c-11 0 -20 1 -31 0c-30 -2 -59 -5 -89 -5c-8 -28 -23 -73 -23 -116
c0 -7 2 -14 2 -21c0 -5 -4 -6 -8 -6c-21 0 -70 25 -70 49c0 30 8 65 16 95c-17 0 -68 3 -82 15c-23 16 -25 32 -25 39zM42 29c34 1 55 2 81 2c33 0 73 -1 155 -4c20 -1 84 -11 84 -39c0 -13 -19 -13 -28 -13c-174 0 -204 -1 -238 -1c-17 0 -73 3 -73 32c0 13 8 19 19 23z
" />
    <glyph glyph-name="q" unicode="q" horiz-adv-x="320" 
d="M186 86c-27 -41 -77 -105 -110 -105c-45 0 -78 44 -78 86c0 91 63 248 161 273c38 -4 64 -21 85 -37l2 -2l16 37c8 16 19 20 38 15c19 -6 31 -15 39 -35c-22 -54 -110 -408 -110 -529c0 -14 1 -24 4 -28c10 -16 10 -23 -17 -26c-25 -3 -57 15 -63 48c-3 12 -4 28 -4 46
c0 66 17 164 37 257zM177 275c-31 -30 -86 -139 -101 -228c27 24 91 82 141 193c-6 17 -25 48 -40 35z" />
    <glyph glyph-name="question" unicode="?" horiz-adv-x="382" 
d="M192 450c-17 3 -38 28 -37 49c4 67 65 109 128 111c98 3 166 -67 166 -150c0 -39 -15 -81 -50 -120c-33 -37 -241 -182 -178 -189c17 -2 40 -29 -19 -40c-25 -5 -53 17 -53 47c0 98 115 160 179 235c21 24 36 65 36 99s-15 62 -55 60c-32 -2 -86 -53 -96 -91
c-1 -11 -13 -12 -21 -11zM224 15c0 -29 -33 -46 -58 -46c-20 0 -55 13 -55 38c0 28 24 60 53 60c31 0 60 -19 60 -52z" />
    <glyph glyph-name="questiondown" unicode="&#xbf;" horiz-adv-x="486" 
d="M407 113c17 -3 38 -28 37 -49c-4 -67 -65 -109 -128 -111c-98 -3 -166 67 -166 150c0 39 15 81 50 120c33 37 241 182 178 189c-17 2 -40 29 19 40c25 5 53 -17 53 -47c0 -98 -115 -160 -179 -235c-21 -24 -36 -65 -36 -99s15 -62 55 -60c32 2 86 53 96 91
c1 11 13 12 21 11zM375 548c0 29 33 46 58 46c20 0 55 -13 55 -38c0 -28 -24 -60 -53 -60c-31 0 -60 19 -60 52z" />
    <glyph glyph-name="quotedbl" unicode="&#x22;" horiz-adv-x="317" 
d="M244 543c-20 -23 -62 -108 -68 -144c-1 -7 -10 -10 -24 -10c-24 0 -57 16 -51 45c0 29 31 83 54 130c6 16 24 23 43 23c20 0 35 -6 50 -21c3 -2 0 -17 -4 -23zM270 534c11 25 14 51 49 51c15 0 28 -6 38 -14c5 -4 8 -8 10 -14c3 -7 0 -16 -6 -26c-15 -32 -21 -44 -24 -48
v-1l-7 -16c-7 -13 -12 -27 -14 -34l-12 -33c-2 -8 -11 -17 -25 -17c-28 0 -54 19 -51 49c0 32 28 72 42 103z" />
    <glyph glyph-name="quotedblbase" unicode="&#x201e;" horiz-adv-x="496" 
d="M166 -59c7 22 11 37 11 53s-4 33 -13 57h1c0 1 -1 3 -1 4c0 11 22 12 29 12c25 0 52 -11 70 -27c7 -16 10 -38 10 -60c0 -52 -21 -108 -79 -108c-10 0 -46 6 -46 20c0 7 15 40 18 49zM312 -33c-3 77 -12 81 -12 83c1 19 28 20 40 20c9 0 17 -3 25 -6
c42 -16 47 -52 45 -94c-2 -36 -17 -133 -82 -133c-15 0 -46 12 -45 30c0 8 13 33 16 42c8 24 9 33 13 58z" />
    <glyph glyph-name="quotedblleft" unicode="&#x201c;" horiz-adv-x="388" 
d="M317 355c4 -2 14 -9 12 -16c-4 -6 -15 -8 -25 -8s-19 2 -25 3c-35 18 -49 62 -46 101c1 33 8 69 31 99c8 7 18 10 28 10c15 0 31 -7 43 -16c5 -6 5 -11 0 -16c-21 -21 -30 -63 -30 -98c0 -27 5 -50 12 -59zM234 515c-27 -63 -29 -98 -29 -111c0 -12 1 -25 6 -36
c18 -22 -17 -26 -33 -23c-20 6 -43 25 -45 50c-7 38 14 105 42 133c6 7 14 11 26 11c10 0 30 -3 35 -14c1 -3 1 -7 -2 -10z" />
    <glyph glyph-name="quotedblright" unicode="&#x201d;" horiz-adv-x="422" 
d="M193 510c-2 17 63 6 72 -7c10 -13 13 -25 13 -43c0 -33 -14 -130 -62 -130c-9 0 -36 3 -36 17c0 3 2 6 3 8c14 27 20 63 20 97c0 10 -6 51 -10 58zM300 431c0 13 -1 28 -4 40c-1 6 -9 32 -9 35c0 13 16 16 25 16s18 -3 26 -6c6 -2 17 -8 20 -13c14 -21 16 -49 16 -74
c0 -30 -16 -126 -58 -126c-10 0 -36 11 -36 22c0 6 10 29 12 35c7 21 8 49 8 71z" />
    <glyph glyph-name="quoteleft" unicode="&#x2018;" horiz-adv-x="220" 
d="M208 355c30 -14 -4 -24 -22 -24c-50 0 -67 55 -67 97c0 37 7 89 36 115c6 6 18 8 26 8c12 0 49 -9 49 -25c0 -3 -2 -6 -4 -8c-26 -22 -32 -67 -32 -103c0 -10 6 -57 14 -60z" />
    <glyph glyph-name="quoteright" unicode="&#x2019;" horiz-adv-x="211" 
d="M157 514c3 7 12 9 23 9c18 0 41 -7 47 -15c11 -14 16 -27 16 -44c0 -37 -14 -102 -44 -127c-4 -3 -13 -5 -22 -5c-16 0 -34 5 -34 16s8 26 12 37c7 21 10 46 10 68c0 21 -2 41 -8 61z" />
    <glyph glyph-name="quotesinglbase" unicode="&#x201a;" horiz-adv-x="371" 
d="M174 -222c10 28 17 61 17 93c0 24 -4 49 -14 70c0 6 9 11 13 14h-1c4 2 10 3 15 3c24 0 54 -13 71 -30c6 -20 10 -42 10 -64c0 -54 -19 -111 -58 -149c-15 -6 -69 -6 -69 16c0 1 15 44 16 47z" />
    <glyph glyph-name="quotesingle" unicode="'" horiz-adv-x="195" 
d="M150 534c11 25 14 51 49 51c15 0 28 -6 38 -14c5 -4 8 -8 10 -14c3 -7 0 -16 -6 -26c-15 -32 -21 -44 -24 -48v-1l-7 -16c-7 -13 -12 -27 -14 -34l-12 -33c-2 -8 -11 -17 -25 -17c-28 0 -54 19 -51 49c0 32 28 72 42 103z" />
    <glyph glyph-name="r" unicode="r" horiz-adv-x="301" 
d="M235 -3c-40 0 -72 26 -85 67c-5 15 -7 36 -7 59c0 43 8 96 22 142c-15 2 -34 13 -38 17c-15 -53 -25 -81 -35 -102c-10 -13 -21 -18 -30 -18c-16 0 -29 14 -29 15c0 6 9 33 14 47c16 44 30 107 45 160c1 4 5 7 18 8c21 1 38 -13 41 -25c2 -12 -12 -35 1 -44
c12 -8 29 -10 49 -12c21 0 63 -36 56 -57c-13 -40 -32 -113 -32 -166c0 -17 2 -32 7 -43c31 13 80 76 120 190c3 8 9 20 17 20c20 0 32 -15 32 -39c0 -10 -2 -21 -6 -33c-21 -61 -60 -135 -80 -153c-19 -18 -54 -33 -80 -33z" />
    <glyph glyph-name="r.1" unicode="&#xe033;" horiz-adv-x="275" 
d="M190 310c43 -4 68 -51 58 -92c-21 -71 -44 -150 -44 -228c0 -20 3 -35 12 -38c13 -5 30 -2 41 1c35 10 40 -1 19 -29c-8 -10 -23 -16 -40 -16c-34 0 -78 24 -97 85c-21 72 5 189 25 265c-15 2 -33 20 -37 24c-15 -53 -25 -81 -35 -102c-10 -13 -21 -18 -30 -18
c-16 0 -29 14 -29 15c0 6 9 33 14 47c16 44 30 107 45 160c1 4 5 7 18 8c21 1 38 -13 41 -25c2 -12 -12 -35 1 -44c12 -8 18 -11 38 -13z" />
    <glyph glyph-name="r.calt" unicode="&#xe019;" horiz-adv-x="350" 
d="M284 -3c-40 0 -77 28 -90 69c-5 15 -7 34 -7 56c0 42 8 94 23 141c-5 4 -11 11 -18 21c-40 -91 -111 -236 -152 -280c-9 -11 -19 -16 -30 -16c-22 0 -45 21 -56 45c-4 13 11 11 16 13c36 31 128 152 185 311c2 8 3 27 9 34c9 9 59 1 59 -28c0 -2 -3 -10 -7 -22
c-4 -19 16 -28 34 -30c21 0 63 -36 56 -57c-24 -69 -39 -127 -39 -165c0 -21 5 -36 14 -44c31 13 80 76 120 190c3 8 9 20 17 20c20 0 32 -15 32 -39c0 -10 -2 -21 -6 -33c-21 -61 -60 -135 -80 -153c-19 -18 -54 -33 -80 -33z" />
    <glyph glyph-name="r.end" unicode="&#xe2b1;" horiz-adv-x="323" 
d="M165 265c-15 2 -34 13 -38 17c-15 -53 -25 -81 -35 -102c-10 -13 -21 -18 -30 -18c-16 0 -29 14 -29 15c0 6 9 33 14 47c16 44 30 107 45 160c1 4 5 7 18 8c21 1 38 -13 41 -25c2 -12 -12 -35 1 -44c12 -8 29 -10 49 -12c21 0 63 -36 56 -57c-4 -28 -27 -117 -27 -177
c0 -32 7 -56 27 -56c29 0 67 28 92 52c16 20 26 35 39 36c51 5 -12 -141 -106 -139c-104 3 -134 80 -134 166c0 44 8 90 17 129z" />
    <glyph glyph-name="r.salt" unicode="&#xe4d1;" horiz-adv-x="325" 
d="M329 204c-18 -24 -60 -13 -58 5s5 46 0 57c-41 -48 -103 -135 -180 -273c-4 -14 -17 -15 -34 -7c-22 13 -55 29 -53 60c6 65 48 198 73 259c4 8 14 14 27 14c16 0 46 -11 57 -23c6 -6 6 -7 -4 -20s-27 -60 -42 -106c26 38 88 122 137 158c19 14 95 9 98 -58
c1 -18 -9 -50 -21 -66z" />
    <glyph glyph-name="racute" unicode="&#x155;" horiz-adv-x="301" 
d="M235 -3c-40 0 -72 26 -85 67c-5 15 -7 36 -7 59c0 43 8 96 22 142c-15 2 -34 13 -38 17c-15 -53 -25 -81 -35 -102c-10 -13 -21 -18 -30 -18c-16 0 -29 14 -29 15c0 6 9 33 14 47c16 44 30 107 45 160c1 4 5 7 18 8c21 1 38 -13 41 -25c2 -12 -12 -35 1 -44
c12 -8 29 -10 49 -12c21 0 63 -36 56 -57c-13 -40 -32 -113 -32 -166c0 -17 2 -32 7 -43c31 13 80 76 120 190c3 8 9 20 17 20c20 0 32 -15 32 -39c0 -10 -2 -21 -6 -33c-21 -61 -60 -135 -80 -153c-19 -18 -54 -33 -80 -33zM267 438c-5 -10 -13 -42 -31 -42
c-25 0 -62 21 -62 51c0 52 112 126 165 126c17 0 40 -14 49 -28c0 -6 -16 -10 -20 -11c-42 -16 -86 -54 -101 -96z" />
    <glyph glyph-name="rcaron" unicode="&#x159;" horiz-adv-x="301" 
d="M235 -3c-40 0 -72 26 -85 67c-5 15 -7 36 -7 59c0 43 8 96 22 142c-15 2 -34 13 -38 17c-15 -53 -25 -81 -35 -102c-10 -13 -21 -18 -30 -18c-16 0 -29 14 -29 15c0 6 9 33 14 47c16 44 30 107 45 160c1 4 5 7 18 8c21 1 38 -13 41 -25c2 -12 -12 -35 1 -44
c12 -8 29 -10 49 -12c21 0 63 -36 56 -57c-13 -40 -32 -113 -32 -166c0 -17 2 -32 7 -43c31 13 80 76 120 190c3 8 9 20 17 20c20 0 32 -15 32 -39c0 -10 -2 -21 -6 -33c-21 -61 -60 -135 -80 -153c-19 -18 -54 -33 -80 -33zM134 533c0 23 15 33 32 33c18 0 38 -10 48 -27
c0 -14 0 -28 4 -44c50 35 61 43 86 65c3 4 7 6 11 6c17 0 41 -11 43 -30c-29 -39 -89 -110 -147 -110c-15 0 -37 4 -48 16c-21 21 -29 57 -29 91z" />
    <glyph glyph-name="registered" unicode="&#xae;" horiz-adv-x="586" 
d="M323 448c61 1 135 -30 151 -82c3 -8 2 -20 6 -27c45 -34 70 -87 70 -139c0 -125 -139 -247 -291 -247c-130 0 -232 97 -232 212c0 150 142 283 296 283zM236 4c136 -9 226 92 226 206c0 35 -11 70 -34 95c-16 4 -27 13 -27 29c0 7 1 15 -1 23c-4 29 -38 39 -69 39
c-116 0 -215 -101 -221 -249c-3 -63 37 -137 126 -143zM282 102c-10 11 -15 36 -23 48c-14 -38 -15 -49 -15 -57c0 -10 -12 -14 -26 -13c-24 1 -33 16 -30 44c2 24 8 41 16 62l23 72c3 12 -7 10 -14 14c-3 3 -1 13 4 23c9 13 17 23 32 25c37 4 120 -25 127 -76
c7 -46 -48 -84 -69 -83c11 -13 50 -45 60 -45c-17 -28 -30 -41 -47 -41c-11 0 -22 10 -38 27zM293 255c-5 -10 -14 -38 -16 -45c0 -4 36 7 40 27c0 6 -9 20 -24 18z" />
    <glyph glyph-name="ring" unicode="&#x2da;" horiz-adv-x="272" 
d="M78 524c-5 43 38 84 81 84c18 0 39 1 54 -11c24 -19 39 -47 39 -78c0 -44 -50 -79 -95 -79c-51 0 -79 35 -79 84zM164 498c14 6 19 18 19 32c0 6 -6 13 -8 19c-16 0 -34 -11 -35 -24c-2 -20 9 -30 24 -27z" />
    <glyph glyph-name="s" unicode="s" horiz-adv-x="231" 
d="M45 200c1 89 71 167 131 167c22 0 57 -25 63 -43c6 -14 -9 -16 -21 -16c-38 -15 -71 -52 -79 -99c-2 -11 -2 -23 -1 -36c5 -27 11 -52 19 -74c50 25 97 57 125 136c6 18 54 7 51 -15c-14 -99 -103 -146 -161 -168c2 -6 3 -12 5 -17c9 -31 -45 -94 -113 -80
c-46 9 -76 45 -88 74c-4 11 10 22 26 26c26 4 54 9 80 17c-17 42 -39 92 -37 128zM106 10c1 0 -2 7 -7 17c-17 -4 -34 -7 -53 -9c19 -11 41 -15 60 -8z" />
    <glyph glyph-name="s.1" unicode="&#xe034;" horiz-adv-x="526" 
d="M43 190c-2 76 59 167 119 167c22 0 58 -25 66 -43c7 -14 -8 -16 -20 -16c-36 -15 -68 -52 -72 -99c-1 -11 -1 -23 2 -36c6 -31 17 -49 28 -66c131 24 279 77 306 128c3 9 7 19 25 9c18 -18 24 -43 10 -68c-39 -69 -190 -107 -316 -123c-3 -34 -58 -87 -119 -75
c-58 12 -88 58 -84 88c1 6 8 27 30 27c19 -1 41 -1 65 1c-20 33 -40 73 -40 106zM122 29c-1 0 -3 3 -5 7c-24 -2 -46 -3 -63 -3c9 -7 20 -13 30 -17c24 -10 48 -5 38 13z" />
    <glyph glyph-name="s.2" unicode="&#xe035;" horiz-adv-x="512" 
d="M45 200c1 89 71 167 131 167c22 0 57 -25 63 -43c6 -14 -9 -16 -21 -16c-38 -15 -71 -52 -79 -99c-2 -11 -2 -23 -1 -36c5 -27 11 -52 19 -74c71 23 232 114 260 225c11 44 0 59 -28 79c-26 19 125 67 119 -66c-6 -125 -184 -224 -336 -285c2 -6 3 -12 5 -17
c9 -31 -45 -94 -113 -80c-46 9 -76 45 -88 74c-4 11 10 22 26 26c26 4 54 9 80 17c-17 42 -39 92 -37 128zM106 10c1 0 -2 7 -7 17c-17 -4 -34 -7 -53 -9c19 -11 41 -15 60 -8z" />
    <glyph glyph-name="s.3" unicode="&#xe036;" horiz-adv-x="533" 
d="M-5 41c0 18 62 49 78 57c-16 29 -30 64 -29 92c0 76 64 167 124 167c22 0 57 -25 65 -43c6 -14 -9 -16 -21 -16c-36 -15 -69 -52 -75 -99c-3 -28 2 -48 10 -66c121 53 285 106 358 69c23 -16 27 -50 18 -75c-10 -16 -24 -14 -27 -2c-29 35 -189 2 -323 -42
c5 -10 9 -20 13 -32c15 -54 -69 -105 -128 -83c-42 16 -61 44 -63 73zM117 29l-19 27c-19 -8 -36 -15 -51 -23c8 -6 18 -12 32 -17c24 -10 48 -5 38 13z" />
    <glyph glyph-name="s.end" unicode="&#xe2b2;" horiz-adv-x="213" 
d="M43 200c-2 76 59 167 119 167c22 0 58 -25 66 -43c7 -14 -8 -16 -20 -16c-36 -15 -68 -52 -72 -99c-1 -11 -1 -23 2 -36c12 -55 38 -71 52 -110c10 -31 -50 -99 -118 -85c-60 12 -90 61 -84 91c5 20 20 20 27 12c27 -32 72 -55 104 -43c6 2 -75 99 -76 162z" />
    <glyph glyph-name="s.salt" unicode="&#xe4d2;" horiz-adv-x="231" 
d="M145 348c38 9 84 -26 79 -52c-1 -9 -13 -4 -20 -5c-28 -2 -52 -28 -60 -61c-10 -43 26 -87 54 -124c10 -13 15 -27 15 -42c0 -34 -26 -69 -69 -80c-54 -15 -122 21 -140 50c-4 8 -4 27 7 30c11 2 158 -49 130 -9c-40 56 -84 98 -88 161c-4 58 39 116 92 132z" />
    <glyph glyph-name="sacute" unicode="&#x15b;" horiz-adv-x="220" 
d="M239 471c-5 -10 -13 -42 -31 -42c-25 0 -62 21 -62 51c0 52 112 126 165 126c17 0 40 -14 49 -28c0 -6 -16 -10 -20 -11c-42 -16 -86 -54 -101 -96zM48 200c3 89 75 167 135 167c22 0 56 -25 62 -43c5 -14 -10 -16 -22 -16c-38 -15 -72 -52 -81 -99c-2 -11 -3 -23 -2 -36
c4 -27 10 -52 17 -74c51 30 92 75 113 136c3 8 12 20 20 20c19 0 31 -13 31 -35c0 -10 -2 -21 -7 -34c-20 -53 -74 -102 -143 -134c2 -6 3 -12 5 -17c8 -31 -48 -94 -115 -80c-46 9 -78 45 -89 74c-4 11 12 26 29 26c26 0 54 4 80 12c-16 42 -36 97 -33 133zM104 10
c1 0 -2 7 -7 17c-17 -4 -34 -7 -53 -9c19 -11 41 -15 60 -8z" />
    <glyph glyph-name="scaron" unicode="&#x161;" horiz-adv-x="220" 
d="M84 533c0 23 15 33 32 33c18 0 38 -10 48 -27c0 -14 0 -28 4 -44c50 35 61 43 86 65c3 4 7 6 11 6c17 0 41 -11 43 -30c-29 -39 -89 -110 -147 -110c-15 0 -37 4 -48 16c-21 21 -29 57 -29 91zM48 200c3 89 75 167 135 167c22 0 56 -25 62 -43c5 -14 -10 -16 -22 -16
c-38 -15 -72 -52 -81 -99c-2 -11 -3 -23 -2 -36c4 -27 10 -52 17 -74c51 30 92 75 113 136c3 8 12 20 20 20c19 0 31 -13 31 -35c0 -10 -2 -21 -7 -34c-20 -53 -74 -102 -143 -134c2 -6 3 -12 5 -17c8 -31 -48 -94 -115 -80c-46 9 -78 45 -89 74c-4 11 12 26 29 26
c26 0 54 4 80 12c-16 42 -36 97 -33 133zM104 10c1 0 -2 7 -7 17c-17 -4 -34 -7 -53 -9c19 -11 41 -15 60 -8z" />
    <glyph glyph-name="section" unicode="&#xa7;" horiz-adv-x="509" 
d="M458 69c-14 -32 -62 -67 -117 -94c10 -22 15 -45 15 -65c0 -15 -2 -29 -8 -41c-29 -67 -203 -146 -286 -146c-15 0 -28 3 -35 9c-15 12 -26 45 -25 62c3 27 22 26 26 11c8 -29 251 71 259 134c2 22 -49 45 -80 58c-63 29 -158 89 -176 171c-3 12 -4 24 -4 35
c0 72 49 137 111 185c-14 163 220 291 336 291c14 0 25 -1 35 -5c26 -13 50 -48 50 -80c0 -12 -4 -23 -11 -32c-11 -13 -29 -7 -32 0c-4 4 4 18 -10 28c-100 -16 -279 -113 -288 -205c-5 -34 70 -73 139 -114c76 -43 110 -108 110 -160c0 -15 -3 -29 -9 -42zM317 197
c-41 19 -96 51 -134 94c-42 -33 -71 -70 -75 -106c-5 -34 70 -73 139 -114c14 -8 26 -17 37 -26c56 29 109 65 113 94c2 22 -49 45 -80 58z" />
    <glyph glyph-name="semicolon" unicode=";" horiz-adv-x="280" 
d="M81 -26l22 71c2 8 19 8 25 8c20 0 55 -11 55 -37c0 -30 -72 -158 -110 -158c-10 0 -42 10 -42 23c0 3 6 13 8 15h-1c18 23 32 52 43 78zM246 396c0 -30 -29 -53 -58 -53c-23 0 -55 17 -55 44c0 29 22 69 53 69c33 0 60 -23 60 -60z" />
    <glyph glyph-name="seven" unicode="7" horiz-adv-x="329" 
d="M51 496c0 25 8 24 22 22c21 -3 42 -4 61 -4c53 0 98 8 130 8c42 0 72 -56 71 -69c-5 -64 -198 -396 -219 -471h1c3 -13 -18 -14 -26 -14c-22 0 -56 19 -56 45c0 20 69 147 79 168c38 78 85 176 126 252c-22 -1 -45 -3 -69 -3s-49 2 -71 8c-19 5 -38 14 -44 29
c-2 6 -5 18 -5 29z" />
    <glyph glyph-name="six" unicode="6" horiz-adv-x="359" 
d="M27 93c-2 13 -2 26 -2 40c0 148 88 336 179 408c22 12 65 -7 77 -30c12 -18 -12 -26 -22 -38c-37 -40 -81 -85 -108 -172c19 10 43 17 61 17c53 0 98 -38 101 -97c5 -89 -78 -243 -175 -243c-62 0 -103 54 -111 115zM116 170c-6 -13 -11 -45 -11 -77s5 -63 22 -70
c62 31 115 139 115 211c0 13 -4 25 -10 36c-36 0 -85 -62 -98 -88c-4 -8 -17 -11 -18 -12z" />
    <glyph glyph-name="slash" unicode="/" horiz-adv-x="359" 
d="M548 576l-5 -1l-101 -147c-40 -60 -274 -425 -274 -507c0 -7 3 -14 3 -21c0 -17 -12 -18 -26 -18c-36 0 -59 34 -59 68c0 108 229 456 284 526c20 31 95 150 135 150c15 0 51 -12 51 -33c0 -6 -4 -12 -8 -17z" />
    <glyph glyph-name="space" unicode=" " horiz-adv-x="322" 
 />
    <glyph glyph-name="sterling" unicode="&#xa3;" horiz-adv-x="408" 
d="M54 288c33 -1 50 -2 82 -4c21 105 80 261 191 260c53 0 126 -60 126 -115c0 -21 -14 -100 -48 -100c-18 0 -57 12 -57 37c0 12 21 63 21 98c0 17 -7 32 -27 32c-53 0 -103 -175 -114 -216c27 -2 57 -1 83 -9c13 -4 46 -17 46 -34c0 -11 -20 -11 -27 -10
c-31 3 -66 2 -114 5l-35 -158c69 0 193 -1 246 -54c2 -2 10 -10 10 -13c0 -20 -48 -53 -53 -48c-24 25 -86 64 -173 64c-15 0 -30 -2 -46 -4c-18 -32 -71 -53 -106 -53c-16 0 -47 8 -47 29c0 41 42 59 76 71l36 166h-36c-16 0 -57 22 -57 42c0 8 17 14 23 14z" />
    <glyph glyph-name="swsh1" unicode="&#xe01e;" horiz-adv-x="928" 
d="M112 -214c74 55 240 80 388 80c125 0 237 -17 272 -49c11 -9 17 -24 17 -39c0 -10 -3 -20 -9 -29c-15 -14 -22 -5 -27 3c-11 26 -83 37 -176 37c-157 0 -372 -33 -442 -85c-5 -5 -12 -11 -23 1c-7 9 -11 28 -11 45c0 16 4 31 11 36z" />
    <glyph glyph-name="swsh2" unicode="&#xe01f;" horiz-adv-x="1929" 
d="M107 -178c85 69 635 129 1081 129c248 0 465 -18 550 -64c13 -7 19 -22 19 -38c0 -10 -2 -21 -7 -30c-8 -15 -22 -12 -26 -10c-8 4 -5 12 -11 16c-38 29 -217 44 -445 44c-389 0 -920 -44 -1132 -138c-6 -3 -14 -2 -25 11c-8 9 -13 30 -13 48c0 14 3 26 9 32z" />
    <glyph glyph-name="swsh3" unicode="&#xe020;" horiz-adv-x="1235" 
d="M112 -214c83 62 387 93 633 93c161 0 297 -14 328 -41c11 -9 17 -24 17 -39c0 -10 -3 -20 -9 -29c-15 -14 -22 -5 -27 3c-10 22 -94 31 -209 31c-247 0 -634 -43 -710 -100c-5 -5 -12 -11 -23 1c-7 9 -11 28 -11 45c0 16 4 31 11 36z" />
    <glyph glyph-name="swsh4" unicode="&#xe027;" horiz-adv-x="926" 
d="M803 -76c21 -3 34 -59 31 -76c-4 -15 -14 -13 -20 -11c-39 16 -141 24 -254 24c-197 0 -433 -22 -451 -58c-4 -7 -12 -15 -27 -2c-6 8 -10 18 -10 27c0 13 7 26 19 34c76 56 331 74 515 74c98 0 176 -5 197 -12z" />
    <glyph glyph-name="swsh5" unicode="&#xe028;" horiz-adv-x="1467" 
d="M1326 -87c21 -3 25 -49 22 -66c-4 -15 -14 -12 -20 -11c-153 29 -335 40 -511 40c-356 0 -689 -46 -708 -83c-4 -7 -12 -15 -27 -2c-7 9 -10 19 -10 29c0 14 6 26 19 32c151 71 462 96 740 96c213 0 407 -15 495 -35z" />
    <glyph glyph-name="t" unicode="t" horiz-adv-x="193" 
d="M11 371l71 6c42 139 42 138 45 144c11 32 81 -6 78 -42c-18 -76 -20 -84 -26 -100c10 0 38 0 54 -7c14 -5 31 -19 42 -30c6 -9 -4 -15 -32 -15c-14 1 -9 1 -82 -3c-39 -143 -63 -284 -46 -285c30 9 89 92 128 196c3 8 9 20 17 20c20 0 31 -15 31 -39
c0 -51 -55 -156 -89 -192c-21 -22 -47 -38 -76 -38c-51 0 -101 38 -98 127c4 64 20 150 35 198l-12 1c-56 -1 -63 28 -61 32c1 5 2 23 21 27z" />
    <glyph glyph-name="t.1" unicode="&#xe021;" horiz-adv-x="171" 
d="M69 346h-14c-56 -1 -63 28 -61 32c1 5 2 23 21 27l71 6c23 90 39 124 42 130c11 32 81 -6 78 -42c-18 -76 -17 -70 -23 -86c6 0 63 2 112 2c34 0 65 -1 72 -4c14 -5 31 -19 42 -30c6 -9 -4 -15 -32 -15c-14 1 -139 -4 -212 -8c-26 -100 -53 -238 -54 -347
c0 -23 0 -54 8 -71c41 6 57 -28 23 -37c-67 -18 -111 74 -110 153c0 37 7 158 37 290z" />
    <glyph glyph-name="t.2" unicode="&#xe029;" horiz-adv-x="193" 
d="M398 623c49 -11 70 -42 82 -81c11 -36 -17 -91 -65 -115c-32 -17 -77 -23 -127 -23c-31 0 -64 2 -98 6c-68 -229 -92 -370 -75 -371c30 9 89 92 128 196c3 8 9 20 17 20c20 0 31 -15 31 -39c0 -51 -55 -156 -89 -192c-21 -22 -47 -38 -76 -38c-51 0 -101 38 -98 127
c4 64 20 150 68 311c-165 29 -341 78 -424 72c-50 -3 -7 -21 -24 -58c-14 -12 -36 -5 -42 14c-1 49 26 122 99 129c10 1 21 1 32 1c111 0 254 -47 383 -81c14 41 20 57 22 61c11 32 81 -6 78 -42l-10 -40c37 -7 72 -11 104 -11c36 0 68 5 93 19c19 11 40 37 36 61
s-47 7 -64 32c-2 2 -1 40 19 42z" />
    <glyph glyph-name="t.3" unicode="&#xe02a;" horiz-adv-x="193" 
d="M443 451c16 -7 23 -17 14 -33c-48 -34 -107 -44 -168 -44c-36 0 -74 3 -109 7c-58 -196 -82 -342 -65 -342c30 9 89 92 128 196c3 8 9 20 17 20c20 0 31 -15 31 -39c0 -51 -55 -156 -89 -192c-21 -22 -47 -38 -76 -38c-51 0 -101 38 -98 127c4 64 20 150 59 280
c-111 18 -222 45 -304 58c-15 2 -37 6 -55 6c-22 0 -39 -5 -35 -22c4 -16 -29 -24 -33 -9c-9 39 10 109 74 110c97 1 236 -51 370 -87c23 77 30 97 33 102c11 32 81 -6 78 -42c-8 -34 -15 -61 -21 -81c37 -7 73 -11 106 -11c32 0 63 4 90 13c14 5 -14 25 53 21z" />
    <glyph glyph-name="t.4" unicode="&#xe02b;" horiz-adv-x="157" 
d="M409 461c23 20 50 -2 6 -54c-16 -19 -50 -26 -96 -26c-38 0 -85 5 -135 13l-5 -15l-18 -55c-39 -143 -108 -453 -91 -454c40 13 57 8 46 -12c-16 -28 -30 -41 -60 -33c-36 10 -59 47 -57 119c-3 88 49 319 83 433c3 12 6 23 10 33c-150 29 -311 69 -389 69
c-13 0 -23 -1 -31 -3c-12 -51 -52 -1 -52 45c0 26 13 50 50 53c110 9 290 -46 445 -88c17 52 25 72 27 76c11 32 81 -6 78 -42c-5 -21 -10 -40 -15 -57c54 -13 102 -21 139 -21c30 0 52 6 65 19z" />
    <glyph glyph-name="t.5" unicode="&#xe02c;" horiz-adv-x="157" 
d="M-18 398c20 14 56 29 101 43c41 135 56 175 59 181c11 32 81 -6 78 -42c-12 -51 -24 -89 -32 -114c79 16 165 27 236 27c62 0 112 -13 135 -28c20 -13 29 -35 18 -59c-13 -16 -22 -9 -27 -1c-10 14 -40 21 -82 21c-51 0 -119 -9 -280 -43l-30 -8
c-39 -146 -105 -444 -88 -445c40 13 57 8 46 -12c-16 -28 -30 -41 -60 -33c-36 10 -59 47 -57 119c-2 67 28 219 57 338c-25 -11 -45 -21 -55 -30c-5 -4 -14 -9 -22 5c-5 7 -9 26 -9 44c0 16 3 32 12 37z" />
    <glyph glyph-name="t.6" unicode="&#xe02d;" horiz-adv-x="154" 
d="M-38 373c-21 3 -36 58 -33 75c3 15 13 14 19 12c25 -10 74 -15 136 -17c40 134 55 173 58 179c11 32 81 -6 78 -42c-17 -70 -33 -117 -40 -137c202 5 454 35 472 72c4 8 11 16 27 3c7 -8 10 -18 10 -27c0 -13 -6 -25 -17 -34c-75 -59 -331 -85 -516 -90
c-39 -149 -103 -436 -86 -437c40 13 57 8 46 -12c-16 -28 -30 -41 -60 -33c-36 10 -59 47 -57 119c-2 72 31 240 63 361c-50 1 -86 4 -100 8z" />
    <glyph glyph-name="t.end" unicode="&#xe2b3;" horiz-adv-x="179" 
d="M207 519c1 -10 -28 -86 -31 -109c41 2 78 5 119 5c21 0 85 -2 85 -34v-5c-3 -5 -20 -5 -25 -5c-67 0 -135 -2 -194 -11c-15 -57 -31 -146 -31 -220c0 -58 10 -108 40 -127c38 0 51 48 71 47c16 -1 22 -26 22 -36c0 -19 -27 -46 -62 -46c-47 0 -90 16 -117 52
c-25 34 -38 84 -38 148c0 49 8 107 22 171c-14 -2 -27 -5 -43 -5c-17 0 -50 17 -50 37c0 17 98 20 107 23c11 37 19 72 34 108c10 25 13 30 42 31c15 1 48 -5 49 -24z" />
    <glyph glyph-name="t.salt" unicode="&#xe4d3;" horiz-adv-x="153" 
d="M-120 491l223 7c12 34 38 121 55 147c11 17 72 -27 72 -48c0 -13 -29 -84 -32 -97c26 1 202 1 228 1h125c28 0 56 -1 82 -5c20 -3 28 -9 28 -14c0 -15 -62 -33 -100 -34c-146 -6 -220 -7 -384 -13c-39 -129 -97 -357 -97 -492c0 -16 1 -33 2 -49c9 0 38 -1 38 -15
c0 -12 -27 -17 -36 -17c-56 0 -68 69 -72 119c-1 10 -1 20 -1 31c0 130 52 337 75 417c-104 -7 -138 -6 -173 -6c-20 0 -53 31 -53 56c0 8 16 11 20 12z" />
    <glyph glyph-name="tcaron" unicode="&#x165;" horiz-adv-x="433" 
d="M11 371l71 6c42 139 42 138 45 144c11 32 81 -6 78 -42c-18 -76 -20 -84 -26 -100c10 0 38 0 54 -7c14 -5 31 -19 42 -30c6 -9 -4 -15 -32 -15c-14 1 -9 1 -82 -3c-39 -143 -63 -284 -46 -285c30 9 89 92 128 196c3 8 9 20 17 20c20 0 31 -15 31 -39c0 -10 -1 -21 -5 -33
c-17 -59 -68 -149 -81 -163c-21 -22 -50 -34 -79 -34c-51 0 -101 38 -98 127c4 64 20 150 35 198l-12 1c-56 -1 -63 28 -61 32c1 5 2 23 21 27zM335 569c9 20 64 8 74 -6c12 -14 16 -28 16 -46c0 -39 -14 -107 -46 -133c-12 -9 -59 -7 -59 12c0 11 9 26 13 38
c7 23 11 48 11 72c0 21 -2 43 -9 63z" />
    <glyph glyph-name="three" unicode="3" horiz-adv-x="345" 
d="M68 492c24 30 72 50 122 50c15 0 31 -2 46 -6c38 -11 79 -49 79 -92c0 -63 -73 -110 -123 -137c53 0 122 -39 122 -101c0 -99 -135 -203 -224 -229h1c-11 -3 -22 -5 -33 -5c-13 0 -27 3 -40 8c-10 8 -23 22 -23 36c0 8 4 14 13 14s19 -5 28 -9c48 23 96 52 134 92
c25 25 67 75 67 112c0 18 -6 36 -27 36c-41 0 -64 -35 -87 -35s-52 39 -52 61c0 9 40 32 87 70c20 17 80 65 80 95c0 18 -12 25 -28 25c-32 0 -81 -25 -97 -38c-12 -8 -10 -19 -23 -19c-24 0 -33 51 -22 72z" />
    <glyph glyph-name="threequarters" unicode="&#xbe;" horiz-adv-x="578" 
d="M527 466h1c-60 -65 -113 -138 -168 -207c-41 -52 -89 -113 -121 -174c-13 -21 -45 -71 -45 -95c0 -17 1 -24 -22 -24c-30 0 -59 16 -59 48c0 98 301 443 343 490c13 15 35 32 56 32c13 0 51 -11 51 -29c0 -6 -7 -11 -36 -41zM450 53c-9 -3 -38 -6 -48 -6
c-44 0 -76 29 -79 78c-1 28 128 181 196 181c17 0 44 -19 42 -39c-11 -89 -29 -180 -40 -274c-2 -12 -3 -24 -3 -36h-1c1 -2 2 -5 2 -7c-2 -11 -16 -16 -26 -16c-6 0 -15 2 -20 5c-27 16 -34 30 -34 47s7 37 11 67zM474 195c-15 -13 -85 -74 -86 -95c0 -9 56 1 73 5
c6 31 9 66 13 90zM72 486c12 33 57 72 118 65c32 -4 69 -38 69 -74c0 -34 -27 -64 -51 -79c40 -8 53 -28 53 -72c0 -77 -131 -125 -189 -125c-25 0 -32 7 -47 27c-6 8 -12 16 -12 26c0 7 4 11 12 11c9 0 17 -5 25 -5c43 0 121 33 142 71c6 11 -7 32 -23 32
c-25 0 -35 -16 -52 -16c-21 0 -37 26 -37 47c0 14 141 53 121 100c-21 23 -79 -14 -89 -45c-4 -12 -42 3 -40 37z" />
    <glyph glyph-name="threesuperior" unicode="&#xb3;" horiz-adv-x="242" 
d="M82 486c12 33 45 64 106 57c32 -4 80 -40 80 -76c0 -34 -41 -57 -65 -72c40 -8 68 -25 68 -69c0 -77 -135 -123 -193 -123c-25 0 -28 5 -43 25c-6 8 -12 16 -12 26c0 7 4 11 12 11c9 0 17 -5 25 -5c43 0 121 33 142 71c6 11 -7 32 -23 32c-25 0 -35 -16 -52 -16
c-21 0 -37 26 -37 47c0 14 141 53 121 100c-21 23 -79 -14 -89 -45c-4 -12 -42 3 -40 37z" />
    <glyph glyph-name="tilde" unicode="&#x2dc;" horiz-adv-x="330" 
d="M73 575c31 42 50 56 84 55c40 -1 49 -25 84 -51c7 4 18 13 18 23c0 15 9 28 31 19c12 -5 20 -14 25 -23c10 -39 -22 -77 -70 -77c-18 0 -63 19 -81 53c-17 -16 -26 -44 -44 -44c-21 0 -45 22 -47 45z" />
    <glyph glyph-name="trademark" unicode="&#x2122;" horiz-adv-x="466" 
d="M95 587c41 0 82 8 130 8c12 0 46 -7 55 -15c10 10 12 25 42 24c32 -1 25 -25 30 -62c13 12 29 49 47 49c16 0 44 -8 44 -28v-2c-3 -17 -6 -49 -6 -78c0 -20 2 -38 5 -46c0 -1 1 -2 1 -3c0 -8 -13 -8 -18 -8c-23 0 -48 6 -47 32l-5 59l-22 -51c-3 -17 -15 -11 -19 -9
c-13 7 -17 18 -16 57l-42 -71c-2 -6 -7 -8 -12 -8c-21 0 -32 8 -45 23c-2 5 6 20 9 24c11 19 21 39 36 70c-10 0 -26 -2 -41 -2c-10 -21 -22 -54 -32 -76c-9 -20 -23 -48 -44 -46c-9 1 -39 3 -39 14s7 24 11 35c7 22 19 48 27 70c-7 -2 -18 -2 -25 -2c-12 0 -43 17 -43 31
c0 5 16 11 19 11z" />
    <glyph glyph-name="two" unicode="2" horiz-adv-x="360" 
d="M3 -7l-1 -3c-3 0 -6 0 -8 1c-6 8 0 33 3 42c2 5 6 9 11 13c8 41 111 153 158 220c29 41 97 151 97 200c0 13 -10 23 -23 23c-34 0 -82 -55 -98 -83c-4 -14 -9 -36 -28 -36c-21 0 -48 26 -48 48c0 56 81 123 141 123c64 0 128 -47 128 -115c0 -106 -140 -248 -212 -349
c28 4 63 8 94 8c34 0 64 -4 77 -18c10 -12 28 -45 16 -66c-5 -9 -12 -14 -23 -3s-46 15 -85 15c-54 0 -114 -7 -130 -9z" />
    <glyph glyph-name="twosuperior" unicode="&#xb2;" horiz-adv-x="250" 
d="M101 414c-33 0 -44 18 -45 41c1 52 62 92 108 92c53 0 105 -45 105 -102c0 -63 -149 -144 -171 -188c38 0 95 13 132 13c17 0 36 -5 36 -26c0 -5 -1 -11 -2 -16c-2 -8 -21 -7 -27 -8c-42 -6 -104 -13 -147 -13c-32 0 -63 7 -63 47c0 50 138 152 167 201
c12 20 10 33 -4 44c-28 9 -70 -35 -70 -72c0 -9 -10 -13 -19 -13z" />
    <glyph glyph-name="u" unicode="u" horiz-adv-x="371" 
d="M219 97c-29 -62 -71 -126 -126 -109c-40 14 -67 53 -75 96c0 60 19 160 67 238c26 14 66 -4 79 -29c3 -6 3 -13 -4 -21c-24 -35 -65 -183 -58 -230c23 -4 137 203 152 261c4 8 19 8 26 8c21 0 60 -21 55 -43c-10 -35 -41 -127 -41 -186c0 -15 2 -28 7 -37
c33 4 82 82 121 190c3 8 9 20 17 20c20 0 30 -15 29 -39c-3 -55 -46 -145 -84 -186c-18 -19 -49 -32 -79 -32c-56 0 -81 46 -86 99z" />
    <glyph glyph-name="u.end" unicode="&#xe2b4;" horiz-adv-x="394" 
d="M6 84c0 76 27 154 58 225c0 6 -4 9 7 14c7 3 16 3 21 3c19 0 57 -7 57 -34c0 -4 -1 -6 -2 -9c-14 -37 -28 -74 -39 -112s-24 -77 -26 -118c22 -8 117 170 136 227c6 10 15 16 27 16c23 0 69 -23 69 -50c0 -3 -1 -7 -2 -10c-15 -45 -21 -90 -21 -138c0 -8 2 -57 12 -62
c30 8 81 36 108 81c4 7 13 14 21 14c13 0 19 -11 19 -26c0 -12 -3 -26 -9 -39c-16 -37 -64 -77 -113 -77c-50 0 -106 31 -124 121c-25 -41 -62 -124 -109 -124c-49 0 -90 52 -90 98z" />
    <glyph glyph-name="uacute" unicode="&#xfa;" horiz-adv-x="371" 
d="M219 97c-29 -62 -71 -126 -126 -109c-40 14 -67 53 -75 96c0 60 19 160 67 238c26 14 66 -4 79 -29c3 -6 3 -13 -4 -21c-24 -35 -65 -183 -58 -230c23 -4 137 203 152 261c4 8 19 8 26 8c21 0 60 -21 55 -43c-15 -49 -40 -138 -40 -191c0 -14 2 -25 6 -32
c33 4 81 82 120 190c3 8 9 20 17 20c20 0 31 -15 31 -39c0 -10 -1 -21 -5 -33c-17 -59 -67 -139 -80 -153c-18 -19 -49 -32 -79 -32c-22 0 -43 7 -59 24c-14 16 -24 31 -27 75zM279 424c-5 -10 -13 -42 -31 -42c-25 0 -62 21 -62 51c0 52 112 126 165 126
c17 0 40 -14 49 -28c0 -6 -16 -10 -20 -11c-42 -16 -86 -54 -101 -96z" />
    <glyph glyph-name="ucircumflex" unicode="&#xfb;" horiz-adv-x="371" 
d="M219 97c-29 -62 -71 -126 -126 -109c-40 14 -67 53 -75 96c0 60 19 160 67 238c26 14 66 -4 79 -29c3 -6 3 -13 -4 -21c-24 -35 -65 -183 -58 -230c23 -4 137 203 152 261c4 8 19 8 26 8c21 0 60 -21 55 -43c-15 -49 -40 -138 -40 -191c0 -14 2 -25 6 -32
c33 4 81 82 120 190c3 8 9 20 17 20c20 0 31 -15 31 -39c0 -10 -1 -21 -5 -33c-17 -59 -67 -139 -80 -153c-18 -19 -49 -32 -79 -32c-22 0 -43 7 -59 24c-14 16 -24 31 -27 75zM100 428c0 12 21 13 29 13c22 0 62 44 81 62c13 14 10 31 33 31c32 0 48 -14 60 -35
c12 -20 36 -76 46 -103c7 -3 19 -8 19 -16c0 -4 -1 -7 -3 -9c-8 -5 -20 -11 -34 -11c-43 0 -67 51 -85 83c-20 -20 -61 -59 -93 -59c-19 0 -53 27 -53 44z" />
    <glyph glyph-name="udieresis" unicode="&#xfc;" horiz-adv-x="371" 
d="M219 97c-29 -62 -71 -126 -126 -109c-40 14 -67 53 -75 96c0 60 19 160 67 238c26 14 66 -4 79 -29c3 -6 3 -13 -4 -21c-24 -35 -65 -183 -58 -230c23 -4 137 203 152 261c4 8 19 8 26 8c21 0 60 -21 55 -43c-15 -49 -40 -138 -40 -191c0 -14 2 -25 6 -32
c33 4 81 82 120 190c3 8 9 20 17 20c20 0 31 -15 31 -39c0 -10 -1 -21 -5 -33c-17 -59 -67 -139 -80 -153c-18 -19 -49 -32 -79 -32c-22 0 -43 7 -59 24c-14 16 -24 31 -27 75zM114 464c8 14 23 20 39 20c28 0 59 -19 59 -50c0 -30 -22 -63 -57 -63c-18 0 -35 6 -44 20
c-4 12 -7 24 -7 35c0 12 3 24 10 38zM315 486c31 0 60 -19 60 -54c0 -30 -22 -57 -62 -57c-34 0 -56 39 -46 69c11 25 18 42 48 42z" />
    </font>
</defs>
</svg>
